<?xml version="1.0" encoding="utf-8"?>
<!-- Generator: Adobe Illustrator 26.0.1, SVG Export Plug-In . SVG Version: 6.00 Build 0)  -->
<svg version="1.1" id="Layer_1" xmlns="http://www.w3.org/2000/svg" xmlns:xlink="http://www.w3.org/1999/xlink" x="0px" y="0px"
	 viewBox="0 0 50 50" style="enable-background:new 0 0 50 50;" xml:space="preserve">
<style type="text/css">
	.st0{fill:#478CC8;}
	.st1{fill:#6EAFE1;}
	.st2{fill:#E22027;}
	.st3{fill:#E12028;}
	.st4{fill:#E1202A;}
	.st5{fill:#E31F28;}
	.st6{fill:#E51E28;}
	.st7{fill:#E21E27;}
	.st8{fill:#E21E29;}
	.st9{fill:#FFFFFF;}
	.st10{fill:#E22028;}
	.st11{fill:#E12026;}
	.st12{fill:#E32029;}
	.st13{fill:#E31F2B;}
	.st14{fill:#E21F28;}
	.st15{fill:#E32028;}
	.st16{fill:#E2202A;}
	.st17{fill:#E12128;}
	.st18{fill:#E3202B;}
	.st19{fill:#E31F29;}
	.st20{fill:#E21F2A;}
	.st21{fill:#E41F2A;}
	.st22{fill:#E1222A;}
	.st23{fill:#E02129;}
	.st24{fill:#DF232B;}
	.st25{fill:#E2232D;}
	.st26{fill:#DF222B;}
	.st27{fill:#D92D35;}
	.st28{fill:#DE2F39;}
	.st29{fill:#262261;}
	.st30{fill:#E3202A;}
	.st31{fill:#262362;}
	.st32{fill:#262363;}
	.st33{fill:#232563;}
	.st34{fill:#252463;}
	.st35{fill:#202569;}
	.st36{fill:#232564;}
	.st37{fill:#71AEDF;}
	.st38{fill:#242361;}
	.st39{fill:#242363;}
	.st40{fill:#4986BF;}
	.st41{fill:#6CACDC;}
	.st42{fill:#5B9ACF;}
	.st43{fill:#4989C6;}
	.st44{fill:#6EAFDF;}
	.st45{fill:#74A9DC;}
	.st46{fill:#242C70;}
</style>
<g>
	<path class="st0" d="M11.9,16.3c1.3,0.5,2.6,1.1,3.9,1.7c1.1,0.5,2.3,1,3.4,1.5c0.2,0.1,0.3,0.2,0.3,0.5c0,2.1,0,4.1,0,6.2
		c0,1.1-0.3,2.1-0.7,3.1c-0.6,1.3-1.4,2.5-2.5,3.4c-1,0.9-2.2,1.6-3.5,2.1c-0.2,0.1-0.4,0.1-0.7,0.2c0,0-0.1,0-0.1,0
		c-0.3,0-0.3,0-0.3-0.3c0-0.2,0-0.3,0-0.5c0-0.1,0-0.2-0.1-0.3c0-0.1,0.1-0.1,0.1-0.1c0.2,0,0.3-0.1,0.4-0.2
		c0.6-0.6,1.2-1.2,1.8-1.8c0.1-0.1,0.2-0.2,0.2-0.3c0-0.1,0-0.2-0.1-0.3c-0.1-0.1-0.2-0.1-0.3,0c-0.1,0-0.2,0.1-0.2,0.2
		c-0.5,0.5-1,1-1.5,1.5c-0.1,0.1-0.1,0.2-0.3,0c0-0.4,0-0.8,0-1.3c0-0.5,0-0.9,0-1.4c0-0.2,0.1-0.3,0-0.5c0-0.2,0-0.3-0.1-0.5
		c0.1-0.1,0-0.3,0-0.4c0-1.1,0-2.2,0-3.2c0-0.3,0-0.3-0.3-0.3c-0.1,0-0.3,0.1-0.3-0.1c0.1-0.1,0.2-0.1,0.3-0.1c0.3,0,0.6,0,0.9,0
		c0.2,0,0.3,0,0.3-0.3c0-0.6,0-1.2,0-1.8c0-0.8,0-1.6,0-2.4c0-0.4,0-0.4-0.4-0.4c-0.2,0-0.5,0-0.7,0c-0.1,0-0.2,0-0.3,0
		c-0.1-0.1,0-0.1,0.1-0.1c0.1,0,0.2,0,0.3,0c0.1,0,0.2,0,0.2-0.1c0.1-0.1,0.3-0.1,0.4-0.1c0.3,0,0.3-0.1,0.3-0.3c0-0.2,0-0.3,0-0.5
		c0-0.2,0-0.4-0.1-0.5c0,0,0-0.1,0-0.1c0-0.3-0.2-0.5-0.4-0.6c0,0-0.1-0.1-0.1-0.1c-0.1-0.4,0-0.8,0-1.2
		C11.8,16.3,11.8,16.2,11.9,16.3z"/>
	<path class="st1" d="M11.9,19.9c0,0.1,0,0.2-0.2,0.2c-0.2,0-0.4,0-0.5,0c0,0.1,0,0.2,0,0.3c0,1.5,0,2.9,0,4.4c0,0.1,0,0.2,0,0.3
		c0.2,0.1,0.4,0,0.5,0c0.1,0,0.2,0,0.2,0.2c0,1.1,0,2.3,0,3.4c0,0.1,0,0.1,0,0.1c-0.1,0-0.1,0-0.2-0.1c-0.5-0.3-1.1,0.1-1.1,0.7
		c0,0.2,0,0.3,0.1,0.5c0.1,0.2,0.3,0.3,0.5,0.3c0.3,0,0.5,0,0.7-0.1c0.1,0.1,0,0.2,0,0.2c0,0.9,0,1.7,0,2.6c-0.1,0.1-0.2,0-0.2,0
		c-0.2-0.2-0.4-0.4-0.6-0.6c-0.1-0.1-0.1-0.1-0.2-0.2c-0.1,0-0.3,0-0.4,0.1c-0.1,0.1-0.1,0.3,0.1,0.4c0.3,0.3,0.6,0.6,1,1
		c0.1,0.1,0.2,0.1,0.2,0.2c0.1,0.1,0.2,0.2,0.2,0.3c0,0.2,0,0.4,0,0.6c0,0.2,0.1,0.3,0.3,0.2c0,0,0.1,0,0.1,0c-0.3,0.1-0.5,0-0.8,0
		c-1.5-0.4-2.8-1.1-3.9-2.1c-0.9-0.8-1.6-1.7-2.2-2.7c-0.4-0.8-0.8-1.6-1-2.5c-0.1-0.5-0.2-1-0.2-1.5c-0.1-2,0-4.1,0-6.1
		c0-0.4,0.1-0.4,0.4-0.6c1-0.4,1.9-0.9,2.9-1.3c1-0.4,2-0.9,3-1.3c0.4-0.2,0.8-0.4,1.2-0.5c0.1,0,0.2-0.1,0.3,0
		c-0.1,0-0.1,0-0.1,0.1c0,0.4,0,0.8,0,1.2c-0.3,0.2-0.6,0.4-0.5,0.8c-0.3,0.3-0.2,0.7-0.2,1.1c0,0.2,0.1,0.3,0.3,0.3
		C11.6,19.8,11.7,19.8,11.9,19.9z"/>
	<path class="st2" d="M36.8,28.1c-0.3-0.7-0.6-1.4-0.9-2.1c-0.1-0.2-0.2-0.4-0.3-0.6c-0.1-0.3-0.4-0.2-0.6-0.2
		c-0.2,0-0.2,0.1-0.3,0.3c-0.1,0.3-0.2,0.7-0.4,1c-0.2,0.6-0.4,1.1-0.7,1.7c-0.3-0.4-0.5-0.8-0.9-1.1c0.1-0.1,0.2-0.1,0.3-0.1
		c0.3-0.2,0.5-0.5,0.5-0.9c-0.1-0.4-0.4-0.7-0.8-0.7c-0.5-0.1-1.1,0-1.6,0c-0.2,0-0.2,0.1-0.2,0.2c0,0.8,0,1.6,0,2.5
		c0,0.1,0,0.2,0,0.3c0.1,0.2,0.3,0.1,0.5,0.2c0.2,0,0.1-0.1,0.1-0.2c0-0.3,0-0.6,0-0.8c0-0.3,0.1-0.3,0.3-0.3c0.1,0,0.3,0.1,0.4,0.2
		c0.1,0.2,0.3,0.3,0.4,0.5c0.2,0.4,0.5,0.6,1,0.6c0.6,0,0.6,0,0.8-0.6c0-0.1,0.1-0.2,0.2-0.2c0.3,0,0.5,0,0.8,0c0.2,0,0.3,0,0.4,0.3
		c0.2,0.5,0.2,0.4,0.6,0.5C36.9,28.3,36.9,28.3,36.8,28.1z M32.7,26.5c-0.3,0-0.5,0-0.8,0c-0.1,0-0.1-0.1-0.2-0.2
		c-0.1-0.5-0.1-0.6,0.5-0.6c0.1,0,0.3,0,0.4,0c0.2,0,0.3,0.2,0.3,0.4C33,26.3,32.9,26.5,32.7,26.5z M35,27.1c-0.1,0-0.1-0.1-0.1-0.2
		c0.1-0.3,0.2-0.6,0.3-1c0.2,0.4,0.3,0.7,0.4,1.1C35.4,27.1,35.2,27.1,35,27.1z"/>
	<path class="st3" d="M38.9,27.1c0-0.6,0-1.2,0-1.7c0-0.3,0.2-0.2,0.3-0.3c0.2,0,0.3,0.1,0.3,0.3c0,0.9,0,1.8,0,2.7
		c0,0.1-0.1,0.2-0.2,0.2c-0.3,0.1-0.5,0-0.7-0.4c-0.3-0.5-0.6-1.1-1-1.6c0,0,0,0-0.1,0c0,0.2,0,0.4,0,0.6c0,0.4,0,0.7,0,1.1
		c0,0.2-0.1,0.3-0.3,0.3c-0.3,0-0.3,0-0.3-0.3c0-0.9,0-1.8,0-2.7c0-0.1,0-0.2,0.2-0.2c0.3,0,0.5,0,0.6,0.3c0.3,0.5,0.6,1,0.9,1.5
		C38.7,27,38.8,27.1,38.9,27.1C38.8,27.2,38.9,27.1,38.9,27.1z"/>
	<path class="st4" d="M24.4,27.2c0-0.2,0-0.3,0-0.5c0-0.4,0-0.8,0-1.2c0-0.1-0.1-0.3,0.2-0.3c0.4,0,0.4,0,0.4,0.3c0,0.9,0,1.7,0,2.6
		c0,0.2-0.1,0.2-0.2,0.3c-0.3,0-0.5-0.1-0.7-0.4c-0.3-0.5-0.6-1-0.9-1.4c0,0,0-0.1-0.1-0.1c-0.1,0-0.1,0.1-0.1,0.1c0,0.5,0,1,0,1.5
		c0,0.2,0,0.3-0.2,0.3c-0.3,0-0.4,0-0.4-0.3c0-0.9,0-1.7,0-2.6c0-0.3,0.1-0.3,0.3-0.3c0.2,0,0.4,0.1,0.5,0.3
		C23.7,26.1,24,26.6,24.4,27.2C24.3,27.2,24.4,27.2,24.4,27.2z"/>
	<path class="st5" d="M44.1,28.3c-0.3,0-0.6,0-1,0c-0.2,0-0.2,0-0.2-0.2c0-0.9,0-1.8,0-2.6c0-0.3,0-0.3,0.3-0.3c0.6,0,1.2,0,1.8,0
		c0.2,0,0.3,0,0.3,0.2c0,0.2,0,0.3-0.3,0.3c-0.4,0-0.8,0-1.2,0c-0.2,0-0.3,0.1-0.2,0.2c0,0.1,0,0.1,0,0.2c0,0.2,0.1,0.3,0.3,0.3
		c0.3,0,0.7,0,1,0c0.2,0,0.3,0,0.3,0.2c0,0.3,0,0.3-0.3,0.3c-0.4,0-0.7,0-1.1,0c-0.2,0-0.2,0-0.2,0.2c0,0.1,0,0.3,0,0.4
		c0,0.2,0.1,0.2,0.2,0.2c0.4,0,0.8,0,1.2,0c0.1,0,0.3,0,0.3,0.2c0,0.3,0,0.4-0.3,0.4C44.7,28.3,44.4,28.3,44.1,28.3z"/>
	<path class="st6" d="M27.4,26.1c-0.2,0-0.3,0-0.4-0.2c-0.2-0.3-0.7-0.3-0.9-0.1c-0.1,0.1-0.1,0.3,0.1,0.4c0.3,0.1,0.6,0.2,0.8,0.3
		c0.2,0.1,0.5,0.2,0.6,0.4c0.3,0.4,0.2,1.1-0.3,1.4c-0.5,0.3-1.1,0.3-1.7,0c-0.3-0.2-0.4-0.4-0.4-0.7c0-0.1,0-0.2,0.1-0.2
		c0.1,0,0.2,0,0.4,0c0.1,0,0.1,0.1,0.1,0.2c0.2,0.4,0.7,0.6,1.1,0.3c0.1-0.1,0.2-0.2,0.2-0.4c0-0.2-0.1-0.2-0.3-0.3
		c-0.2-0.1-0.5-0.1-0.7-0.2c-0.2,0-0.4-0.1-0.5-0.2c-0.5-0.4-0.4-1.2,0.2-1.4c0.4-0.2,0.9-0.2,1.3,0c0.2,0.1,0.3,0.2,0.4,0.4
		C27.8,26.1,27.8,26.1,27.4,26.1z"/>
	<path class="st7" d="M30.6,26.5c0,0.3,0,0.6,0,0.9c0,0.6-0.4,1-1,1c-0.3,0-0.6,0-0.9-0.1c-0.4-0.2-0.5-0.4-0.6-0.8
		c-0.1-0.7,0-1.4,0-2c0-0.3,0.2-0.2,0.3-0.3c0.2,0,0.3,0,0.3,0.2c0,0.3,0,0.7,0,1c0,0.3,0,0.6,0,0.9c0,0.2,0.1,0.4,0.3,0.5
		c0.2,0.1,0.5,0.1,0.7-0.1c0.2-0.2,0.2-0.4,0.2-0.7c0-0.5,0-1.1,0-1.6c0-0.2,0-0.3,0.2-0.3c0.3,0,0.4,0,0.4,0.2
		C30.6,25.8,30.6,26.1,30.6,26.5C30.6,26.5,30.6,26.5,30.6,26.5z"/>
	<path class="st8" d="M39.8,26.8c0-0.6,0.1-1.1,0.6-1.4c0.7-0.4,1.5-0.3,1.9,0.3c0.1,0.1,0.2,0.3,0,0.4c-0.2,0.1-0.5,0.1-0.6,0
		c-0.2-0.3-0.4-0.4-0.7-0.4c-0.3,0.1-0.5,0.2-0.6,0.6c-0.1,0.4-0.1,0.7,0,1.1c0.1,0.3,0.3,0.5,0.6,0.5c0.3,0,0.6-0.1,0.7-0.5
		c0.1-0.2,0.2-0.2,0.3-0.1c0.4,0.2,0.4,0.1,0.2,0.6c-0.3,0.6-1.2,0.7-1.7,0.5C40,28,39.8,27.4,39.8,26.8z"/>
	<g>
		<path class="st9" d="M31,23.4c-0.5-1.4-1.1-2.8-1.6-4.2C29.3,19,29.2,19,29.1,19c-0.4,0-0.7,0-1.1,0c-0.2,0-0.3,0.1-0.3,0.2
			c-0.4,1.1-0.8,2.2-1.2,3.4c-0.1,0.3-0.2,0.6-0.4,1c-0.5-0.7-0.6-1.5-1.4-2c0.1-0.1,0.3-0.1,0.4-0.2c0.7-0.4,0.8-1.5,0.2-2
			C25,19.1,24.6,19,24.2,19c-0.8,0-1.7,0-2.5,0c-0.1,0-0.2,0-0.2,0.2c0,1.4,0,2.8,0,4.2c0,0.1,0,0.2,0.2,0.2c0.3,0,0.7,0,1,0
			c0.2,0,0.2-0.1,0.2-0.2c0-0.5,0-0.9,0-1.4c0-0.2,0.1-0.2,0.3-0.2c0.2,0,0.3,0.2,0.4,0.3c0.2,0.4,0.5,0.9,0.7,1.3
			c0.1,0.2,0.2,0.2,0.4,0.2c0.7,0,1.5,0,2.2,0c0.6,0,0.6,0,0.7-0.6c0-0.2,0.1-0.2,0.3-0.2c0.3,0,0.5,0,0.8,0c0.6,0,0.6,0,0.8,0.6
			c0,0.1,0.1,0.2,0.2,0.2c0.4,0,0.7,0,1.1,0C31,23.6,31,23.6,31,23.4z M24,20.8c-0.3,0.1-0.6,0.1-0.9,0.1c-0.1,0-0.1-0.1-0.1-0.2
			c0-0.2,0-0.4,0-0.6c0-0.2,0.1-0.2,0.2-0.2c0.1,0,0.2,0,0.3,0c0.1,0,0.3,0,0.4,0c0.2,0,0.3,0.2,0.3,0.4
			C24.2,20.5,24.1,20.7,24,20.8z M28.9,21.8c-0.2,0-0.5,0-0.7,0c-0.1,0-0.1,0-0.1-0.1c0.1-0.5,0.3-0.9,0.4-1.4c0,0,0,0,0,0
			c0.1,0.5,0.3,0.9,0.4,1.4C29,21.8,29,21.8,28.9,21.8z"/>
		<path class="st9" d="M32.8,21.2c0,0.3,0,0.6,0,1c0,0.4,0,0.8,0,1.2c0,0.2-0.1,0.2-0.2,0.2c-0.3,0-0.6,0-0.9,0
			c-0.2,0-0.2,0-0.2-0.2c0-1.4,0-2.8,0-4.2c0-0.2,0.1-0.2,0.2-0.2c0.3,0,0.6,0,0.9,0c0.2,0,0.3,0.1,0.3,0.2c0.5,0.7,1,1.4,1.4,2.1
			c0,0,0.1,0.1,0.1,0.1c0-0.2,0-0.4,0-0.6c0-0.5,0-1.1,0-1.6c0-0.2,0.1-0.2,0.2-0.2c0.3,0,0.6,0,0.9,0c0.2,0,0.2,0.1,0.2,0.2
			c0,1.4,0,2.8,0,4.2c0,0.2,0,0.2-0.2,0.2c-0.3,0-0.6,0-1,0c-0.2,0-0.3-0.1-0.3-0.2c-0.5-0.7-1-1.4-1.4-2.1
			C32.9,21.2,32.9,21.2,32.8,21.2z"/>
		<path class="st9" d="M41.3,23.3c-0.1-0.2-0.1-0.4-0.2-0.5c-0.5-1.2-0.9-2.4-1.4-3.7c-0.1-0.2-0.2-0.2-0.3-0.2c-0.3,0-0.7,0-1,0
			c-0.2,0-0.4,0.1-0.4,0.3c-0.2,0.7-0.5,1.4-0.8,2.1c-0.3,0.7-0.5,1.5-0.8,2.2c0.3,0,0.6,0,0.8,0c0.7,0,0.6,0.1,0.8-0.6
			c0-0.1,0.1-0.2,0.3-0.2c0.4,0,0.7,0,1.1,0c0.2,0,0.4,0,0.4,0.3c0,0.1,0.1,0.2,0.1,0.3c0,0.1,0.1,0.2,0.2,0.2c0.4,0,0.7,0,1.1,0
			C41.3,23.6,41.3,23.5,41.3,23.3z M39.1,21.8c-0.2,0-0.4,0-0.6,0c-0.2,0-0.2-0.1-0.1-0.2c0.1-0.5,0.3-0.9,0.4-1.4
			c0.2,0.5,0.3,1,0.5,1.4C39.3,21.7,39.3,21.8,39.1,21.8z"/>
		<path class="st9" d="M43.3,20.5c0.3-0.4,0.5-0.9,0.8-1.3c0.1-0.2,0.2-0.3,0.4-0.2c0.4,0,0.7,0,1.1,0c0.1,0,0.1,0,0.2,0
			c0,0.1,0,0.1-0.1,0.2c-0.4,0.7-0.9,1.3-1.3,2c-0.2,0.3-0.4,0.7-0.3,1.1c0,0.4,0,0.7,0,1.1c0,0.2-0.1,0.3-0.2,0.3c-0.3,0-0.7,0-1,0
			c-0.2,0-0.2-0.1-0.2-0.2c0-0.5,0-0.9,0-1.4c0-0.2,0-0.4-0.2-0.5c-0.5-0.8-1-1.5-1.5-2.3c0,0-0.1-0.1-0.1-0.1c0-0.1,0.1,0,0.2,0
			c0.4,0,0.8,0,1.2,0c0.1,0,0.2,0,0.3,0.2c0.2,0.4,0.4,0.7,0.7,1.1C43.2,20.3,43.2,20.4,43.3,20.5z"/>
		<path class="st9" d="M30.5,33.6c0-0.1-0.1-0.1-0.1-0.2c-0.2-0.3-0.3-0.6-0.7-0.8c0.1,0,0.1-0.1,0.2-0.1c0.4-0.2,0.5-0.5,0.5-1
			c-0.1-0.4-0.3-0.6-0.7-0.6c-0.6-0.1-1.3,0-1.9,0c-0.1,0-0.1,0.1-0.1,0.2c0,0.9,0,1.9,0,2.8c0,0.1,0.1,0.2,0.2,0.2
			c0.2,0,0.4,0,0.6,0c0.1,0,0.2-0.1,0.2-0.2c0-0.3,0-0.6,0-0.9c0-0.2,0.1-0.2,0.2-0.2c0.1,0,0.2,0.1,0.2,0.2
			c0.1,0.2,0.2,0.3,0.3,0.5c0.3,0.5,0.3,0.5,0.8,0.5h0.2C30.7,34,30.7,34,30.5,33.6z M29.2,32c-0.1,0.1-0.3,0.1-0.3,0.1
			c-0.3,0-0.4-0.1-0.4-0.3c0-0.1,0-0.1,0-0.2c0-0.1,0-0.2,0.2-0.2c0.2,0,0.3,0,0.5,0c0.1,0,0.2,0.1,0.2,0.3
			C29.4,31.9,29.4,32,29.2,32z"/>
		<path class="st9" d="M39.4,32.4c0-0.4,0-0.9,0-1.3c0-0.2,0.1-0.3,0.3-0.3c0.7,0,1.4,0,2.1,0c0.2,0,0.2,0.1,0.2,0.3
			c0,0.4,0,0.4-0.2,0.4c-0.4,0-0.8,0-1.2,0c-0.2,0-0.2,0.1-0.2,0.3c0,0.2,0,0.3,0.2,0.2c0.4,0,0.7,0,1.1,0c0.2,0,0.2,0.1,0.2,0.2
			c0,0.2,0.1,0.4-0.2,0.4c-0.3,0-0.7,0-1,0c-0.2,0-0.3,0-0.3,0.2c0,0.4,0,0.4,0.4,0.4c0.4,0,0.7,0,1.1,0c0.2,0,0.2,0,0.2,0.2
			c0,0.5,0,0.5-0.5,0.5c-0.6,0-1.2,0-1.8,0c-0.3,0-0.3,0-0.3-0.3C39.4,33.2,39.4,32.8,39.4,32.4z"/>
		<path class="st9" d="M24.4,32.4c0-0.4,0-0.9,0-1.3c0-0.2,0-0.3,0.2-0.3c0.7,0,1.4,0,2.2,0c0.2,0,0.2,0.1,0.2,0.2
			c0,0.4,0,0.5-0.4,0.5c-0.3,0-0.6,0-1,0c-0.2,0-0.2,0-0.2,0.2c0,0.1,0,0.3,0.2,0.3c0.4,0,0.7,0,1.1,0c0.3,0,0.2,0.1,0.2,0.3
			c0,0.2,0,0.3-0.2,0.3c-0.4,0-0.7,0-1.1,0c-0.2,0-0.2,0.1-0.2,0.3c0,0.2,0,0.3,0.2,0.3c0.4,0,0.8,0,1.2,0c0.2,0,0.2,0,0.2,0.2
			c0,0.5,0.1,0.5-0.5,0.5c-0.6,0-1.2,0-1.8,0c-0.3,0-0.3,0-0.3-0.3C24.4,33.2,24.4,32.8,24.4,32.4C24.4,32.4,24.4,32.4,24.4,32.4z"
			/>
		<path class="st9" d="M43.9,34c-0.4,0-0.7-0.1-0.9-0.2c-0.4-0.2-0.5-0.4-0.6-0.8c0-0.1,0-0.1,0.1-0.1c0.2,0,0.4-0.1,0.7-0.1
			c0.1,0,0.2,0.1,0.2,0.2c0.1,0.3,0.4,0.4,0.7,0.3c0.1,0,0.2-0.1,0.2-0.3c0-0.1-0.1-0.2-0.2-0.3c-0.2-0.1-0.3-0.1-0.5-0.2
			c-0.2-0.1-0.5-0.1-0.7-0.2c-0.3-0.2-0.5-0.4-0.4-0.8c0-0.3,0.2-0.6,0.5-0.7c0.6-0.3,1.1-0.2,1.7,0c0.3,0.1,0.4,0.4,0.5,0.7
			c0,0.1,0,0.1-0.1,0.1c-0.1,0-0.3,0-0.4,0c-0.2,0-0.3,0-0.4-0.2c-0.1-0.2-0.4-0.3-0.6-0.2c-0.1,0.1-0.2,0.2,0,0.3
			c0.1,0.1,0.3,0.1,0.4,0.1c0.4,0.1,0.7,0.1,1,0.4c0.4,0.4,0.3,1.2-0.2,1.5C44.5,33.9,44.2,34,43.9,34z"/>
		<path class="st9" d="M22.5,30.8c0.3,0,0.5,0,0.7,0.1c0.4,0.1,0.5,0.4,0.6,0.7c0,0.1,0,0.1-0.1,0.1c-0.2,0-0.3,0-0.5,0
			c-0.2,0-0.3,0-0.4-0.2c-0.1-0.2-0.3-0.2-0.5-0.2c-0.1,0-0.2,0.1-0.2,0.2c0,0.1,0.1,0.2,0.2,0.2c0.3,0.1,0.7,0.1,1,0.3
			c0.6,0.2,0.8,0.7,0.5,1.3c-0.1,0.2-0.2,0.3-0.4,0.4c-0.6,0.3-1.3,0.4-1.9,0c-0.3-0.2-0.4-0.5-0.5-0.8c0-0.1,0-0.1,0.1-0.1
			c0.2,0,0.4-0.1,0.6,0c0.1,0,0.2,0.1,0.3,0.2c0.1,0.3,0.4,0.4,0.7,0.3c0.1,0,0.2-0.1,0.2-0.3c0-0.1-0.1-0.2-0.2-0.3
			c-0.2-0.1-0.4-0.1-0.7-0.2c-0.2-0.1-0.4-0.1-0.6-0.2c-0.3-0.2-0.4-0.4-0.4-0.7c0-0.3,0.2-0.6,0.5-0.8
			C21.9,30.8,22.2,30.8,22.5,30.8z"/>
		<path class="st9" d="M37.5,34c-1.1,0.1-1.7-0.8-1.6-1.8c0-0.4,0.1-0.7,0.4-1c0.4-0.4,0.9-0.5,1.5-0.5c0.5,0.1,0.8,0.3,1.1,0.7
			c0.1,0.2,0.1,0.2-0.1,0.3c-0.1,0-0.2,0-0.3,0.1c-0.2,0.1-0.4,0.1-0.5-0.2c-0.1-0.2-0.4-0.2-0.6-0.2c-0.3,0.1-0.4,0.3-0.4,0.5
			c-0.1,0.3,0,0.6,0,0.9c0.1,0.2,0.3,0.4,0.5,0.4c0.3,0,0.4-0.1,0.5-0.3c0.1-0.3,0.2-0.3,0.4-0.2c0.1,0,0.2,0.1,0.3,0.1
			c0.3,0.1,0.3,0.1,0.2,0.4C38.7,33.7,38.2,34.1,37.5,34z"/>
		<path class="st9" d="M32.3,33c0.1-0.2,0.1-0.3,0.2-0.5c0.1-0.5,0.3-0.9,0.4-1.4c0.1-0.2,0.2-0.2,0.3-0.2c0.2,0,0.5,0,0.7,0
			c-0.1,0.3-0.2,0.6-0.3,0.8c-0.2,0.7-0.5,1.4-0.7,2.1c-0.1,0.2-0.2,0.3-0.4,0.3c-0.2,0-0.4,0-0.6,0c-0.1,0-0.2-0.1-0.3-0.2
			c-0.4-0.9-0.7-1.9-1.1-2.8c-0.1-0.1,0-0.2,0.1-0.2c0.2,0,0.4,0,0.7,0c0.2,0,0.2,0.1,0.2,0.2C31.9,31.7,32.1,32.3,32.3,33
			C32.3,32.9,32.3,32.9,32.3,33z"/>
		<path class="st9" d="M34.3,32.4c0-0.5,0-0.9,0-1.4c0-0.2,0.1-0.2,0.2-0.2c0.2,0,0.4,0,0.5,0c0.2,0,0.2,0,0.2,0.2
			c0,0.9,0,1.8,0,2.7c0,0.2,0,0.2-0.2,0.2c-0.2,0-0.4,0-0.6,0c-0.1,0-0.2-0.1-0.2-0.2C34.3,33.3,34.3,32.8,34.3,32.4z"/>
	</g>
	<path class="st10" d="M12.3,36.8c0.1-0.3,0.2-0.5,0.2-0.8c0-0.1,0.1-0.2,0.2-0.2c0.6,0,0.5-0.1,0.6,0.5c0,0.4,0,0.7,0,1.1
		c0,0.2-0.1,0.2-0.2,0.2c-0.2,0-0.2-0.1-0.2-0.2c0-0.3,0-0.7,0-1c-0.1,0.3-0.2,0.6-0.2,0.9c0,0.2-0.1,0.3-0.2,0.3
		c-0.2,0-0.3-0.1-0.3-0.2c-0.1-0.3-0.2-0.6-0.3-0.8c0,0.3,0,0.6,0,0.9c0,0.2-0.1,0.2-0.3,0.2c-0.2,0-0.2,0-0.2-0.2
		c0-0.5,0-0.9,0-1.4c0-0.1,0-0.2,0.2-0.2c0.1,0,0.1,0,0.2,0c0.3,0,0.3,0,0.4,0.3C12.2,36.4,12.2,36.6,12.3,36.8
		C12.3,36.8,12.3,36.8,12.3,36.8z"/>
	<path class="st11" d="M6.1,37.5C6,37.3,6,37.1,5.8,37c-0.1-0.1-0.1-0.2,0-0.2C6,36.6,6.1,36.4,6,36.2c-0.1-0.2-0.2-0.3-0.5-0.3
		c-0.3,0-0.7,0-1,0c-0.1,0-0.2,0.1-0.2,0.2c0,0.2,0,0.5,0,0.7h0c0,0.2,0,0.5,0,0.7c0,0.2,0.1,0.2,0.2,0.2c0.3,0,0.4-0.1,0.3-0.3
		c0-0.1,0-0.2,0-0.2C5,37,5,36.9,5,36.9c0.1,0,0.1,0,0.2,0.1c0.1,0.1,0.2,0.3,0.2,0.4c0.1,0.2,0.4,0.3,0.6,0.2
		C6.1,37.6,6.2,37.6,6.1,37.5z M5.2,36.6C5,36.6,5,36.5,5,36.4c0-0.1,0.1-0.2,0.2-0.2c0.1,0,0.3,0,0.3,0.2
		C5.5,36.6,5.3,36.6,5.2,36.6z"/>
	<path class="st5" d="M22.2,36.9c0-0.1,0-0.2,0-0.3c0-0.3,0.2-0.4,0.5-0.3c0.1,0,0.1,0,0.1,0c0.2-0.1,0.4-0.1,0.6,0
		c0.1,0,0.1,0.1,0.2,0c0.2-0.1,0.4-0.2,0.6-0.1c0.2,0.1,0.2,0.3,0.2,0.5c0,0.2,0,0.4,0,0.6c0,0.1,0,0.2-0.2,0.2
		c-0.2,0-0.3,0-0.3-0.2c0-0.2,0-0.3,0-0.5c0-0.1,0-0.2-0.2-0.3c-0.2,0-0.2,0.1-0.2,0.2c0,0.2,0,0.3,0,0.5c0,0.2-0.1,0.2-0.2,0.2
		c-0.1,0-0.3,0-0.3-0.2c0-0.2,0-0.3,0-0.5c0-0.1,0-0.3-0.2-0.3c-0.2,0-0.2,0.1-0.2,0.2c0,0.2,0,0.3,0,0.5c0,0.2-0.1,0.2-0.2,0.2
		c-0.2,0-0.3,0-0.3-0.2C22.2,37.2,22.2,37.1,22.2,36.9z"/>
	<path class="st12" d="M31.9,37.2c-0.1-0.1-0.1-0.1-0.1-0.2c0-0.1,0.1-0.2,0-0.2c-0.1,0-0.2-0.1-0.3,0c-0.1,0.1-0.2,0-0.2-0.1
		c-0.1-0.1-0.1-0.1,0-0.2c0.2-0.1,0.3-0.2,0.2-0.5c-0.1-0.2-0.3-0.3-0.5-0.3c-0.6-0.1-0.8,0.2-0.6,0.7c0,0.1,0,0.1-0.1,0.2
		c-0.3,0.2-0.4,0.4-0.2,0.6c0.1,0.3,0.4,0.3,0.7,0.3c0.1,0,0.1,0,0.2,0c0.2-0.1,0.5-0.2,0.7,0c0.1,0.1,0.2-0.1,0.2-0.2
		C32.1,37.3,32,37.3,31.9,37.2z M31.1,37.2c0,0.1-0.1,0.1-0.3,0.1c-0.1,0-0.2,0-0.3-0.2c0-0.1,0-0.2,0.1-0.2c0.1-0.1,0.1,0,0.2,0.1
		c0,0,0.1,0.1,0.1,0.1C31.1,37.1,31.2,37.1,31.1,37.2z M31,36.4c-0.1,0-0.2-0.1-0.2-0.2c0-0.1,0.1-0.2,0.2-0.2c0.1,0,0.2,0,0.2,0.1
		C31.2,36.3,31.1,36.3,31,36.4z"/>
	<path class="st13" d="M34,37.6c-0.4,0-0.7-0.1-0.8-0.4c-0.1-0.2,0-0.3,0.1-0.3c0.2,0,0.3,0,0.4,0.2c0.1,0.2,0.2,0.1,0.4,0.1
		c0.1,0,0.1-0.1,0.1-0.2c0-0.1,0-0.1-0.1-0.2c-0.1,0-0.3-0.1-0.4-0.1c-0.4-0.1-0.5-0.3-0.5-0.5c0-0.3,0.1-0.4,0.5-0.5
		c0.3-0.1,0.5,0,0.8,0.1c0.1,0.1,0.2,0.2,0.2,0.3c0,0.1,0,0.1-0.1,0.1c-0.2,0-0.3,0.1-0.5-0.1c-0.1-0.1-0.1-0.1-0.2-0.1
		c-0.1,0-0.2,0-0.2,0.1c0,0.1,0.1,0.1,0.1,0.1c0.2,0,0.4,0.1,0.5,0.2c0.3,0.1,0.4,0.3,0.4,0.5c0,0.3-0.1,0.4-0.4,0.5
		C34.2,37.6,34.1,37.6,34,37.6z"/>
	<path class="st5" d="M19.8,36.3c-0.1,0.1-0.2,0-0.4,0c-0.2-0.1-0.5,0-0.6,0.1c-0.2,0.2-0.2,0.5-0.1,0.8c0.1,0.2,0.3,0.3,0.5,0.3
		c0.1,0,0.2-0.1,0.3-0.1c0,0.1,0,0.3-0.1,0.4c-0.1,0.1-0.2,0-0.3-0.1c-0.1-0.1-0.2,0-0.3-0.1c-0.1,0-0.2-0.1-0.2,0
		c-0.1,0.1,0,0.2,0.1,0.2c0,0.1,0.1,0.1,0.2,0.2c0.2,0.1,0.5,0.1,0.7,0c0.3-0.1,0.5-0.2,0.5-0.6c0-0.3,0-0.6,0-1
		C20.2,36.3,20.1,36.2,19.8,36.3z M19.5,37.2c-0.2,0-0.2-0.1-0.2-0.3c0-0.1,0-0.3,0.2-0.3c0.2,0,0.2,0.2,0.2,0.3
		C19.7,37.1,19.6,37.2,19.5,37.2z"/>
	<path class="st14" d="M22.1,26.8c0,0.4,0,0.8,0,1.3c0,0.2,0,0.3-0.2,0.3c-0.4,0-0.4,0-0.4-0.3c0-0.6,0-1.2,0-1.8c0-0.3,0-0.6,0-0.9
		c0-0.2,0-0.2,0.2-0.2c0.4,0,0.4,0,0.4,0.4C22.1,26,22.1,26.4,22.1,26.8C22.1,26.8,22.1,26.8,22.1,26.8z"/>
	<path class="st15" d="M10.3,37.6c-0.5,0.1-0.6,0.1-0.7-0.3c-0.1-0.2-0.1-0.1-0.2,0c0,0,0,0.1-0.1,0.2c0,0.1,0,0.2-0.1,0.2
		c-0.1,0-0.2,0-0.4,0c-0.1,0-0.1-0.1-0.1-0.1c0-0.5,0-0.9,0-1.4c0-0.2,0.1-0.3,0.3-0.3c0.2,0,0.3,0,0.3,0.3c0,0.2,0,0.4,0,0.6
		c0.2-0.3,0.5-0.4,0.9-0.3c-0.1,0.1-0.2,0.2-0.3,0.3c-0.1,0.1-0.1,0.2,0,0.3C10,37.2,10.1,37.4,10.3,37.6z"/>
	<path class="st16" d="M18.4,37.4c0-0.1,0-0.1,0-0.2h0c0-0.1,0-0.3,0-0.4c0-0.2-0.1-0.4-0.3-0.4c-0.3-0.1-0.6-0.1-0.9,0
		c-0.1,0-0.1,0.1-0.2,0.2c-0.1,0.1,0,0.2,0.1,0.2c0.1,0,0.3,0.1,0.4,0c0.1-0.1,0.1-0.1,0.2-0.1c0.1,0,0.2,0,0.2,0.1
		c0,0.1-0.1,0.1-0.1,0.1c-0.2,0-0.4,0.1-0.6,0.1C17.1,37,17,37.1,17,37.3c0,0.2,0.1,0.3,0.3,0.3c0.2,0,0.4,0,0.5,0
		c0.1,0,0.1-0.1,0.2,0c0.1,0.1,0.3,0.1,0.4,0C18.5,37.6,18.4,37.4,18.4,37.4z M17.9,37.1c0,0.1-0.1,0.2-0.3,0.2
		c-0.1,0-0.2,0-0.2-0.1c0-0.2,0.2-0.2,0.3-0.2C17.9,37,18,37.1,17.9,37.1z"/>
	<path class="st17" d="M15.1,37.3c0-0.1,0-0.1,0-0.2c0-0.1,0-0.2,0-0.3c0-0.3-0.1-0.4-0.4-0.5c-0.3-0.1-0.5,0-0.7,0.1
		c-0.1,0-0.1,0.1-0.2,0.2c-0.1,0.1,0,0.2,0.1,0.2c0.2,0,0.3,0,0.4-0.1c0.1-0.1,0.2,0,0.3,0c0,0,0.1,0.1,0,0.1c0,0.1-0.1,0.1-0.2,0.1
		c-0.2,0-0.3,0.1-0.5,0.1c-0.2,0.1-0.2,0.2-0.2,0.4c0,0.2,0.1,0.3,0.3,0.3c0.2,0.1,0.4,0.1,0.6,0c0.1,0,0.2-0.1,0.3,0
		c0.1,0.1,0.3,0,0.4,0C15.1,37.6,15.1,37.4,15.1,37.3z M14.2,37.4c0,0-0.1,0-0.1-0.1c0-0.2,0.2-0.2,0.3-0.2c0.1,0,0.1,0,0.1,0.1
		C14.5,37.3,14.5,37.4,14.2,37.4z"/>
	<path class="st12" d="M25.4,37.1c0.2,0,0.4,0,0.6,0c0.2,0,0.2-0.1,0.2-0.3c-0.1-0.4-0.3-0.5-0.7-0.6c-0.3,0-0.5,0-0.7,0.3
		c-0.2,0.2-0.1,0.5,0,0.8c0.2,0.4,1.1,0.5,1.4,0c-0.2-0.1-0.4-0.1-0.6,0c-0.1,0-0.2,0-0.2-0.1c0,0-0.1-0.1,0-0.1
		C25.2,37,25.3,37.1,25.4,37.1z M25.2,36.7c0-0.1,0.1-0.2,0.2-0.2c0.1,0,0.2,0,0.2,0.2c0,0.2-0.2,0.1-0.2,0.1
		C25.3,36.8,25.2,36.9,25.2,36.7z"/>
	<path class="st18" d="M21.2,37.1c0.1,0,0.2,0,0.2,0c0.1,0,0.2,0,0.4,0c0.1,0,0.2-0.1,0.2-0.2c0-0.3-0.2-0.5-0.5-0.6
		c-0.4-0.1-0.7,0-0.9,0.3c-0.2,0.3-0.1,0.8,0.2,0.9c0.3,0.2,0.9,0.1,1.1-0.1c0.1-0.1,0-0.1-0.1-0.1c-0.2,0-0.4,0-0.5,0.1
		c-0.1,0.1-0.2,0-0.2-0.1c0,0-0.1-0.1-0.1-0.2C21,37,21.1,37.1,21.2,37.1z M21.2,36.6c0.1,0,0.2,0.1,0.2,0.2c0,0.2-0.2,0.1-0.2,0.1
		c-0.1-0.1-0.2,0.1-0.2-0.1C21,36.6,21.1,36.6,21.2,36.6z"/>
	<path class="st19" d="M15.4,37c0-0.1,0-0.3,0-0.4c0-0.1,0-0.2,0.1-0.2c0.1,0,0.3-0.1,0.4,0c0.1,0.1,0.1,0,0.2,0
		c0.4-0.2,0.8,0,0.8,0.5c0,0.2,0,0.4,0,0.6c0,0.1,0,0.2-0.2,0.2c-0.1,0-0.3,0.1-0.3-0.1c0-0.2,0-0.4,0-0.6c0-0.1,0-0.2-0.2-0.2
		c-0.1,0-0.2,0.1-0.2,0.2c0,0.2,0,0.4,0,0.6c0,0.1,0,0.2-0.2,0.2c-0.1,0-0.3,0.1-0.3-0.2C15.4,37.3,15.4,37.1,15.4,37
		C15.4,37,15.4,37,15.4,37z"/>
	<path class="st4" d="M38.9,36.9c0,0.1,0,0.2,0,0.4c0,0.1,0.1,0.2-0.1,0.3c-0.1,0-0.3,0.1-0.4,0c-0.1-0.1-0.1,0-0.2,0
		c-0.4,0.3-0.8,0-0.8-0.5c0-0.2,0-0.4,0-0.5c0-0.1,0-0.2,0.1-0.2c0.2,0,0.4-0.1,0.4,0.2c0,0.2,0,0.3,0,0.5c0,0.1,0,0.2,0.2,0.2
		c0.1,0,0.2-0.1,0.2-0.2c0-0.2,0-0.4,0-0.5c0-0.2,0.2-0.2,0.3-0.2c0.1,0,0.2,0,0.2,0.2C38.9,36.6,38.9,36.8,38.9,36.9z"/>
	<path class="st20" d="M26.4,36.9c0-0.1,0-0.2,0-0.4c0-0.1-0.1-0.2,0.1-0.3c0.1-0.1,0.2-0.1,0.3,0c0.1,0.1,0.2,0.1,0.2,0
		c0.4-0.2,0.7,0,0.7,0.4c0,0.2,0,0.4,0,0.7c0,0.2-0.1,0.2-0.2,0.2c-0.1,0-0.3,0-0.3-0.2c0-0.2,0-0.4,0-0.5c0-0.1,0-0.2-0.2-0.2
		c-0.1,0-0.2,0.1-0.2,0.2c0,0.2,0,0.3,0,0.5c0,0.1,0,0.2-0.2,0.2c-0.1,0-0.3,0.1-0.3-0.2C26.4,37.2,26.4,37.1,26.4,36.9
		C26.4,36.9,26.4,36.9,26.4,36.9z"/>
	<path class="st21" d="M35.7,36.2c-0.5,0-0.8,0.3-0.8,0.7c0,0.4,0.3,0.7,0.7,0.7c0.4,0,0.8-0.2,0.8-0.7
		C36.4,36.5,36.2,36.2,35.7,36.2z M35.7,37.3c-0.2,0-0.2-0.2-0.2-0.3c0-0.2,0.1-0.3,0.3-0.4c0.1,0,0.2,0.2,0.2,0.4
		C35.9,37.2,35.8,37.3,35.7,37.3z"/>
	<path class="st16" d="M41.9,36.2c-0.5,0-0.7,0.3-0.7,0.7c0,0.4,0.3,0.7,0.8,0.7c0.5,0,0.7-0.3,0.7-0.7
		C42.6,36.5,42.4,36.2,41.9,36.2z M42.1,36.9c0,0.2,0,0.3-0.3,0.3c-0.1,0-0.3-0.2-0.2-0.4c0-0.2,0.1-0.3,0.3-0.3
		C42.1,36.6,42.2,36.7,42.1,36.9z"/>
	<path class="st10" d="M44.3,37c0,0.1,0,0.2,0,0.3c0,0.2-0.1,0.3-0.3,0.3c-0.2,0-0.2-0.1-0.2-0.3c0-0.2,0-0.3,0-0.5
		c0-0.1-0.1-0.2-0.2-0.2c-0.1,0-0.2,0.1-0.2,0.2c0,0.2,0,0.4,0,0.6c0,0.2-0.2,0.1-0.3,0.1c-0.1,0-0.2,0-0.2-0.1c0-0.3,0-0.6,0-0.9
		c0-0.1,0-0.2,0.1-0.2c0.1,0,0.3-0.1,0.4,0c0.1,0.1,0.1,0.1,0.2,0c0.1-0.1,0.2-0.1,0.4-0.1c0.3,0,0.4,0.2,0.4,0.4
		C44.3,36.7,44.3,36.9,44.3,37C44.3,37,44.3,37,44.3,37z"/>
	<path class="st22" d="M45.2,37.6c-0.2,0-0.4,0-0.6-0.2c0-0.1-0.1-0.1-0.1-0.2c0-0.1,0.1,0,0.2,0c0.2,0,0.3,0,0.4,0.1
		c0.1,0.1,0.2,0,0.3,0c0,0,0.1-0.1,0-0.1c0-0.1-0.1-0.1-0.2-0.1c-0.1,0-0.3,0-0.4-0.1c-0.2-0.1-0.3-0.2-0.3-0.4
		c0-0.2,0.1-0.3,0.3-0.4c0.3-0.1,0.6-0.1,0.9,0.1c0.1,0,0.1,0.1,0.1,0.2c0,0.1-0.1,0-0.2,0.1c-0.1,0-0.2,0-0.4,0c0,0-0.1,0-0.1,0
		c-0.1,0-0.1,0-0.1,0.1c0,0.1,0,0.1,0.1,0.1c0.1,0,0.3,0.1,0.4,0.1c0.2,0,0.3,0.2,0.3,0.4c0,0.2-0.1,0.3-0.3,0.4
		C45.5,37.6,45.3,37.6,45.2,37.6z"/>
	<path class="st15" d="M7.8,36.3c0.2,0,0.3,0,0.5,0.1c0.1,0,0.1,0.1,0.1,0.2c0,0.1-0.1,0.1-0.1,0.1c-0.1,0-0.2,0-0.3,0
		c-0.1,0-0.1-0.1-0.2-0.1c-0.1,0-0.1,0-0.1,0.1c0,0.1,0,0.1,0.1,0.1c0.1,0,0.3,0,0.4,0.1c0.2,0,0.4,0.1,0.4,0.4
		c0,0.2-0.1,0.4-0.3,0.4c-0.3,0.1-0.5,0.1-0.8,0c-0.1,0-0.2-0.1-0.2-0.2c0-0.1-0.1-0.2,0-0.2c0.2,0,0.3-0.1,0.5,0.1
		c0.1,0,0.1,0.1,0.2,0.1c0.1,0,0.2,0,0.2-0.1c0-0.1-0.1-0.1-0.2-0.1c-0.1,0-0.2-0.1-0.3-0.1c-0.3-0.1-0.4-0.2-0.4-0.4
		c0-0.2,0.1-0.4,0.4-0.4C7.7,36.3,7.7,36.3,7.8,36.3z"/>
	<path class="st16" d="M39.3,37c0-0.1,0.1-0.3-0.2-0.4c-0.1,0-0.1-0.2,0-0.2c0.2-0.2,0.3-0.5,0.6-0.6c0.1,0,0.1,0.1,0.1,0.1
		c0,0.2,0,0.4,0.2,0.4c0.1,0,0,0.1,0,0.1c0,0.1,0,0.2-0.1,0.2c-0.3,0-0.1,0.3-0.2,0.4c0,0.1,0,0.2,0.2,0.2c0.1,0,0.1,0.1,0.1,0.2
		c0,0.1,0,0.2-0.1,0.2c-0.1,0-0.1,0-0.2,0c-0.3,0-0.4-0.1-0.4-0.4C39.3,37.1,39.3,37.1,39.3,37z"/>
	<path class="st23" d="M28.7,37.6c-0.4,0-0.5-0.1-0.5-0.4c0-0.1,0-0.2,0-0.4c0-0.1,0-0.2-0.1-0.2c-0.2-0.1-0.1-0.3-0.1-0.3
		c0.2-0.1,0.2-0.4,0.5-0.5c0.1,0,0.2,0,0.2,0.1c0,0.2,0,0.3,0.2,0.3c0.1,0,0,0.1,0.1,0.2c0,0.1,0,0.1-0.1,0.1
		c-0.2,0-0.2,0.1-0.2,0.2c0,0.1,0,0.2,0,0.2c0,0.1,0,0.2,0.1,0.2c0.1,0,0.1,0,0.1,0.1C29,37.6,29,37.6,28.7,37.6z"/>
	<path class="st24" d="M37.2,36.7c0,0.2,0,0.4,0,0.7c0,0.2-0.1,0.2-0.3,0.2c-0.1,0-0.3,0-0.3-0.2c0-0.5,0-0.9,0-1.4
		c0-0.2,0.1-0.2,0.2-0.2c0.1,0,0.3,0,0.3,0.2C37.2,36.2,37.2,36.5,37.2,36.7C37.2,36.7,37.2,36.7,37.2,36.7z"/>
	<path class="st25" d="M6.9,37c0,0.1,0,0.2,0,0.3c0,0.3-0.1,0.4-0.4,0.3c-0.1,0-0.1-0.1-0.1-0.1c0-0.3,0-0.7,0-1c0,0,0-0.1,0.1-0.1
		c0.1-0.1,0.3,0,0.4,0c0.1,0,0.1,0.2,0.1,0.2C6.9,36.7,6.9,36.9,6.9,37z"/>
	<path class="st26" d="M40.9,37c0,0.1,0,0.3,0,0.4c0,0.2-0.1,0.3-0.2,0.2c-0.2,0-0.3,0-0.3-0.2c0-0.3,0-0.6,0-0.9
		c0-0.2,0.1-0.2,0.2-0.2c0.1,0,0.3,0,0.3,0.2C40.9,36.6,40.9,36.8,40.9,37C40.9,37,40.9,37,40.9,37z"/>
	<path class="st27" d="M40.6,36.1c-0.1,0-0.2,0-0.2-0.2c0-0.2,0.1-0.2,0.2-0.2c0.1,0,0.3,0,0.3,0.2C40.9,36.1,40.7,36.1,40.6,36.1z"
		/>
	<path class="st28" d="M6.7,36.2c-0.2,0-0.3,0-0.3-0.2c0-0.2,0.1-0.2,0.2-0.2c0.1,0,0.3,0,0.3,0.2C6.9,36.2,6.7,36.2,6.7,36.2z"/>
	<path class="st29" d="M14.5,23.3c0.1,0,0.1,0,0.2,0c0.2,0,0.3,0,0.3,0.2c0.1,0.5,0.8,0.7,1.2,0.5c0.2-0.1,0.3-0.3,0.3-0.4
		c0-0.2-0.1-0.3-0.3-0.4c-0.2-0.1-0.5-0.2-0.8-0.2c-0.4-0.1-0.7-0.2-1.1-0.4c-0.5-0.3-0.7-0.7-0.7-1.3c0.1-0.5,0.4-0.9,0.9-1.1
		c0.8-0.3,1.6-0.3,2.4,0c0.5,0.2,0.8,0.6,0.9,1.1c0,0.1,0,0.2-0.1,0.2c-0.4,0-0.7,0-1.1,0c-0.2,0-0.2-0.1-0.3-0.2
		c-0.2-0.4-0.6-0.5-1-0.4c-0.1,0.1-0.2,0.2-0.2,0.3c0,0.2,0.1,0.2,0.3,0.3c0.5,0.2,1.1,0.3,1.7,0.5c1,0.4,1.2,1.5,0.7,2.2
		c-0.3,0.4-0.7,0.7-1.2,0.8c-0.6,0.1-1.2,0.1-1.8,0c-0.7-0.2-1.2-0.7-1.3-1.4c0-0.2,0.1-0.2,0.2-0.2C14,23.4,14.2,23.3,14.5,23.3z"
		/>
	<path class="st30" d="M11.1,25.1c-0.1-0.1,0-0.1,0-0.2c0-1.5,0-3,0-4.5c0-0.1,0-0.2,0.1-0.2c0.4,0,0.9,0,1.3,0c0.1,0,0.2,0,0.2,0.2
		c0,1.5,0,3.1,0,4.6c0,0.1-0.1,0.1-0.2,0.1C12,25,11.6,25.1,11.1,25.1z"/>
	<path class="st31" d="M11.7,33.8c-0.4-0.4-0.8-0.8-1.2-1.2c-0.1-0.1-0.1-0.3,0-0.5c0.1-0.1,0.4-0.1,0.5,0c0.2,0.2,0.4,0.4,0.7,0.7
		c0,0,0.1,0.1,0.2,0.1c0.5-0.5,1.1-1.1,1.6-1.6c0.1-0.1,0.1-0.1,0.2-0.2c0.2-0.1,0.4-0.1,0.5,0c0.1,0.1,0.1,0.4,0,0.5
		c-0.2,0.2-0.5,0.5-0.7,0.7c-0.4,0.4-0.8,0.8-1.3,1.3C12.1,33.7,11.9,33.8,11.7,33.8z"/>
	<path class="st32" d="M16.2,29.5c-0.1,0-0.3,0-0.4,0c-0.2,0-0.2,0.1-0.1,0.2c0.1,0.2,0.3,0.2,0.5,0.1c0,0,0,0,0.1-0.1
		c0.1-0.1,0.3-0.1,0.4,0c0.1,0.1-0.1,0.2-0.2,0.3c-0.2,0.2-0.7,0.2-0.9,0c-0.3-0.2-0.4-0.5-0.3-0.9c0.1-0.5,0.4-0.8,0.9-0.7
		c0.3,0.1,0.6,0.5,0.6,0.8c0,0.1-0.1,0.1-0.1,0.1C16.5,29.5,16.3,29.5,16.2,29.5C16.2,29.5,16.2,29.5,16.2,29.5z"/>
	<path class="st33" d="M13.7,29.5c0,0.2,0,0.4,0,0.6c0,0.1,0,0.2-0.1,0.2c-0.1,0-0.2,0.1-0.3,0c-0.1-0.1-0.1-0.1-0.2,0
		c-0.1,0.1-0.2,0.1-0.4,0.1c-0.4,0-0.5-0.1-0.5-0.5c0-0.3,0-0.6,0-1c0-0.1,0.1-0.2,0.2-0.2c0.1,0,0.2,0,0.2,0.2c0,0.3,0,0.5,0,0.8
		c0,0.2,0.1,0.3,0.3,0.3c0.2,0,0.3-0.1,0.3-0.3c0-0.2,0-0.5,0-0.7c0-0.1,0-0.3,0.2-0.3c0.2,0,0.2,0.1,0.2,0.3
		C13.7,29.1,13.7,29.3,13.7,29.5z"/>
	<path class="st34" d="M11.8,30.1c-0.3,0.3-0.9,0.3-1.1,0c-0.3-0.3-0.3-0.9,0-1.2c0.3-0.3,0.8-0.3,1.1,0c0,0.1,0.2,0.3,0,0.4
		c-0.1,0.1-0.2,0-0.3-0.1C11.2,29,11,29,11,29.3c0,0.1,0,0.3,0,0.4c0.1,0.2,0.3,0.3,0.4,0.1c0.1-0.1,0.2-0.2,0.4-0.1
		C12.1,29.8,11.8,29.9,11.8,30.1z"/>
	<path class="st35" d="M11.9,19.9c-0.2,0-0.4,0-0.6,0c-0.2,0-0.2-0.1-0.2-0.2c0-0.3,0-0.6,0-0.9c0-0.1,0-0.1,0-0.1
		c0.2-0.1,0.2-0.3,0.2-0.4c0-0.3,0.3-0.4,0.6-0.5c0.4,0.1,0.5,0.3,0.5,0.7c0,0.1,0,0.2,0.1,0.2c0.1,0,0.1,0.1,0.1,0.2
		c0,0.3,0,0.6,0,0.9c0,0.2-0.1,0.3-0.3,0.3C12.2,19.9,12,19.9,11.9,19.9z"/>
	<path class="st36" d="M14.5,28.8c0.1-0.2,0.2-0.2,0.4-0.2c0.1,0,0.3,0,0.2,0.1c0,0.1,0,0.3-0.2,0.2c-0.2,0-0.3,0.1-0.3,0.3
		c0,0.3,0,0.5,0,0.8c0,0.1,0,0.2-0.2,0.2c-0.1,0-0.3,0-0.3-0.2c0-0.4,0-0.8,0-1.2c0-0.1,0-0.2,0.2-0.2
		C14.4,28.6,14.5,28.6,14.5,28.8z"/>
	<path class="st37" d="M11.9,29.7c-0.2,0-0.3,0-0.4,0.2C11.3,30,11.1,30,11,29.8c-0.1-0.2-0.1-0.4,0-0.7c0.1-0.2,0.3-0.2,0.5-0.1
		c0.1,0.1,0.2,0.1,0.3,0.1c0.1,0,0.1,0.1,0.1,0.2C11.9,29.5,11.9,29.6,11.9,29.7z"/>
	<path class="st29" d="M9.1,22.9c0.6,0.3,0.8,0.9,1.1,1.5c0.1,0.1,0.1,0.3,0.2,0.4c0.1,0.2,0.1,0.3-0.2,0.3c-0.4,0-0.8,0-1.1,0
		c-0.2,0-0.4-0.1-0.5-0.3c-0.2-0.5-0.5-0.9-0.8-1.4c-0.1-0.2-0.3-0.3-0.5-0.3c-0.2,0-0.2,0-0.2,0.2c0,0.5,0,1,0,1.5
		c0,0.2-0.1,0.3-0.3,0.3c-0.4,0-0.7,0-1.1,0c-0.1,0-0.2-0.1-0.2-0.2c0-1.5,0-3,0-4.5c0-0.2,0.1-0.3,0.2-0.3c0.9,0,1.9,0,2.8,0
		c0.4,0,0.8,0.1,1.2,0.4c0.6,0.6,0.4,1.9-0.5,2.2C9.2,22.8,9.1,22.8,9.1,22.9z"/>
	<path class="st38" d="M7.6,28c0.2,0,0.5,0.1,0.7,0.4c0,0.1,0.1,0.2,0,0.3c-0.1,0.1-0.2,0.1-0.4,0c0,0-0.1-0.1-0.1-0.1
		c-0.2-0.2-0.3-0.2-0.5-0.1c-0.1,0-0.1,0.1-0.1,0.2c0,0.1,0.1,0.1,0.2,0.2C7.6,28.8,7.8,28.9,8,29c0.3,0.1,0.5,0.4,0.5,0.6
		c0,0.3-0.2,0.5-0.6,0.6c-0.2,0.1-0.5,0-0.7,0C7,30.2,6.8,30,6.8,29.8c0-0.1-0.1-0.2,0-0.3c0.1-0.1,0.3,0,0.4,0.1
		c0.2,0.3,0.4,0.3,0.6,0.2C7.9,29.8,8,29.8,8,29.6c0-0.1-0.1-0.2-0.2-0.2c-0.1,0-0.3-0.1-0.4-0.1c-0.4-0.1-0.7-0.4-0.6-0.7
		C6.8,28.2,7.1,28,7.6,28z"/>
	<path class="st39" d="M9.6,29.6c-0.1,0-0.2,0-0.3,0c-0.2,0-0.2,0.1-0.1,0.2C9.3,30,9.5,30,9.7,29.9c0,0,0,0,0.1-0.1
		c0.1-0.1,0.3-0.1,0.4,0c0.1,0.1,0,0.2-0.1,0.3c-0.3,0.2-0.6,0.3-0.9,0.1c-0.3-0.1-0.4-0.4-0.4-0.7c0-0.3,0-0.6,0.3-0.8
		c0.2-0.2,0.5-0.2,0.7-0.1c0.3,0.1,0.4,0.4,0.5,0.7c0,0.1,0,0.2-0.2,0.2C9.9,29.6,9.8,29.6,9.6,29.6C9.6,29.6,9.6,29.6,9.6,29.6z"/>
	<path class="st40" d="M16,29.3c-0.1,0-0.3,0.1-0.3-0.1c0-0.2,0.1-0.3,0.3-0.3c0.1,0,0.3,0.1,0.3,0.3C16.3,29.4,16.1,29.2,16,29.3z"
		/>
	<path class="st41" d="M11.9,19.6c-0.6,0.1-0.6,0.1-0.6-0.5c0-0.5,0-0.5,0.4-0.5c0.1,0,0.1,0,0.2,0c0,0,0,0.1,0,0.1
		c-0.2,0.2-0.2,0.2-0.1,0.5c0,0.1,0.1,0.2,0.1,0.2C11.8,19.5,11.9,19.6,11.9,19.6z"/>
	<path class="st42" d="M12.2,18.3c0,0.2-0.1,0.2-0.2,0.2c-0.1,0-0.2,0-0.4,0c-0.1,0-0.2-0.1-0.2-0.2c0-0.3,0.2-0.5,0.4-0.5
		C12.1,17.8,12.2,17.9,12.2,18.3z"/>
	<path class="st43" d="M11.9,19.6c0-0.1-0.1-0.1-0.1-0.1c0.1-0.1,0.1-0.3,0.2-0.4c0.1-0.2-0.1-0.2-0.1-0.3c0,0,0-0.1,0-0.1
		c0.5-0.1,0.6,0,0.6,0.5c0,0,0,0.1,0,0.1c0,0.3,0,0.4-0.4,0.4C12,19.7,11.9,19.6,11.9,19.6z"/>
	<path class="st44" d="M7.8,21.1c0.1,0,0.3,0,0.5,0c0.2,0.1,0.4,0.2,0.4,0.5c0,0.2-0.2,0.4-0.4,0.4c-0.3,0.1-0.6,0-0.8,0
		c-0.1,0-0.2,0-0.2-0.2c0-0.2,0-0.4,0-0.6c0-0.2,0.1-0.3,0.3-0.3C7.6,21.1,7.7,21.1,7.8,21.1z"/>
	<path class="st45" d="M9.5,29.3c-0.1-0.1-0.3,0.1-0.3-0.1c0-0.2,0.1-0.2,0.3-0.2c0.2,0,0.3,0.1,0.3,0.2C9.8,29.4,9.6,29.3,9.5,29.3
		z"/>
	<path class="st46" d="M11.9,18.7c0.1,0.1,0.3,0.1,0.2,0.3c-0.1,0.2-0.1,0.4-0.3,0.5c0-0.1,0-0.2-0.1-0.3
		C11.5,18.9,11.6,18.9,11.9,18.7z"/>
</g>
</svg>
