<?xml version="1.0" encoding="utf-8"?>
<!-- Generator: Adobe Illustrator 26.0.1, SVG Export Plug-In . SVG Version: 6.00 Build 0)  -->
<svg version="1.1" id="Layer_1" xmlns="http://www.w3.org/2000/svg" xmlns:xlink="http://www.w3.org/1999/xlink" x="0px" y="0px"
	 viewBox="0 0 50 50" style="enable-background:new 0 0 50 50;" xml:space="preserve">
<style type="text/css">
	.st0{fill:#478CC8;}
	.st1{fill:#6EAFE1;}
	.st2{fill:#E22027;}
	.st3{fill:#E12028;}
	.st4{fill:#E1202A;}
	.st5{fill:#E31F28;}
	.st6{fill:#E51E28;}
	.st7{fill:#E21E27;}
	.st8{fill:#E21E29;}
	.st9{fill:#262261;}
	.st10{fill:#E22028;}
	.st11{fill:#E12026;}
	.st12{fill:#E32029;}
	.st13{fill:#E31F2B;}
	.st14{fill:#E21F28;}
	.st15{fill:#E32028;}
	.st16{fill:#E2202A;}
	.st17{fill:#E12128;}
	.st18{fill:#E3202B;}
	.st19{fill:#E31F29;}
	.st20{fill:#E21F2A;}
	.st21{fill:#E41F2A;}
	.st22{fill:#E1222A;}
	.st23{fill:#E02129;}
	.st24{fill:#DF232B;}
	.st25{fill:#E2232D;}
	.st26{fill:#DF222B;}
	.st27{fill:#D92D35;}
	.st28{fill:#DE2F39;}
	.st29{fill:#E3202A;}
	.st30{fill:#262362;}
	.st31{fill:#262363;}
	.st32{fill:#232563;}
	.st33{fill:#252463;}
	.st34{fill:#202569;}
	.st35{fill:#232564;}
	.st36{fill:#71AEDF;}
	.st37{fill:#242361;}
	.st38{fill:#242363;}
	.st39{fill:#4986BF;}
	.st40{fill:#6CACDC;}
	.st41{fill:#5B9ACF;}
	.st42{fill:#4989C6;}
	.st43{fill:#6EAFDF;}
	.st44{fill:#74A9DC;}
	.st45{fill:#242C70;}
</style>
<g>
	<path class="st0" d="M11.7,13.9c1.3,0.5,2.6,1.1,3.9,1.7c1.1,0.5,2.3,1,3.4,1.5c0.2,0.1,0.3,0.2,0.3,0.5c0,2.1,0,4.1,0,6.2
		c0,1.1-0.3,2.1-0.7,3.1c-0.6,1.3-1.4,2.5-2.5,3.4c-1,0.9-2.2,1.6-3.5,2.1c-0.2,0.1-0.4,0.1-0.7,0.2c0,0-0.1,0-0.1,0
		c-0.3,0-0.3,0-0.3-0.3c0-0.2,0-0.3,0-0.5c0-0.1,0-0.2-0.1-0.3c0-0.1,0.1-0.1,0.1-0.1c0.2,0,0.3-0.1,0.4-0.2
		c0.6-0.6,1.2-1.2,1.8-1.8c0.1-0.1,0.2-0.2,0.2-0.3c0-0.1,0-0.2-0.1-0.3c-0.1-0.1-0.2-0.1-0.3,0c-0.1,0-0.2,0.1-0.2,0.2
		c-0.5,0.5-1,1-1.5,1.5c-0.1,0.1-0.1,0.2-0.3,0c0-0.4,0-0.8,0-1.3c0-0.5,0-0.9,0-1.4c0-0.2,0.1-0.3,0-0.5c0-0.2,0-0.3-0.1-0.5
		c0.1-0.1,0-0.3,0-0.4c0-1.1,0-2.2,0-3.2c0-0.3,0-0.3-0.3-0.3c-0.1,0-0.3,0.1-0.3-0.1c0.1-0.1,0.2-0.1,0.3-0.1c0.3,0,0.6,0,0.9,0
		c0.2,0,0.3,0,0.3-0.3c0-0.6,0-1.2,0-1.8c0-0.8,0-1.6,0-2.4c0-0.4,0-0.4-0.4-0.4c-0.2,0-0.5,0-0.7,0c-0.1,0-0.2,0-0.3,0
		c-0.1-0.1,0-0.1,0.1-0.1c0.1,0,0.2,0,0.3,0c0.1,0,0.2,0,0.2-0.1c0.1-0.1,0.3-0.1,0.4-0.1c0.3,0,0.3-0.1,0.3-0.3c0-0.2,0-0.3,0-0.5
		c0-0.2,0-0.4-0.1-0.5c0,0,0-0.1,0-0.1c0-0.3-0.2-0.5-0.4-0.6c0,0-0.1-0.1-0.1-0.1c-0.1-0.4,0-0.8,0-1.2
		C11.6,13.9,11.6,13.8,11.7,13.9z"/>
	<path class="st1" d="M11.6,17.5c0,0.1,0,0.2-0.2,0.2c-0.2,0-0.4,0-0.5,0c0,0.1,0,0.2,0,0.3c0,1.5,0,2.9,0,4.4c0,0.1,0,0.2,0,0.3
		c0.2,0.1,0.4,0,0.5,0c0.1,0,0.2,0,0.2,0.2c0,1.1,0,2.3,0,3.4c0,0.1,0,0.1,0,0.1c-0.1,0-0.1,0-0.2-0.1c-0.5-0.3-1.1,0.1-1.1,0.7
		c0,0.2,0,0.3,0.1,0.5c0.1,0.2,0.3,0.3,0.5,0.3c0.3,0,0.5,0,0.7-0.1c0.1,0.1,0,0.2,0,0.2c0,0.9,0,1.7,0,2.6c-0.1,0.1-0.2,0-0.2,0
		c-0.2-0.2-0.4-0.4-0.6-0.6c-0.1-0.1-0.1-0.1-0.2-0.2c-0.1,0-0.3,0-0.4,0.1c-0.1,0.1-0.1,0.3,0.1,0.4c0.3,0.3,0.6,0.6,1,1
		c0.1,0.1,0.2,0.1,0.2,0.2c0.1,0.1,0.2,0.2,0.2,0.3c0,0.2,0,0.4,0,0.6c0,0.2,0.1,0.3,0.3,0.2c0,0,0.1,0,0.1,0c-0.3,0.1-0.5,0-0.8,0
		c-1.5-0.4-2.8-1.1-3.9-2.1c-0.9-0.8-1.6-1.7-2.2-2.7c-0.4-0.8-0.8-1.6-1-2.5c-0.1-0.5-0.2-1-0.2-1.5c-0.1-2,0-4.1,0-6.1
		c0-0.4,0.1-0.4,0.4-0.6c1-0.4,1.9-0.9,2.9-1.3c1-0.4,2-0.9,3-1.3c0.4-0.2,0.8-0.4,1.2-0.5c0.1,0,0.2-0.1,0.3,0
		c-0.1,0-0.1,0-0.1,0.1c0,0.4,0,0.8,0,1.2c-0.3,0.2-0.6,0.4-0.5,0.8c-0.3,0.3-0.2,0.7-0.2,1.1c0,0.2,0.1,0.3,0.3,0.3
		C11.4,17.4,11.5,17.4,11.6,17.5z"/>
	<path class="st2" d="M36.6,25.7c-0.3-0.7-0.6-1.4-0.9-2.1c-0.1-0.2-0.2-0.4-0.3-0.6c-0.1-0.3-0.4-0.2-0.6-0.2
		c-0.2,0-0.2,0.1-0.3,0.3c-0.1,0.3-0.2,0.7-0.4,1c-0.2,0.6-0.4,1.1-0.7,1.7c-0.3-0.4-0.5-0.8-0.9-1.1c0.1-0.1,0.2-0.1,0.3-0.1
		c0.3-0.2,0.5-0.5,0.5-0.9c-0.1-0.4-0.4-0.7-0.8-0.7c-0.5-0.1-1.1,0-1.6,0c-0.2,0-0.2,0.1-0.2,0.2c0,0.8,0,1.6,0,2.5
		c0,0.1,0,0.2,0,0.3c0.1,0.2,0.3,0.1,0.5,0.2c0.2,0,0.1-0.1,0.1-0.2c0-0.3,0-0.6,0-0.8c0-0.3,0.1-0.3,0.3-0.3c0.1,0,0.3,0.1,0.4,0.2
		c0.1,0.2,0.3,0.3,0.4,0.5c0.2,0.4,0.5,0.6,1,0.6c0.6,0,0.6,0,0.8-0.6c0-0.1,0.1-0.2,0.2-0.2c0.3,0,0.5,0,0.8,0c0.2,0,0.3,0,0.4,0.3
		c0.2,0.5,0.2,0.4,0.6,0.5C36.6,25.9,36.6,25.9,36.6,25.7z M32.5,24.1c-0.3,0-0.5,0-0.8,0c-0.1,0-0.1-0.1-0.2-0.2
		c-0.1-0.5-0.1-0.6,0.5-0.6c0.1,0,0.3,0,0.4,0c0.2,0,0.3,0.2,0.3,0.4C32.8,23.9,32.7,24.1,32.5,24.1z M34.8,24.7
		c-0.1,0-0.1-0.1-0.1-0.2c0.1-0.3,0.2-0.6,0.3-1c0.2,0.4,0.3,0.7,0.4,1.1C35.2,24.7,35,24.7,34.8,24.7z"/>
	<path class="st3" d="M38.7,24.7c0-0.6,0-1.2,0-1.7c0-0.3,0.2-0.2,0.3-0.3c0.2,0,0.3,0.1,0.3,0.3c0,0.9,0,1.8,0,2.7
		c0,0.1-0.1,0.2-0.2,0.2c-0.3,0.1-0.5,0-0.7-0.4c-0.3-0.5-0.6-1.1-1-1.6c0,0,0,0-0.1,0c0,0.2,0,0.4,0,0.6c0,0.4,0,0.7,0,1.1
		c0,0.2-0.1,0.3-0.3,0.3c-0.3,0-0.3,0-0.3-0.3c0-0.9,0-1.8,0-2.7c0-0.1,0-0.2,0.2-0.2c0.3,0,0.5,0,0.6,0.3c0.3,0.5,0.6,1,0.9,1.5
		C38.5,24.6,38.6,24.7,38.7,24.7C38.6,24.7,38.7,24.7,38.7,24.7z"/>
	<path class="st4" d="M24.2,24.8c0-0.2,0-0.3,0-0.5c0-0.4,0-0.8,0-1.2c0-0.1-0.1-0.3,0.2-0.3c0.4,0,0.4,0,0.4,0.3c0,0.9,0,1.7,0,2.6
		c0,0.2-0.1,0.2-0.2,0.3c-0.3,0-0.5-0.1-0.7-0.4c-0.3-0.5-0.6-1-0.9-1.4c0,0,0-0.1-0.1-0.1c-0.1,0-0.1,0.1-0.1,0.1c0,0.5,0,1,0,1.5
		c0,0.2,0,0.3-0.2,0.3c-0.3,0-0.4,0-0.4-0.3c0-0.9,0-1.7,0-2.6c0-0.3,0.1-0.3,0.3-0.3c0.2,0,0.4,0.1,0.5,0.3
		C23.4,23.7,23.8,24.2,24.2,24.8C24.1,24.8,24.1,24.8,24.2,24.8z"/>
	<path class="st5" d="M43.8,25.9c-0.3,0-0.6,0-1,0c-0.2,0-0.2,0-0.2-0.2c0-0.9,0-1.8,0-2.6c0-0.3,0-0.3,0.3-0.3c0.6,0,1.2,0,1.8,0
		c0.2,0,0.3,0,0.3,0.2c0,0.2,0,0.3-0.3,0.3c-0.4,0-0.8,0-1.2,0c-0.2,0-0.3,0.1-0.2,0.2c0,0.1,0,0.1,0,0.2c0,0.2,0.1,0.3,0.3,0.3
		c0.3,0,0.7,0,1,0c0.2,0,0.3,0,0.3,0.2c0,0.3,0,0.3-0.3,0.3c-0.4,0-0.7,0-1.1,0c-0.2,0-0.2,0-0.2,0.2c0,0.1,0,0.3,0,0.4
		c0,0.2,0.1,0.2,0.2,0.2c0.4,0,0.8,0,1.2,0c0.1,0,0.3,0,0.3,0.2c0,0.3,0,0.4-0.3,0.4C44.5,25.9,44.2,25.9,43.8,25.9z"/>
	<path class="st6" d="M27.2,23.7c-0.2,0-0.3,0-0.4-0.2c-0.2-0.3-0.7-0.3-0.9-0.1c-0.1,0.1-0.1,0.3,0.1,0.4c0.3,0.1,0.6,0.2,0.8,0.3
		c0.2,0.1,0.5,0.2,0.6,0.4c0.3,0.4,0.2,1.1-0.3,1.4c-0.5,0.3-1.1,0.3-1.7,0c-0.3-0.2-0.4-0.4-0.4-0.7c0-0.1,0-0.2,0.1-0.2
		c0.1,0,0.2,0,0.4,0c0.1,0,0.1,0.1,0.1,0.2c0.2,0.4,0.7,0.6,1.1,0.3c0.1-0.1,0.2-0.2,0.2-0.4c0-0.2-0.1-0.2-0.3-0.3
		c-0.2-0.1-0.5-0.1-0.7-0.2c-0.2,0-0.4-0.1-0.5-0.2c-0.5-0.4-0.4-1.2,0.2-1.4c0.4-0.2,0.9-0.2,1.3,0c0.2,0.1,0.3,0.2,0.4,0.4
		C27.6,23.6,27.6,23.7,27.2,23.7z"/>
	<path class="st7" d="M30.4,24.1c0,0.3,0,0.6,0,0.9c0,0.6-0.4,1-1,1c-0.3,0-0.6,0-0.9-0.1c-0.4-0.2-0.5-0.4-0.6-0.8
		c-0.1-0.7,0-1.4,0-2c0-0.3,0.2-0.2,0.3-0.3c0.2,0,0.3,0,0.3,0.2c0,0.3,0,0.7,0,1c0,0.3,0,0.6,0,0.9c0,0.2,0.1,0.4,0.3,0.5
		c0.2,0.1,0.5,0.1,0.7-0.1c0.2-0.2,0.2-0.4,0.2-0.7c0-0.5,0-1.1,0-1.6c0-0.2,0-0.3,0.2-0.3c0.3,0,0.4,0,0.4,0.2
		C30.4,23.4,30.4,23.7,30.4,24.1C30.4,24.1,30.4,24.1,30.4,24.1z"/>
	<path class="st8" d="M39.6,24.4c0-0.6,0.1-1.1,0.6-1.4c0.7-0.4,1.5-0.3,1.9,0.3c0.1,0.1,0.2,0.3,0,0.4c-0.2,0.1-0.5,0.1-0.6,0
		c-0.2-0.3-0.4-0.4-0.7-0.4c-0.3,0.1-0.5,0.2-0.6,0.6c-0.1,0.4-0.1,0.7,0,1.1c0.1,0.3,0.3,0.5,0.6,0.5c0.3,0,0.6-0.1,0.7-0.5
		c0.1-0.2,0.2-0.2,0.3-0.1c0.4,0.2,0.4,0.1,0.2,0.6c-0.3,0.6-1.2,0.7-1.7,0.5C39.8,25.6,39.6,25,39.6,24.4z"/>
	<path class="st9" d="M30.8,21c-0.5-1.4-1.1-2.8-1.6-4.2c-0.1-0.2-0.1-0.2-0.3-0.2c-0.4,0-0.7,0-1.1,0c-0.2,0-0.3,0.1-0.3,0.2
		c-0.4,1.1-0.8,2.2-1.2,3.4c-0.1,0.3-0.2,0.6-0.4,1c-0.5-0.7-0.6-1.5-1.4-2c0.1-0.1,0.3-0.1,0.4-0.2c0.7-0.4,0.8-1.5,0.2-2
		c-0.3-0.3-0.7-0.3-1.1-0.3c-0.8,0-1.7,0-2.5,0c-0.1,0-0.2,0-0.2,0.2c0,1.4,0,2.8,0,4.2c0,0.1,0,0.2,0.2,0.2c0.3,0,0.7,0,1,0
		c0.2,0,0.2-0.1,0.2-0.2c0-0.5,0-0.9,0-1.4c0-0.2,0.1-0.2,0.3-0.2c0.2,0,0.3,0.2,0.4,0.3c0.2,0.4,0.5,0.9,0.7,1.3
		c0.1,0.2,0.2,0.2,0.4,0.2c0.7,0,1.5,0,2.2,0c0.6,0,0.6,0,0.7-0.6c0-0.2,0.1-0.2,0.3-0.2c0.3,0,0.5,0,0.8,0c0.6,0,0.6,0,0.8,0.6
		c0,0.1,0.1,0.2,0.2,0.2c0.4,0,0.7,0,1.1,0C30.8,21.2,30.8,21.1,30.8,21z M23.8,18.3c-0.3,0.1-0.6,0.1-0.9,0.1
		c-0.1,0-0.1-0.1-0.1-0.2c0-0.2,0-0.4,0-0.6c0-0.2,0.1-0.2,0.2-0.2c0.1,0,0.2,0,0.3,0c0.1,0,0.3,0,0.4,0c0.2,0,0.3,0.2,0.3,0.4
		C24,18.1,23.9,18.3,23.8,18.3z M28.7,19.4c-0.2,0-0.5,0-0.7,0c-0.1,0-0.1,0-0.1-0.1c0.1-0.5,0.3-0.9,0.4-1.4c0,0,0,0,0,0
		c0.1,0.5,0.3,0.9,0.4,1.4C28.8,19.4,28.8,19.4,28.7,19.4z"/>
	<path class="st9" d="M32.6,18.8c0,0.3,0,0.6,0,1c0,0.4,0,0.8,0,1.2c0,0.2-0.1,0.2-0.2,0.2c-0.3,0-0.6,0-0.9,0c-0.2,0-0.2,0-0.2-0.2
		c0-1.4,0-2.8,0-4.2c0-0.2,0.1-0.2,0.2-0.2c0.3,0,0.6,0,0.9,0c0.2,0,0.3,0.1,0.3,0.2c0.5,0.7,1,1.4,1.4,2.1c0,0,0.1,0.1,0.1,0.1
		c0-0.2,0-0.4,0-0.6c0-0.5,0-1.1,0-1.6c0-0.2,0.1-0.2,0.2-0.2c0.3,0,0.6,0,0.9,0c0.2,0,0.2,0.1,0.2,0.2c0,1.4,0,2.8,0,4.2
		c0,0.2,0,0.2-0.2,0.2c-0.3,0-0.6,0-1,0c-0.2,0-0.3-0.1-0.3-0.2c-0.5-0.7-1-1.4-1.4-2.1C32.7,18.8,32.7,18.8,32.6,18.8z"/>
	<path class="st9" d="M41.1,20.9c-0.1-0.2-0.1-0.4-0.2-0.5c-0.5-1.2-0.9-2.4-1.4-3.7c-0.1-0.2-0.2-0.2-0.3-0.2c-0.3,0-0.7,0-1,0
		c-0.2,0-0.4,0.1-0.4,0.3c-0.2,0.7-0.5,1.4-0.8,2.1c-0.3,0.7-0.5,1.5-0.8,2.2c0.3,0,0.6,0,0.8,0c0.7,0,0.6,0.1,0.8-0.6
		c0-0.1,0.1-0.2,0.3-0.2c0.4,0,0.7,0,1.1,0c0.2,0,0.4,0,0.4,0.3c0,0.1,0.1,0.2,0.1,0.3c0,0.1,0.1,0.2,0.2,0.2c0.4,0,0.7,0,1.1,0
		C41.1,21.2,41.1,21.1,41.1,20.9z M38.9,19.4c-0.2,0-0.4,0-0.6,0c-0.2,0-0.2-0.1-0.1-0.2c0.1-0.5,0.3-0.9,0.4-1.4
		c0.2,0.5,0.3,1,0.5,1.4C39.1,19.3,39.1,19.4,38.9,19.4z"/>
	<path class="st9" d="M43.1,18c0.3-0.4,0.5-0.9,0.8-1.3c0.1-0.2,0.2-0.3,0.4-0.2c0.4,0,0.7,0,1.1,0c0.1,0,0.1,0,0.2,0
		c0,0.1,0,0.1-0.1,0.2c-0.4,0.7-0.9,1.3-1.3,2c-0.2,0.3-0.4,0.7-0.3,1.1c0,0.4,0,0.7,0,1.1c0,0.2-0.1,0.3-0.2,0.3c-0.3,0-0.7,0-1,0
		c-0.2,0-0.2-0.1-0.2-0.2c0-0.5,0-0.9,0-1.4c0-0.2,0-0.4-0.2-0.5c-0.5-0.8-1-1.5-1.5-2.3c0,0-0.1-0.1-0.1-0.1c0-0.1,0.1,0,0.2,0
		c0.4,0,0.8,0,1.2,0c0.1,0,0.2,0,0.3,0.2c0.2,0.4,0.4,0.7,0.7,1.1C43,17.9,43,18,43.1,18z"/>
	<path class="st9" d="M30.3,31.2c0-0.1-0.1-0.1-0.1-0.2c-0.2-0.3-0.3-0.6-0.7-0.8c0.1,0,0.1-0.1,0.2-0.1c0.4-0.2,0.5-0.5,0.5-1
		c-0.1-0.4-0.3-0.6-0.7-0.6c-0.6-0.1-1.3,0-1.9,0c-0.1,0-0.1,0.1-0.1,0.2c0,0.9,0,1.9,0,2.8c0,0.1,0.1,0.2,0.2,0.2
		c0.2,0,0.4,0,0.6,0c0.1,0,0.2-0.1,0.2-0.2c0-0.3,0-0.6,0-0.9c0-0.2,0.1-0.2,0.2-0.2c0.1,0,0.2,0.1,0.2,0.2c0.1,0.2,0.2,0.3,0.3,0.5
		c0.3,0.5,0.3,0.5,0.8,0.5h0.2C30.5,31.6,30.5,31.6,30.3,31.2z M29,29.6c-0.1,0.1-0.3,0.1-0.3,0.1c-0.3,0-0.4-0.1-0.4-0.3
		c0-0.1,0-0.1,0-0.2c0-0.1,0-0.2,0.2-0.2c0.2,0,0.3,0,0.5,0c0.1,0,0.2,0.1,0.2,0.3C29.2,29.5,29.2,29.6,29,29.6z"/>
	<path class="st9" d="M39.2,30c0-0.4,0-0.9,0-1.3c0-0.2,0.1-0.3,0.3-0.3c0.7,0,1.4,0,2.1,0c0.2,0,0.2,0.1,0.2,0.3
		c0,0.4,0,0.4-0.2,0.4c-0.4,0-0.8,0-1.2,0c-0.2,0-0.2,0.1-0.2,0.3c0,0.2,0,0.3,0.2,0.2c0.4,0,0.7,0,1.1,0c0.2,0,0.2,0.1,0.2,0.2
		c0,0.2,0.1,0.4-0.2,0.4c-0.3,0-0.7,0-1,0c-0.2,0-0.3,0-0.3,0.2c0,0.4,0,0.4,0.4,0.4c0.4,0,0.7,0,1.1,0c0.2,0,0.2,0,0.2,0.2
		c0,0.5,0,0.5-0.5,0.5c-0.6,0-1.2,0-1.8,0c-0.3,0-0.3,0-0.3-0.3C39.2,30.8,39.2,30.4,39.2,30z"/>
	<path class="st9" d="M24.2,30c0-0.4,0-0.9,0-1.3c0-0.2,0-0.3,0.2-0.3c0.7,0,1.4,0,2.2,0c0.2,0,0.2,0.1,0.2,0.2c0,0.4,0,0.5-0.4,0.5
		c-0.3,0-0.6,0-1,0c-0.2,0-0.2,0-0.2,0.2c0,0.1,0,0.3,0.2,0.3c0.4,0,0.7,0,1.1,0c0.3,0,0.2,0.1,0.2,0.3c0,0.2,0,0.3-0.2,0.3
		c-0.4,0-0.7,0-1.1,0c-0.2,0-0.2,0.1-0.2,0.3c0,0.2,0,0.3,0.2,0.3c0.4,0,0.8,0,1.2,0c0.2,0,0.2,0,0.2,0.2c0,0.5,0.1,0.5-0.5,0.5
		c-0.6,0-1.2,0-1.8,0c-0.3,0-0.3,0-0.3-0.3C24.2,30.8,24.2,30.4,24.2,30C24.2,30,24.2,30,24.2,30z"/>
	<path class="st9" d="M43.7,31.6c-0.4,0-0.7-0.1-0.9-0.2c-0.4-0.2-0.5-0.4-0.6-0.8c0-0.1,0-0.1,0.1-0.1c0.2,0,0.4-0.1,0.7-0.1
		c0.1,0,0.2,0.1,0.2,0.2c0.1,0.3,0.4,0.4,0.7,0.3c0.1,0,0.2-0.1,0.2-0.3c0-0.1-0.1-0.2-0.2-0.3c-0.2-0.1-0.3-0.1-0.5-0.2
		c-0.2-0.1-0.5-0.1-0.7-0.2c-0.3-0.2-0.5-0.4-0.4-0.8c0-0.3,0.2-0.6,0.5-0.7c0.6-0.3,1.1-0.2,1.7,0c0.3,0.1,0.4,0.4,0.5,0.7
		c0,0.1,0,0.1-0.1,0.1c-0.1,0-0.3,0-0.4,0c-0.2,0-0.3,0-0.4-0.2c-0.1-0.2-0.4-0.3-0.6-0.2c-0.1,0.1-0.2,0.2,0,0.3
		c0.1,0.1,0.3,0.1,0.4,0.1c0.4,0.1,0.7,0.1,1,0.4c0.4,0.4,0.3,1.2-0.2,1.5C44.3,31.5,44,31.6,43.7,31.6z"/>
	<path class="st9" d="M22.3,28.4c0.3,0,0.5,0,0.7,0.1c0.4,0.1,0.5,0.4,0.6,0.7c0,0.1,0,0.1-0.1,0.1c-0.2,0-0.3,0-0.5,0
		c-0.2,0-0.3,0-0.4-0.2c-0.1-0.2-0.3-0.2-0.5-0.2c-0.1,0-0.2,0.1-0.2,0.2c0,0.1,0.1,0.2,0.2,0.2c0.3,0.1,0.7,0.1,1,0.3
		c0.6,0.2,0.8,0.7,0.5,1.3c-0.1,0.2-0.2,0.3-0.4,0.4c-0.6,0.3-1.3,0.4-1.9,0c-0.3-0.2-0.4-0.5-0.5-0.8c0-0.1,0-0.1,0.1-0.1
		c0.2,0,0.4-0.1,0.6,0c0.1,0,0.2,0.1,0.3,0.2c0.1,0.3,0.4,0.4,0.7,0.3c0.1,0,0.2-0.1,0.2-0.3c0-0.1-0.1-0.2-0.2-0.3
		c-0.2-0.1-0.4-0.1-0.7-0.2c-0.2-0.1-0.4-0.1-0.6-0.2c-0.3-0.2-0.4-0.4-0.4-0.7c0-0.3,0.2-0.6,0.5-0.8C21.7,28.4,22,28.4,22.3,28.4z
		"/>
	<path class="st9" d="M37.3,31.6c-1.1,0.1-1.7-0.8-1.6-1.8c0-0.4,0.1-0.7,0.4-1c0.4-0.4,0.9-0.5,1.5-0.5c0.5,0.1,0.8,0.3,1.1,0.7
		c0.1,0.2,0.1,0.2-0.1,0.3c-0.1,0-0.2,0-0.3,0.1c-0.2,0.1-0.4,0.1-0.5-0.2c-0.1-0.2-0.4-0.2-0.6-0.2c-0.3,0.1-0.4,0.3-0.4,0.5
		c-0.1,0.3,0,0.6,0,0.9c0.1,0.2,0.3,0.4,0.5,0.4c0.3,0,0.4-0.1,0.5-0.3c0.1-0.3,0.2-0.3,0.4-0.2c0.1,0,0.2,0.1,0.3,0.1
		c0.3,0.1,0.3,0.1,0.2,0.4C38.5,31.3,38,31.6,37.3,31.6z"/>
	<path class="st9" d="M32.1,30.5c0.1-0.2,0.1-0.3,0.2-0.5c0.1-0.5,0.3-0.9,0.4-1.4c0.1-0.2,0.2-0.2,0.3-0.2c0.2,0,0.5,0,0.7,0
		c-0.1,0.3-0.2,0.6-0.3,0.8c-0.2,0.7-0.5,1.4-0.7,2.1c-0.1,0.2-0.2,0.3-0.4,0.3c-0.2,0-0.4,0-0.6,0c-0.1,0-0.2-0.1-0.3-0.2
		c-0.4-0.9-0.7-1.9-1.1-2.8c-0.1-0.1,0-0.2,0.1-0.2c0.2,0,0.4,0,0.7,0c0.2,0,0.2,0.1,0.2,0.2C31.6,29.2,31.8,29.9,32.1,30.5
		C32,30.5,32,30.5,32.1,30.5z"/>
	<path class="st9" d="M34.1,30c0-0.5,0-0.9,0-1.4c0-0.2,0.1-0.2,0.2-0.2c0.2,0,0.4,0,0.5,0c0.2,0,0.2,0,0.2,0.2c0,0.9,0,1.8,0,2.7
		c0,0.2,0,0.2-0.2,0.2c-0.2,0-0.4,0-0.6,0c-0.1,0-0.2-0.1-0.2-0.2C34.1,30.9,34.1,30.4,34.1,30z"/>
	<path class="st10" d="M12.1,34.4c0.1-0.3,0.2-0.5,0.2-0.8c0-0.1,0.1-0.2,0.2-0.2c0.6,0,0.5-0.1,0.6,0.5c0,0.4,0,0.7,0,1.1
		c0,0.2-0.1,0.2-0.2,0.2c-0.2,0-0.2-0.1-0.2-0.2c0-0.3,0-0.7,0-1c-0.1,0.3-0.2,0.6-0.2,0.9c0,0.2-0.1,0.3-0.2,0.3
		c-0.2,0-0.3-0.1-0.3-0.2c-0.1-0.3-0.2-0.6-0.3-0.8c0,0.3,0,0.6,0,0.9c0,0.2-0.1,0.2-0.3,0.2c-0.2,0-0.2,0-0.2-0.2
		c0-0.5,0-0.9,0-1.4c0-0.1,0-0.2,0.2-0.2c0.1,0,0.1,0,0.2,0c0.3,0,0.3,0,0.4,0.3C12,33.9,12,34.2,12.1,34.4
		C12.1,34.4,12.1,34.4,12.1,34.4z"/>
	<path class="st11" d="M5.9,35.1c-0.1-0.2-0.2-0.4-0.3-0.6c-0.1-0.1-0.1-0.2,0-0.2c0.2-0.1,0.2-0.3,0.2-0.6
		c-0.1-0.2-0.2-0.3-0.5-0.3c-0.3,0-0.7,0-1,0c-0.1,0-0.2,0.1-0.2,0.2c0,0.2,0,0.5,0,0.7h0c0,0.2,0,0.5,0,0.7c0,0.2,0.1,0.2,0.2,0.2
		c0.3,0,0.4-0.1,0.3-0.3c0-0.1,0-0.2,0-0.2c0-0.1,0-0.1,0.1-0.2c0.1,0,0.1,0,0.2,0.1c0.1,0.1,0.2,0.3,0.2,0.4
		c0.1,0.2,0.4,0.3,0.6,0.2C5.9,35.2,6,35.2,5.9,35.1z M4.9,34.2c-0.1,0-0.2-0.1-0.2-0.2c0-0.1,0.1-0.2,0.2-0.2c0.1,0,0.3,0,0.3,0.2
		C5.3,34.2,5.1,34.2,4.9,34.2z"/>
	<path class="st5" d="M22,34.5c0-0.1,0-0.2,0-0.3c0-0.3,0.2-0.4,0.5-0.3c0.1,0,0.1,0,0.1,0c0.2-0.1,0.4-0.1,0.6,0
		c0.1,0,0.1,0.1,0.2,0c0.2-0.1,0.4-0.2,0.6-0.1c0.2,0.1,0.2,0.3,0.2,0.5c0,0.2,0,0.4,0,0.6c0,0.1,0,0.2-0.2,0.2
		c-0.2,0-0.3,0-0.3-0.2c0-0.2,0-0.3,0-0.5c0-0.1,0-0.2-0.2-0.3c-0.2,0-0.2,0.1-0.2,0.2c0,0.2,0,0.3,0,0.5c0,0.2-0.1,0.2-0.2,0.2
		c-0.1,0-0.3,0-0.3-0.2c0-0.2,0-0.3,0-0.5c0-0.1,0-0.3-0.2-0.3c-0.2,0-0.2,0.1-0.2,0.2c0,0.2,0,0.3,0,0.5c0,0.2-0.1,0.2-0.2,0.2
		c-0.2,0-0.3,0-0.3-0.2C22,34.8,22,34.7,22,34.5z"/>
	<path class="st12" d="M31.7,34.8c-0.1-0.1-0.1-0.1-0.1-0.2c0-0.1,0.1-0.2,0-0.2c-0.1,0-0.2-0.1-0.3,0c-0.1,0.1-0.2,0-0.2-0.1
		c-0.1-0.1-0.1-0.1,0-0.2c0.2-0.1,0.3-0.2,0.2-0.5c-0.1-0.2-0.3-0.3-0.5-0.3c-0.6-0.1-0.8,0.2-0.6,0.7c0,0.1,0,0.1-0.1,0.2
		c-0.3,0.2-0.4,0.4-0.2,0.6c0.1,0.3,0.4,0.3,0.7,0.3c0.1,0,0.1,0,0.2,0c0.2-0.1,0.5-0.2,0.7,0c0.1,0.1,0.2-0.1,0.2-0.2
		C31.9,34.9,31.8,34.8,31.7,34.8z M30.9,34.8c0,0.1-0.1,0.1-0.3,0.1c-0.1,0-0.2,0-0.3-0.2c0-0.1,0-0.2,0.1-0.2
		c0.1-0.1,0.1,0,0.2,0.1c0,0,0.1,0.1,0.1,0.1C30.8,34.7,31,34.7,30.9,34.8z M30.8,33.9c-0.1,0-0.2-0.1-0.2-0.2
		c0-0.1,0.1-0.2,0.2-0.2c0.1,0,0.2,0,0.2,0.1C30.9,33.9,30.9,33.9,30.8,33.9z"/>
	<path class="st13" d="M33.8,35.2c-0.4,0-0.7-0.1-0.8-0.4c-0.1-0.2,0-0.3,0.1-0.3c0.2,0,0.3,0,0.4,0.2c0.1,0.2,0.2,0.1,0.4,0.1
		c0.1,0,0.1-0.1,0.1-0.2c0-0.1,0-0.1-0.1-0.2c-0.1,0-0.3-0.1-0.4-0.1c-0.4-0.1-0.5-0.3-0.5-0.5c0-0.3,0.1-0.4,0.5-0.5
		c0.3-0.1,0.5,0,0.8,0.1c0.1,0.1,0.2,0.2,0.2,0.3c0,0.1,0,0.1-0.1,0.1c-0.2,0-0.3,0.1-0.5-0.1c-0.1-0.1-0.1-0.1-0.2-0.1
		c-0.1,0-0.2,0-0.2,0.1c0,0.1,0.1,0.1,0.1,0.1c0.2,0,0.4,0.1,0.5,0.2c0.3,0.1,0.4,0.3,0.4,0.5c0,0.3-0.1,0.4-0.4,0.5
		C34,35.2,33.9,35.2,33.8,35.2z"/>
	<path class="st5" d="M19.6,33.9c-0.1,0.1-0.2,0-0.4,0c-0.2-0.1-0.5,0-0.6,0.1c-0.2,0.2-0.2,0.5-0.1,0.8c0.1,0.2,0.3,0.3,0.5,0.3
		c0.1,0,0.2-0.1,0.3-0.1c0,0.1,0,0.3-0.1,0.4c-0.1,0.1-0.2,0-0.3-0.1c-0.1-0.1-0.2,0-0.3-0.1c-0.1,0-0.2-0.1-0.2,0
		c-0.1,0.1,0,0.2,0.1,0.2c0,0.1,0.1,0.1,0.2,0.2c0.2,0.1,0.5,0.1,0.7,0c0.3-0.1,0.5-0.2,0.5-0.6c0-0.3,0-0.6,0-1
		C20,33.9,19.9,33.8,19.6,33.9z M19.2,34.8c-0.2,0-0.2-0.1-0.2-0.3c0-0.1,0-0.3,0.2-0.3c0.2,0,0.2,0.2,0.2,0.3
		C19.5,34.7,19.4,34.8,19.2,34.8z"/>
	<path class="st14" d="M21.9,24.4c0,0.4,0,0.8,0,1.3c0,0.2,0,0.3-0.2,0.3c-0.4,0-0.4,0-0.4-0.3c0-0.6,0-1.2,0-1.8c0-0.3,0-0.6,0-0.9
		c0-0.2,0-0.2,0.2-0.2c0.4,0,0.4,0,0.4,0.4C21.9,23.6,21.9,24,21.9,24.4C21.9,24.4,21.9,24.4,21.9,24.4z"/>
	<path class="st15" d="M10,35.2c-0.5,0.1-0.6,0.1-0.7-0.3c-0.1-0.2-0.1-0.1-0.2,0c0,0,0,0.1-0.1,0.2c0,0.1,0,0.2-0.1,0.2
		c-0.1,0-0.2,0-0.4,0c-0.1,0-0.1-0.1-0.1-0.1c0-0.5,0-0.9,0-1.4c0-0.2,0.1-0.3,0.3-0.3c0.2,0,0.3,0,0.3,0.3c0,0.2,0,0.4,0,0.6
		C9.3,34,9.6,33.8,10,34c-0.1,0.1-0.2,0.2-0.3,0.3c-0.1,0.1-0.1,0.2,0,0.3C9.8,34.8,9.9,35,10,35.2z"/>
	<path class="st16" d="M18.2,35c0-0.1,0-0.1,0-0.2h0c0-0.1,0-0.3,0-0.4c0-0.2-0.1-0.4-0.3-0.4c-0.3-0.1-0.6-0.1-0.9,0
		c-0.1,0-0.1,0.1-0.2,0.2c-0.1,0.1,0,0.2,0.1,0.2c0.1,0,0.3,0.1,0.4,0c0.1-0.1,0.1-0.1,0.2-0.1c0.1,0,0.2,0,0.2,0.1
		c0,0.1-0.1,0.1-0.1,0.1c-0.2,0-0.4,0.1-0.6,0.1c-0.2,0.1-0.2,0.2-0.2,0.3c0,0.2,0.1,0.3,0.3,0.3c0.2,0,0.4,0,0.5,0
		c0.1,0,0.1-0.1,0.2,0c0.1,0.1,0.3,0.1,0.4,0C18.3,35.2,18.2,35,18.2,35z M17.7,34.7c0,0.1-0.1,0.2-0.3,0.2c-0.1,0-0.2,0-0.2-0.1
		c0-0.2,0.2-0.2,0.3-0.2C17.7,34.6,17.8,34.6,17.7,34.7z"/>
	<path class="st17" d="M14.9,34.9c0-0.1,0-0.1,0-0.2c0-0.1,0-0.2,0-0.3c0-0.3-0.1-0.4-0.4-0.5c-0.3-0.1-0.5,0-0.7,0.1
		c-0.1,0-0.1,0.1-0.2,0.2c-0.1,0.1,0,0.2,0.1,0.2c0.2,0,0.3,0,0.4-0.1c0.1-0.1,0.2,0,0.3,0c0,0,0.1,0.1,0,0.1c0,0.1-0.1,0.1-0.2,0.1
		c-0.2,0-0.3,0.1-0.5,0.1c-0.2,0.1-0.2,0.2-0.2,0.4c0,0.2,0.1,0.3,0.3,0.3c0.2,0.1,0.4,0.1,0.6,0c0.1,0,0.2-0.1,0.3,0
		c0.1,0.1,0.3,0,0.4,0C14.9,35.2,14.9,35,14.9,34.9z M14,35c0,0-0.1,0-0.1-0.1c0-0.2,0.2-0.2,0.3-0.2c0.1,0,0.1,0,0.1,0.1
		C14.3,34.9,14.2,35,14,35z"/>
	<path class="st12" d="M25.2,34.7c0.2,0,0.4,0,0.6,0c0.2,0,0.2-0.1,0.2-0.3c-0.1-0.4-0.3-0.5-0.7-0.6c-0.3,0-0.5,0-0.7,0.3
		c-0.2,0.2-0.1,0.5,0,0.8c0.2,0.4,1.1,0.5,1.4,0c-0.2-0.1-0.4-0.1-0.6,0c-0.1,0-0.2,0-0.2-0.1c0,0-0.1-0.1,0-0.1
		C25,34.6,25.1,34.7,25.2,34.7z M25,34.3c0-0.1,0.1-0.2,0.2-0.2c0.1,0,0.2,0,0.2,0.2c0,0.2-0.2,0.1-0.2,0.1
		C25.1,34.4,25,34.5,25,34.3z"/>
	<path class="st18" d="M21,34.7c0.1,0,0.2,0,0.2,0c0.1,0,0.2,0,0.4,0c0.1,0,0.2-0.1,0.2-0.2c0-0.3-0.2-0.5-0.5-0.6
		c-0.4-0.1-0.7,0-0.9,0.3c-0.2,0.3-0.1,0.8,0.2,0.9c0.3,0.2,0.9,0.1,1.1-0.1c0.1-0.1,0-0.1-0.1-0.1c-0.2,0-0.4,0-0.5,0.1
		c-0.1,0.1-0.2,0-0.2-0.1c0,0-0.1-0.1-0.1-0.2C20.8,34.6,20.9,34.7,21,34.7z M21,34.2c0.1,0,0.2,0.1,0.2,0.2c0,0.2-0.2,0.1-0.2,0.1
		c-0.1-0.1-0.2,0.1-0.2-0.1C20.8,34.2,20.9,34.2,21,34.2z"/>
	<path class="st19" d="M15.1,34.6c0-0.1,0-0.3,0-0.4c0-0.1,0-0.2,0.1-0.2c0.1,0,0.3-0.1,0.4,0c0.1,0.1,0.1,0,0.2,0
		c0.4-0.2,0.8,0,0.8,0.5c0,0.2,0,0.4,0,0.6c0,0.1,0,0.2-0.2,0.2c-0.1,0-0.3,0.1-0.3-0.1c0-0.2,0-0.4,0-0.6c0-0.1,0-0.2-0.2-0.2
		c-0.1,0-0.2,0.1-0.2,0.2c0,0.2,0,0.4,0,0.6c0,0.1,0,0.2-0.2,0.2c-0.1,0-0.3,0.1-0.3-0.2C15.1,34.9,15.1,34.7,15.1,34.6
		C15.1,34.6,15.1,34.6,15.1,34.6z"/>
	<path class="st4" d="M38.7,34.5c0,0.1,0,0.2,0,0.4c0,0.1,0.1,0.2-0.1,0.3c-0.1,0-0.3,0.1-0.4,0c-0.1-0.1-0.1,0-0.2,0
		c-0.4,0.3-0.8,0-0.8-0.5c0-0.2,0-0.4,0-0.5c0-0.1,0-0.2,0.1-0.2c0.2,0,0.4-0.1,0.4,0.2c0,0.2,0,0.3,0,0.5c0,0.1,0,0.2,0.2,0.2
		c0.1,0,0.2-0.1,0.2-0.2c0-0.2,0-0.4,0-0.5c0-0.2,0.2-0.2,0.3-0.2c0.1,0,0.2,0,0.2,0.2C38.7,34.2,38.7,34.4,38.7,34.5z"/>
	<path class="st20" d="M26.2,34.5c0-0.1,0-0.2,0-0.4c0-0.1-0.1-0.2,0.1-0.3c0.1-0.1,0.2-0.1,0.3,0c0.1,0.1,0.2,0.1,0.2,0
		c0.4-0.2,0.7,0,0.7,0.4c0,0.2,0,0.4,0,0.7c0,0.2-0.1,0.2-0.2,0.2c-0.1,0-0.3,0-0.3-0.2c0-0.2,0-0.4,0-0.5c0-0.1,0-0.2-0.2-0.2
		c-0.1,0-0.2,0.1-0.2,0.2c0,0.2,0,0.3,0,0.5c0,0.1,0,0.2-0.2,0.2c-0.1,0-0.3,0.1-0.3-0.2C26.2,34.8,26.2,34.7,26.2,34.5
		C26.2,34.5,26.2,34.5,26.2,34.5z"/>
	<path class="st21" d="M35.5,33.8c-0.5,0-0.8,0.3-0.8,0.7c0,0.4,0.3,0.7,0.7,0.7c0.4,0,0.8-0.2,0.8-0.7
		C36.2,34.1,35.9,33.8,35.5,33.8z M35.5,34.8c-0.2,0-0.2-0.2-0.2-0.3c0-0.2,0.1-0.3,0.3-0.4c0.1,0,0.2,0.2,0.2,0.4
		C35.7,34.7,35.6,34.9,35.5,34.8z"/>
	<path class="st16" d="M41.7,33.8c-0.5,0-0.7,0.3-0.7,0.7c0,0.4,0.3,0.7,0.8,0.7c0.5,0,0.7-0.3,0.7-0.7
		C42.4,34.1,42.2,33.8,41.7,33.8z M41.9,34.5c0,0.2,0,0.3-0.3,0.3c-0.1,0-0.3-0.2-0.2-0.4c0-0.2,0.1-0.3,0.3-0.3
		C41.8,34.2,41.9,34.3,41.9,34.5z"/>
	<path class="st10" d="M44.1,34.6c0,0.1,0,0.2,0,0.3c0,0.2-0.1,0.3-0.3,0.3c-0.2,0-0.2-0.1-0.2-0.3c0-0.2,0-0.3,0-0.5
		c0-0.1-0.1-0.2-0.2-0.2c-0.1,0-0.2,0.1-0.2,0.2c0,0.2,0,0.4,0,0.6c0,0.2-0.2,0.1-0.3,0.1c-0.1,0-0.2,0-0.2-0.1c0-0.3,0-0.6,0-0.9
		c0-0.1,0-0.2,0.1-0.2c0.1,0,0.3-0.1,0.4,0c0.1,0.1,0.1,0.1,0.2,0c0.1-0.1,0.2-0.1,0.4-0.1c0.3,0,0.4,0.2,0.4,0.4
		C44.1,34.3,44.1,34.5,44.1,34.6C44.1,34.6,44.1,34.6,44.1,34.6z"/>
	<path class="st22" d="M45,35.2c-0.2,0-0.4,0-0.6-0.2c0-0.1-0.1-0.1-0.1-0.2c0-0.1,0.1,0,0.2,0c0.2,0,0.3,0,0.4,0.1
		c0.1,0.1,0.2,0,0.3,0c0,0,0.1-0.1,0-0.1c0-0.1-0.1-0.1-0.2-0.1c-0.1,0-0.3,0-0.4-0.1c-0.2-0.1-0.3-0.2-0.3-0.4
		c0-0.2,0.1-0.3,0.3-0.4c0.3-0.1,0.6-0.1,0.9,0.1c0.1,0,0.1,0.1,0.1,0.2c0,0.1-0.1,0-0.2,0.1c-0.1,0-0.2,0-0.4,0c0,0-0.1,0-0.1,0
		c-0.1,0-0.1,0-0.1,0.1c0,0.1,0,0.1,0.1,0.1c0.1,0,0.3,0.1,0.4,0.1c0.2,0,0.3,0.2,0.3,0.4c0,0.2-0.1,0.3-0.3,0.4
		C45.3,35.2,45.1,35.2,45,35.2z"/>
	<path class="st15" d="M7.6,33.9c0.2,0,0.3,0,0.5,0.1c0.1,0,0.1,0.1,0.1,0.2c0,0.1-0.1,0.1-0.1,0.1c-0.1,0-0.2,0-0.3,0
		c-0.1,0-0.1-0.1-0.2-0.1c-0.1,0-0.1,0-0.1,0.1c0,0.1,0,0.1,0.1,0.1c0.1,0,0.3,0,0.4,0.1c0.2,0,0.4,0.1,0.4,0.4
		c0,0.2-0.1,0.4-0.3,0.4c-0.3,0.1-0.5,0.1-0.8,0c-0.1,0-0.2-0.1-0.2-0.2c0-0.1-0.1-0.2,0-0.2c0.2,0,0.3-0.1,0.5,0.1
		C7.5,35,7.6,35,7.6,35c0.1,0,0.2,0,0.2-0.1c0-0.1-0.1-0.1-0.2-0.1c-0.1,0-0.2-0.1-0.3-0.1c-0.3-0.1-0.4-0.2-0.4-0.4
		c0-0.2,0.1-0.4,0.4-0.4C7.4,33.9,7.5,33.9,7.6,33.9z"/>
	<path class="st16" d="M39.1,34.6c0-0.1,0.1-0.3-0.2-0.4c-0.1,0-0.1-0.2,0-0.2c0.2-0.2,0.3-0.5,0.6-0.6c0.1,0,0.1,0.1,0.1,0.1
		c0,0.2,0,0.4,0.2,0.4c0.1,0,0,0.1,0,0.1c0,0.1,0,0.2-0.1,0.2c-0.3,0-0.1,0.3-0.2,0.4c0,0.1,0,0.2,0.2,0.2c0.1,0,0.1,0.1,0.1,0.2
		c0,0.1,0,0.2-0.1,0.2c-0.1,0-0.1,0-0.2,0c-0.3,0-0.4-0.1-0.4-0.4C39.1,34.7,39.1,34.6,39.1,34.6z"/>
	<path class="st23" d="M28.5,35.2c-0.4,0-0.5-0.1-0.5-0.4c0-0.1,0-0.2,0-0.4c0-0.1,0-0.2-0.1-0.2c-0.2-0.1-0.1-0.3-0.1-0.3
		c0.2-0.1,0.2-0.4,0.5-0.5c0.1,0,0.2,0,0.2,0.1c0,0.2,0,0.3,0.2,0.3c0.1,0,0,0.1,0.1,0.2c0,0.1,0,0.1-0.1,0.1
		c-0.2,0-0.2,0.1-0.2,0.2c0,0.1,0,0.2,0,0.2c0,0.1,0,0.2,0.1,0.2c0.1,0,0.1,0,0.1,0.1C28.8,35.2,28.8,35.2,28.5,35.2z"/>
	<path class="st24" d="M37,34.3c0,0.2,0,0.4,0,0.7c0,0.2-0.1,0.2-0.3,0.2c-0.1,0-0.3,0-0.3-0.2c0-0.5,0-0.9,0-1.4
		c0-0.2,0.1-0.2,0.2-0.2c0.1,0,0.3,0,0.3,0.2C37,33.8,37,34.1,37,34.3C37,34.3,37,34.3,37,34.3z"/>
	<path class="st25" d="M6.7,34.6c0,0.1,0,0.2,0,0.3c0,0.3-0.1,0.4-0.4,0.3c-0.1,0-0.1-0.1-0.1-0.1c0-0.3,0-0.7,0-1
		c0,0,0-0.1,0.1-0.1c0.1-0.1,0.3,0,0.4,0c0.1,0,0.1,0.2,0.1,0.2C6.7,34.3,6.7,34.5,6.7,34.6z"/>
	<path class="st26" d="M40.7,34.5c0,0.1,0,0.3,0,0.4c0,0.2-0.1,0.3-0.2,0.2c-0.2,0-0.3,0-0.3-0.2c0-0.3,0-0.6,0-0.9
		c0-0.2,0.1-0.2,0.2-0.2c0.1,0,0.3,0,0.3,0.2C40.7,34.2,40.7,34.4,40.7,34.5C40.7,34.5,40.7,34.5,40.7,34.5z"/>
	<path class="st27" d="M40.4,33.7c-0.1,0-0.2,0-0.2-0.2c0-0.2,0.1-0.2,0.2-0.2c0.1,0,0.3,0,0.3,0.2C40.7,33.7,40.5,33.7,40.4,33.7z"
		/>
	<path class="st28" d="M6.4,33.8c-0.2,0-0.3,0-0.3-0.2c0-0.2,0.1-0.2,0.2-0.2c0.1,0,0.3,0,0.3,0.2C6.7,33.8,6.5,33.8,6.4,33.8z"/>
	<path class="st9" d="M14.3,20.9c0.1,0,0.1,0,0.2,0c0.2,0,0.3,0,0.3,0.2c0.1,0.5,0.8,0.7,1.2,0.5c0.2-0.1,0.3-0.3,0.3-0.4
		c0-0.2-0.1-0.3-0.3-0.4c-0.2-0.1-0.5-0.2-0.8-0.2c-0.4-0.1-0.7-0.2-1.1-0.4c-0.5-0.3-0.7-0.7-0.7-1.3c0.1-0.5,0.4-0.9,0.9-1.1
		c0.8-0.3,1.6-0.3,2.4,0c0.5,0.2,0.8,0.6,0.9,1.1c0,0.1,0,0.2-0.1,0.2c-0.4,0-0.7,0-1.1,0c-0.2,0-0.2-0.1-0.3-0.2
		c-0.2-0.4-0.6-0.5-1-0.4c-0.1,0.1-0.2,0.2-0.2,0.3c0,0.2,0.1,0.2,0.3,0.3c0.5,0.2,1.1,0.3,1.7,0.5c1,0.4,1.2,1.5,0.7,2.2
		c-0.3,0.4-0.7,0.7-1.2,0.8c-0.6,0.1-1.2,0.1-1.8,0c-0.7-0.2-1.2-0.7-1.3-1.4c0-0.2,0.1-0.2,0.2-0.2C13.8,21,14,20.9,14.3,20.9z"/>
	<path class="st29" d="M10.9,22.6c-0.1-0.1,0-0.1,0-0.2c0-1.5,0-3,0-4.5c0-0.1,0-0.2,0.1-0.2c0.4,0,0.9,0,1.3,0c0.1,0,0.2,0,0.2,0.2
		c0,1.5,0,3.1,0,4.6c0,0.1-0.1,0.1-0.2,0.1C11.8,22.6,11.4,22.6,10.9,22.6z"/>
	<path class="st30" d="M11.5,31.4c-0.4-0.4-0.8-0.8-1.2-1.2c-0.1-0.1-0.1-0.3,0-0.5c0.1-0.1,0.4-0.1,0.5,0c0.2,0.2,0.4,0.4,0.7,0.7
		c0,0,0.1,0.1,0.2,0.1c0.5-0.5,1.1-1.1,1.6-1.6c0.1-0.1,0.1-0.1,0.2-0.2c0.2-0.1,0.4-0.1,0.5,0c0.1,0.1,0.1,0.4,0,0.5
		c-0.2,0.2-0.5,0.5-0.7,0.7c-0.4,0.4-0.8,0.8-1.3,1.3C11.9,31.3,11.7,31.4,11.5,31.4z"/>
	<path class="st31" d="M16,27.1c-0.1,0-0.3,0-0.4,0c-0.2,0-0.2,0.1-0.1,0.2c0.1,0.2,0.3,0.2,0.5,0.1c0,0,0,0,0.1-0.1
		c0.1-0.1,0.3-0.1,0.4,0c0.1,0.1-0.1,0.2-0.2,0.3c-0.2,0.2-0.7,0.2-0.9,0c-0.3-0.2-0.4-0.5-0.3-0.9c0.1-0.5,0.4-0.8,0.9-0.7
		c0.3,0.1,0.6,0.5,0.6,0.8c0,0.1-0.1,0.1-0.1,0.1C16.3,27.1,16.1,27.1,16,27.1C16,27.1,16,27.1,16,27.1z"/>
	<path class="st32" d="M13.5,27c0,0.2,0,0.4,0,0.6c0,0.1,0,0.2-0.1,0.2c-0.1,0-0.2,0.1-0.3,0c-0.1-0.1-0.1-0.1-0.2,0
		c-0.1,0.1-0.2,0.1-0.4,0.1c-0.4,0-0.5-0.1-0.5-0.5c0-0.3,0-0.6,0-1c0-0.1,0.1-0.2,0.2-0.2c0.1,0,0.2,0,0.2,0.2c0,0.3,0,0.5,0,0.8
		c0,0.2,0.1,0.3,0.3,0.3c0.2,0,0.3-0.1,0.3-0.3c0-0.2,0-0.5,0-0.7c0-0.1,0-0.3,0.2-0.3c0.2,0,0.2,0.1,0.2,0.3
		C13.5,26.7,13.5,26.9,13.5,27z"/>
	<path class="st33" d="M11.6,27.7c-0.3,0.3-0.9,0.3-1.1,0c-0.3-0.3-0.3-0.9,0-1.2c0.3-0.3,0.8-0.3,1.1,0c0,0.1,0.2,0.3,0,0.4
		c-0.1,0.1-0.2,0-0.3-0.1c-0.2-0.2-0.4-0.1-0.4,0.2c0,0.1,0,0.3,0,0.4c0.1,0.2,0.3,0.3,0.4,0.1c0.1-0.1,0.2-0.2,0.4-0.1
		C11.9,27.4,11.6,27.5,11.6,27.7z"/>
	<path class="st34" d="M11.6,17.5c-0.2,0-0.4,0-0.6,0c-0.2,0-0.2-0.1-0.2-0.2c0-0.3,0-0.6,0-0.9c0-0.1,0-0.1,0-0.1
		c0.2-0.1,0.2-0.3,0.2-0.4c0-0.3,0.3-0.4,0.6-0.5c0.4,0.1,0.5,0.3,0.5,0.7c0,0.1,0,0.2,0.1,0.2c0.1,0,0.1,0.1,0.1,0.2
		c0,0.3,0,0.6,0,0.9c0,0.2-0.1,0.3-0.3,0.3C12,17.5,11.8,17.5,11.6,17.5z"/>
	<path class="st35" d="M14.3,26.4c0.1-0.2,0.2-0.2,0.4-0.2c0.1,0,0.3,0,0.2,0.1c0,0.1,0,0.3-0.2,0.2c-0.2,0-0.3,0.1-0.3,0.3
		c0,0.3,0,0.5,0,0.8c0,0.1,0,0.2-0.2,0.2c-0.1,0-0.3,0-0.3-0.2c0-0.4,0-0.8,0-1.2c0-0.1,0-0.2,0.2-0.2
		C14.2,26.2,14.3,26.2,14.3,26.4z"/>
	<path class="st36" d="M11.6,27.3c-0.2,0-0.3,0-0.4,0.2c-0.1,0.2-0.4,0.1-0.5-0.1c-0.1-0.2-0.1-0.4,0-0.7c0.1-0.2,0.3-0.2,0.5-0.1
		c0.1,0.1,0.2,0.1,0.3,0.1c0.1,0,0.1,0.1,0.1,0.2C11.7,27.1,11.6,27.2,11.6,27.3z"/>
	<path class="st9" d="M8.9,20.5c0.6,0.3,0.8,0.9,1.1,1.5c0.1,0.1,0.1,0.3,0.2,0.4c0.1,0.2,0.1,0.3-0.2,0.3c-0.4,0-0.8,0-1.1,0
		c-0.2,0-0.4-0.1-0.5-0.3c-0.2-0.5-0.5-0.9-0.8-1.4c-0.1-0.2-0.3-0.3-0.5-0.3c-0.2,0-0.2,0-0.2,0.2c0,0.5,0,1,0,1.5
		c0,0.2-0.1,0.3-0.3,0.3c-0.4,0-0.7,0-1.1,0c-0.1,0-0.2-0.1-0.2-0.2c0-1.5,0-3,0-4.5c0-0.2,0.1-0.3,0.2-0.3c0.9,0,1.9,0,2.8,0
		c0.4,0,0.8,0.1,1.2,0.4c0.6,0.6,0.4,1.9-0.5,2.2C9,20.4,8.9,20.4,8.9,20.5z"/>
	<path class="st37" d="M7.4,25.6c0.2,0,0.5,0.1,0.7,0.4c0,0.1,0.1,0.2,0,0.3c-0.1,0.1-0.2,0.1-0.4,0c0,0-0.1-0.1-0.1-0.1
		C7.5,26,7.3,25.9,7.1,26C7,26,7,26.1,7,26.2c0,0.1,0.1,0.1,0.2,0.2c0.2,0.1,0.4,0.1,0.7,0.2c0.3,0.1,0.5,0.4,0.5,0.6
		c0,0.3-0.2,0.5-0.6,0.6c-0.2,0.1-0.5,0-0.7,0c-0.2-0.1-0.4-0.2-0.4-0.4c0-0.1-0.1-0.2,0-0.3c0.1-0.1,0.3,0,0.4,0.1
		c0.2,0.3,0.4,0.3,0.6,0.2c0.1-0.1,0.2-0.1,0.2-0.3c0-0.1-0.1-0.2-0.2-0.2c-0.1,0-0.3-0.1-0.4-0.1c-0.4-0.1-0.7-0.4-0.6-0.7
		C6.6,25.8,6.9,25.6,7.4,25.6z"/>
	<path class="st38" d="M9.4,27.2c-0.1,0-0.2,0-0.3,0c-0.2,0-0.2,0.1-0.1,0.2c0.1,0.2,0.3,0.3,0.5,0.1c0,0,0,0,0.1-0.1
		c0.1-0.1,0.3-0.1,0.4,0c0.1,0.1,0,0.2-0.1,0.3c-0.3,0.2-0.6,0.3-0.9,0.1c-0.3-0.1-0.4-0.4-0.4-0.7c0-0.3,0-0.6,0.3-0.8
		c0.2-0.2,0.5-0.2,0.7-0.1c0.3,0.1,0.4,0.4,0.5,0.7c0,0.1,0,0.2-0.2,0.2C9.7,27.1,9.6,27.1,9.4,27.2C9.4,27.2,9.4,27.2,9.4,27.2z"/>
	<path class="st39" d="M15.8,26.9c-0.1,0-0.3,0.1-0.3-0.1c0-0.2,0.1-0.3,0.3-0.3c0.1,0,0.3,0.1,0.3,0.3C16.1,27,15.9,26.8,15.8,26.9
		z"/>
	<path class="st40" d="M11.6,17.2C11,17.3,11,17.3,11,16.7c0-0.5,0-0.5,0.4-0.5c0.1,0,0.1,0,0.2,0c0,0,0,0.1,0,0.1
		c-0.2,0.2-0.2,0.2-0.1,0.5c0,0.1,0.1,0.2,0.1,0.2C11.6,17.1,11.7,17.2,11.6,17.2z"/>
	<path class="st41" d="M12,15.9c0,0.2-0.1,0.2-0.2,0.2c-0.1,0-0.2,0-0.4,0c-0.1,0-0.2-0.1-0.2-0.2c0-0.3,0.2-0.5,0.4-0.5
		C11.9,15.4,12,15.5,12,15.9z"/>
	<path class="st42" d="M11.6,17.2c0-0.1-0.1-0.1-0.1-0.1c0.1-0.1,0.1-0.3,0.2-0.4c0.1-0.2-0.1-0.2-0.1-0.3c0,0,0-0.1,0-0.1
		c0.5-0.1,0.6,0,0.6,0.5c0,0,0,0.1,0,0.1c0,0.3,0,0.4-0.4,0.4C11.8,17.2,11.7,17.2,11.6,17.2z"/>
	<path class="st43" d="M7.6,18.7c0.1,0,0.3,0,0.5,0c0.2,0.1,0.4,0.2,0.4,0.5c0,0.2-0.2,0.4-0.4,0.4c-0.3,0.1-0.6,0-0.8,0
		c-0.1,0-0.2,0-0.2-0.2c0-0.2,0-0.4,0-0.6c0-0.2,0.1-0.3,0.3-0.3C7.4,18.7,7.4,18.7,7.6,18.7z"/>
	<path class="st44" d="M9.3,26.9C9.2,26.9,9,27,9,26.8c0-0.2,0.1-0.2,0.3-0.2c0.2,0,0.3,0.1,0.3,0.2C9.5,27,9.3,26.9,9.3,26.9z"/>
	<path class="st45" d="M11.6,16.3c0.1,0.1,0.3,0.1,0.2,0.3c-0.1,0.2-0.1,0.4-0.3,0.5c0-0.1,0-0.2-0.1-0.3
		C11.3,16.5,11.4,16.5,11.6,16.3z"/>
</g>
</svg>
