<?xml version="1.0" encoding="utf-8"?>
<!-- Generator: Adobe Illustrator 26.0.1, SVG Export Plug-In . SVG Version: 6.00 Build 0)  -->
<svg version="1.1" id="Layer_1" xmlns="http://www.w3.org/2000/svg" xmlns:xlink="http://www.w3.org/1999/xlink" x="0px" y="0px"
	 viewBox="0 0 50 50" style="enable-background:new 0 0 50 50;" xml:space="preserve">
<style type="text/css">
	.st0{fill:#00B2CE;}
</style>
<g>
	<path class="st0" d="M38.4,26.5c0-0.3-0.1-0.6-0.5-0.7c-0.3-0.1-0.3-0.2-0.3-0.4c0-0.2,0-0.3,0-0.5c-0.1-1.6-0.9-2.7-2.3-3.3
		c-1.4-0.6-2.8-0.3-3.9,0.7c-0.9,0.8-1.2,1.9-1.2,3.1c0,0.1,0.1,0.4-0.2,0.4c-0.4,0.1-0.6,0.5-0.6,0.9c0,1.9,0,3.8,0,5.6
		c0,0.6,0.3,0.9,0.9,0.9c1.2,0,2.4,0,3.5,0c1.2,0,2.4,0,3.6,0c0.6,0,0.9-0.3,0.9-0.8C38.4,30.4,38.4,28.5,38.4,26.5z M33.9,22.7
		c1.2,0,2.3,0.9,2.3,2.2c0,0.2,0,0.3,0,0.5c0,0.2-0.1,0.3-0.3,0.3c-0.7,0-1.3,0-2,0c-0.7,0-1.3,0-2,0c-0.1,0-0.2,0.1-0.3-0.1
		C31.4,24.2,32.5,22.8,33.9,22.7z M37,31.4c0,0.3-0.1,0.3-0.3,0.3c-0.9,0-1.8,0-2.7,0c-0.9,0-1.7,0-2.6,0c-0.3,0-0.4-0.1-0.4-0.4
		c0-1.3,0-2.5,0-3.8c0-0.3,0.1-0.4,0.4-0.4c1.8,0,3.5,0,5.3,0c0.3,0,0.4,0.1,0.3,0.3C36.9,28.8,36.9,30.1,37,31.4z"/>
	<path class="st0" d="M46.3,21.5c-4-2.2-8-4.4-12-6.7c-0.3-0.2-0.5-0.2-0.8,0c-2.7,1.5-5.5,3-8.2,4.6c-1.3,0.7-2.5,1.4-3.8,2.1
		c-0.3,0.2-0.3,0.4-0.3,0.7c0.1,1.2,0.2,2.5,0.4,3.7c0.6,3.3,1.5,6.5,3.3,9.4c1.9,3.2,4.5,5.5,8.1,6.6c0.6,0.2,1.1,0.1,1.7-0.1
		c4.7-1.9,7.9-5.3,9.9-9.9c1.2-2.9,1.8-5.9,1.9-9c0-0.3,0-0.6,0-0.9C46.7,21.8,46.6,21.6,46.3,21.5z M35.4,37.4
		c-0.1,0.1-0.3,0.1-0.4,0.2c-0.8,0.6-1.6,0.5-2.5,0c-2.2-1.2-3.7-3-4.8-5.1c-1.4-2.7-2.1-5.6-2.5-8.5c0-0.2,0-0.3,0.2-0.4
		c2.8-1.5,5.6-3.1,8.3-4.6c0.2-0.1,0.3-0.1,0.4,0c2.8,1.6,5.6,3.1,8.4,4.7c0.1,0.1,0.3,0.1,0.3,0.3C42.2,29.5,40.4,34.3,35.4,37.4z"
		/>
	<path class="st0" d="M16.1,12.6c0-1.1,0-1.1,1-1.1c2,0,4,0,6.1,0c0.3,0,0.4,0.1,0.4,0.4c0,0,0,0,0,0c0.2,1.2-0.2,2.1-0.9,3
		c-0.6,0.7-1,1.4-1.7,2c-0.8,0.7-1.4,0.7-2.3,0c-1-0.9-1.8-2.1-2.5-3.3C15.9,13.3,16.1,12.9,16.1,12.6z"/>
	<path class="st0" d="M19.8,45.1c-2.6,0-5.2,0-7.8,0c-0.3,0-0.4-0.1-0.4-0.4c0-1.1,0-1.1,1.1-1.1c5,0,9.9,0,14.9,0
		c0.4,0,0.5,0.1,0.5,0.4c0,1.1,0,1.1-1.1,1.1C24.5,45.1,22.2,45.1,19.8,45.1z"/>
	<path class="st0" d="M19.7,42.2c-2.6,0-5.2,0-7.7,0c-0.3,0-0.4-0.1-0.4-0.4c0-1.1,0-1.1,1.1-1.1c4.8,0,9.6,0,14.5,0
		c0.8,0,1.2,0.6,0.9,1.4c-0.1,0.2-0.3,0.1-0.4,0.1c-1.8,0-3.5,0-5.3,0C21.5,42.2,20.6,42.2,19.7,42.2z"/>
	<path class="st0" d="M26,39.2c-0.2,0-0.3,0-0.4,0c-4.5,0-9,0-13.5,0c-0.4,0-0.5-0.1-0.5-0.5c0-1,0-1,1-1c3.9,0,7.8,0,11.7,0
		c0.3,0,0.5,0.1,0.7,0.3C25.3,38.4,25.6,38.7,26,39.2z"/>
	<path class="st0" d="M13.8,27.2c-2,0-4.1,0-6.1,0c-0.4,0-0.5-0.1-0.4-0.4c0.1-0.3-0.1-0.8,0.2-1c0.3-0.2,0.7-0.1,1-0.1
		c3.7,0,7.4,0,11.1,0c0.4,0,0.5,0.1,0.5,0.5c0,0.2,0,0.4,0.1,0.6c0.2,0.4,0,0.4-0.4,0.4C17.9,27.2,15.9,27.2,13.8,27.2z"/>
	<path class="st0" d="M13.8,24.2c-1.9,0-3.8,0-5.6,0c-0.2,0-0.5,0.1-0.5-0.1c0-0.3-0.1-0.7,0.2-0.9c0.6-0.3,1.2-0.5,1.9-0.5
		c3.2,0,6.3,0,9.5,0c0.4,0,0.6,0.1,0.6,0.5c0,0,0,0.1,0,0.1c0.1,0.9,0.1,0.9-0.8,0.9C17.3,24.2,15.6,24.2,13.8,24.2z"/>
	<path class="st0" d="M23.7,36.2c-0.2,0-0.4,0-0.5,0c-3.7,0-7.4,0-11.1,0c-0.4,0-0.6-0.1-0.5-0.5c0-1,0-1,1-1c3.3,0,6.7,0,10,0
		c0.3,0,0.5,0.1,0.6,0.4C23.3,35.4,23.5,35.8,23.7,36.2z"/>
	<path class="st0" d="M19.8,6.3c-1.1,0-2.2,0-3.3,0c-0.3,0-0.4-0.1-0.3-0.4c0.5-1.5,1.9-2.6,3.6-2.6c1.6,0,3.1,1.1,3.6,2.6
		c0.1,0.3,0,0.4-0.3,0.4C21.9,6.3,20.9,6.3,19.8,6.3z"/>
	<path class="st0" d="M22.2,33.2c-0.2,0-0.3,0-0.4,0c-3.3,0-6.6,0-9.8,0c-0.3,0-0.4-0.1-0.4-0.4c0-1.1,0-1.1,1.1-1.1
		c2.9,0,5.7,0,8.6,0c0.3,0,0.5,0.1,0.6,0.4C21.9,32.4,22.1,32.8,22.2,33.2z"/>
	<path class="st0" d="M21.2,30.2c-0.2,0-0.3,0-0.5,0c-2.9,0-5.7,0-8.6,0c-0.4,0-0.5-0.1-0.5-0.5c0-1,0-1,1-1c2.6,0,5.2,0,7.8,0
		c0.4,0,0.5,0.1,0.6,0.4C21,29.5,21.1,29.8,21.2,30.2z"/>
	<path class="st0" d="M7.6,45.1c-0.7,0-1.5,0-2.2,0c-0.3,0-0.4,0-0.3-0.3c0.1-0.4,0-0.9,0.2-1.1c0.3-0.2,0.7-0.1,1.1-0.1
		c1.1,0,2.3,0,3.4,0c0.3,0,0.3,0.1,0.3,0.3c0,1.2,0,1.2-1.1,1.2C8.5,45.1,8,45.1,7.6,45.1z"/>
	<path class="st0" d="M34.6,45.1c-0.5,0-1,0-1.4,0c-1.1,0-2.2,0-3.3,0c-0.3,0-0.4,0-0.4-0.3c0-1.2,0-1.2,1.1-1.2c1.2,0,2.3,0,3.5,0
		c0.3,0,0.4,0.1,0.4,0.3C34.5,44.4,34.6,44.7,34.6,45.1z"/>
	<path class="st0" d="M7.7,42.2c-0.7,0-1.3,0-2,0c-0.2,0-0.4,0-0.3-0.3c0.1-1.2,0.1-1.2,1.3-1.2c1,0,2,0,3,0c0.3,0,0.4,0.1,0.4,0.4
		c0,1.1,0,1.1-1.1,1.1C8.6,42.2,8.1,42.2,7.7,42.2z"/>
	<path class="st0" d="M17.5,18.1c1.8,1.3,2.8,1.3,4.4,0c0.1,0.4,0,0.8,0,1.2c0,0.2-0.1,0.2-0.2,0.3c-0.4,0.3-0.9,0.7-1.4,0.9
		c-0.1,0.1-0.3,0.1-0.3,0.2c-0.2,0.5-0.5,0.2-0.7,0c-0.4-0.3-0.8-0.7-1.3-1c-0.4-0.2-0.5-0.5-0.5-1C17.6,18.6,17.5,18.3,17.5,18.1z"
		/>
	<path class="st0" d="M7.9,39.2c-0.6,0-1.3,0-1.9,0c-0.2,0-0.2,0-0.2-0.3c0.1-1.2,0.1-1.2,1.3-1.2c0.9,0,1.8,0,2.7,0
		c0.2,0,0.3,0,0.3,0.3c0,1.2,0,1.2-1.2,1.2C8.6,39.2,8.2,39.2,7.9,39.2z"/>
	<path class="st0" d="M19.8,7.8c1.1,0,2.2,0,3.3,0c0.1,0,0.4-0.1,0.4,0.1c0,0.2-0.2,0.2-0.4,0.2c-1,0.3-2,0.7-3,1
		c-0.2,0.1-0.4,0.1-0.6,0c-1.1-0.4-2.1-0.7-3.2-1.1c-0.1,0-0.3,0-0.3-0.2c0-0.1,0.2-0.1,0.3-0.1C17.5,7.8,18.7,7.8,19.8,7.8z"/>
	<path class="st0" d="M8.1,36.2c-0.5,0-1.1,0-1.6,0c-0.2,0-0.3-0.1-0.3-0.3c0-0.3,0.1-0.6,0.1-0.9c0-0.2,0.1-0.3,0.3-0.2
		c1.1,0,2.1,0,3.2,0c0.2,0,0.3,0.1,0.3,0.3c0.1,1.2,0.1,1.2-1.1,1.2C8.7,36.2,8.4,36.2,8.1,36.2z"/>
	<path class="st0" d="M8.3,33.2c-0.5,0-1,0-1.5,0c-0.2,0-0.3-0.1-0.3-0.3c0.1-1.2,0.1-1.2,1.3-1.2c0.7,0,1.3,0,2,0
		c0.2,0,0.3,0,0.3,0.3c0.1,1.2,0.1,1.2-1.2,1.2C8.7,33.2,8.5,33.2,8.3,33.2z"/>
	<path class="st0" d="M8.5,30.2c-0.4,0-0.9,0-1.3,0c-0.2,0-0.3-0.1-0.3-0.3c0,0,0-0.1,0-0.1C7,28.7,7,28.7,8.2,28.7
		c0.5,0,1.1,0,1.6,0c0.2,0,0.3,0.1,0.3,0.3c0.1,1.2,0.1,1.2-1.1,1.2C8.8,30.2,8.6,30.2,8.5,30.2z"/>
	<path class="st0" d="M13.3,21.2c0.9-0.3,1.7-0.7,2.6-1c0.1,0,0.2-0.1,0.3,0c0.4,0.4,0.8,0.6,1.3,1C16,21.2,14.6,21.2,13.3,21.2
		C13.3,21.2,13.3,21.2,13.3,21.2z"/>
	<path class="st0" d="M17.2,10.1c-0.3,0-0.6,0-0.9,0c-0.2,0-0.3-0.1-0.2-0.3c0-0.2,0.2-0.1,0.3-0.1C16.6,9.8,16.9,9.9,17.2,10.1
		C17.2,10,17.2,10,17.2,10.1z"/>
	<path class="st0" d="M22.4,10c0.3-0.1,0.6-0.2,0.9-0.3c0.1,0,0.2-0.2,0.3,0.1c0,0.2,0,0.3-0.2,0.3C23,10,22.7,10.1,22.4,10
		C22.4,10,22.4,10,22.4,10z"/>
	<path class="st0" d="M38.4,26.5c0-0.3-0.1-0.6-0.5-0.7c-0.3-0.1-0.3-0.2-0.3-0.4c0-0.2,0-0.3,0-0.5c-0.1-1.6-0.9-2.7-2.3-3.3
		c-1.4-0.6-2.8-0.3-3.9,0.7c-0.9,0.8-1.2,1.9-1.2,3.1c0,0.1,0.1,0.4-0.2,0.4c-0.4,0.1-0.6,0.5-0.6,0.9c0,1.9,0,3.8,0,5.6
		c0,0.6,0.3,0.9,0.9,0.9c1.2,0,2.4,0,3.5,0c1.2,0,2.4,0,3.6,0c0.6,0,0.9-0.3,0.9-0.8C38.4,30.4,38.4,28.5,38.4,26.5z M33.9,22.7
		c1.2,0,2.3,0.9,2.3,2.2c0,0.2,0,0.3,0,0.5c0,0.2-0.1,0.3-0.3,0.3c-0.7,0-1.3,0-2,0c-0.7,0-1.3,0-2,0c-0.1,0-0.2,0.1-0.3-0.1
		C31.4,24.2,32.5,22.8,33.9,22.7z M37,31.4c0,0.3-0.1,0.3-0.3,0.3c-0.9,0-1.8,0-2.7,0c-0.9,0-1.7,0-2.6,0c-0.3,0-0.4-0.1-0.4-0.4
		c0-1.3,0-2.5,0-3.8c0-0.3,0.1-0.4,0.4-0.4c1.8,0,3.5,0,5.3,0c0.3,0,0.4,0.1,0.3,0.3C36.9,28.8,36.9,30.1,37,31.4z"/>
	<path class="st0" d="M19.8,12.7c0.6,0,1.2,0.1,1.7,0.3c0.5,0.2,0.7,0.6,0.5,1c-0.2,0.4-0.6,0.6-1,0.4c-0.8-0.3-1.5-0.3-2.3,0
		c-0.5,0.2-0.9,0-1-0.4c-0.2-0.4,0-0.8,0.5-1C18.6,12.8,19.2,12.7,19.8,12.7z"/>
	<path class="st0" d="M38.4,26.5c0-0.3-0.1-0.6-0.5-0.7c-0.3-0.1-0.3-0.2-0.3-0.4c0-0.2,0-0.3,0-0.5c-0.1-1.6-0.9-2.7-2.3-3.3
		c-1.4-0.6-2.8-0.3-3.9,0.7c-0.9,0.8-1.2,1.9-1.2,3.1c0,0.1,0.1,0.4-0.2,0.4c-0.4,0.1-0.6,0.5-0.6,0.9c0,1.9,0,3.8,0,5.6
		c0,0.6,0.3,0.9,0.9,0.9c1.2,0,2.4,0,3.5,0c1.2,0,2.4,0,3.6,0c0.6,0,0.9-0.3,0.9-0.8C38.4,30.4,38.4,28.5,38.4,26.5z M33.9,22.7
		c1.2,0,2.3,0.9,2.3,2.2c0,0.2,0,0.3,0,0.5c0,0.2-0.1,0.3-0.3,0.3c-0.7,0-1.3,0-2,0c-0.7,0-1.3,0-2,0c-0.1,0-0.2,0.1-0.3-0.1
		C31.4,24.2,32.5,22.8,33.9,22.7z M37,31.4c0,0.3-0.1,0.3-0.3,0.3c-0.9,0-1.8,0-2.7,0c-0.9,0-1.7,0-2.6,0c-0.3,0-0.4-0.1-0.4-0.4
		c0-1.3,0-2.5,0-3.8c0-0.3,0.1-0.4,0.4-0.4c1.8,0,3.5,0,5.3,0c0.3,0,0.4,0.1,0.3,0.3C36.9,28.8,36.9,30.1,37,31.4z"/>
	<path class="st0" d="M38.4,26.5c0-0.3-0.1-0.6-0.5-0.7c-0.3-0.1-0.3-0.2-0.3-0.4c0-0.2,0-0.3,0-0.5c-0.1-1.6-0.9-2.7-2.3-3.3
		c-1.4-0.6-2.8-0.3-3.9,0.7c-0.9,0.8-1.2,1.9-1.2,3.1c0,0.1,0.1,0.4-0.2,0.4c-0.4,0.1-0.6,0.5-0.6,0.9c0,1.9,0,3.8,0,5.6
		c0,0.6,0.3,0.9,0.9,0.9c1.2,0,2.4,0,3.5,0c1.2,0,2.4,0,3.6,0c0.6,0,0.9-0.3,0.9-0.8C38.4,30.4,38.4,28.5,38.4,26.5z M33.9,22.7
		c1.2,0,2.3,0.9,2.3,2.2c0,0.2,0,0.3,0,0.5c0,0.2-0.1,0.3-0.3,0.3c-0.7,0-1.3,0-2,0c-0.7,0-1.3,0-2,0c-0.1,0-0.2,0.1-0.3-0.1
		C31.4,24.2,32.5,22.8,33.9,22.7z M37,31.4c0,0.3-0.1,0.3-0.3,0.3c-0.9,0-1.8,0-2.7,0c-0.9,0-1.7,0-2.6,0c-0.3,0-0.4-0.1-0.4-0.4
		c0-1.3,0-2.5,0-3.8c0-0.3,0.1-0.4,0.4-0.4c1.8,0,3.5,0,5.3,0c0.3,0,0.4,0.1,0.3,0.3C36.9,28.8,36.9,30.1,37,31.4z"/>
</g>
</svg>
