<svg id="Layer_1" data-name="Layer 1" xmlns="http://www.w3.org/2000/svg" viewBox="0 0 50 50"><defs><style>.cls-1{fill:none;stroke:#00b2ce;stroke-miterlimit:10;}</style></defs><path class="cls-1" d="M15,10.33C13,8,12.83,6.67,14.17,5.41a2.9,2.9,0,0,1,3.69-.06c1.39,1.23,1.26,2.45-.68,5A9.05,9.05,0,0,0,18.54,10c1.27-.54,2.51-1.14,3.78-1.69.78-.34,1.59-.49,2.1.41.41.73,0,1.51-1,2-1.25.59-2.51,1.15-3.78,1.69a1.25,1.25,0,0,0-.88,1.3,62,62,0,0,0,1.08,12.23c.17,1.07-.21,1.81-1.05,1.92-1,.12-1.46-.38-1.59-1.59-.21-1.87-.45-3.74-.68-5.61,0-.12-.12-.23-.36-.64-.16,1-.32,1.7-.39,2.42-.11,1.15-.16,2.31-.25,3.47,0,.25-.08.5-.11.75-.1.85-.58,1.4-1.42,1.31a1.28,1.28,0,0,1-1.16-1.56c.09-1.19.21-2.38.26-3.58.15-3.12.29-6.24.36-9.36,0-.31-.45-.79-.8-.92-1.21-.45-2.48-.78-3.72-1.18s-1.55-.95-1.32-1.78,1-1.07,2.1-.76c1.29.37,2.56.8,3.84,1.19C13.93,10.1,14.31,10.17,15,10.33ZM13.5,25.66h-.17c0,.18,0,.37,0,.55-.05.62,0,1.33.78,1.24.35-.05.79-.75.88-1.22a27.72,27.72,0,0,0,.27-3c.09-.94.16-1.88.33-2.8a1.09,1.09,0,0,1,.69-.67c.14,0,.48.35.62.61a2.24,2.24,0,0,1,.16.84c.22,1.72.38,3.46.68,5.17.07.41.59.74.91,1.11a13.27,13.27,0,0,0,.73-1.26,1.23,1.23,0,0,0,0-.65,61.61,61.61,0,0,1-1.06-11.9A1.57,1.57,0,0,1,19.37,12c1.3-.53,2.58-1.15,3.87-1.74.53-.24,1.15-.51.81-1.26s-.9-.6-1.48-.34c-.83.37-1.69.68-2.48,1.12a8.7,8.7,0,0,1-7.26.43c-1.1-.36-2.23-.64-3.33-1C8.87,9,8.23,9,8.14,9.73A1.51,1.51,0,0,0,9,10.85c1.1.45,2.27.73,3.41,1.08,1.61.51,1.66.52,1.6,2.21C13.86,18,13.67,21.82,13.5,25.66ZM16,9.4a1.94,1.94,0,0,0,2.06-1.92,2.1,2.1,0,0,0-2-2.15A2.13,2.13,0,0,0,14,7.43,1.94,1.94,0,0,0,16,9.4Z"/><path class="cls-1" d="M16.12,35.35c.25-1.6,1.52-1.89,2.91-2.19,4.21-.89,8.42-1.81,12.6-2.84A8.4,8.4,0,0,1,39,31.57a35.75,35.75,0,0,0,7.94,4.26c.78.32,1,.67.59,1.47-1.14,2.43-2.23,4.89-3.3,7.35-.29.65-.62.78-1.26.47-1.63-.79-3.31-1.49-4.93-2.3a6,6,0,0,0-4.23-.4c-2.92.72-5.83,1.53-8.78,2A7.2,7.2,0,0,1,21,44,67,67,0,0,1,3.48,32.49a3.78,3.78,0,0,1-1.11-1.67,2.35,2.35,0,0,1,3.19-2.76,5.11,5.11,0,0,1,1.15.62q4.14,2.75,8.25,5.53A9.47,9.47,0,0,1,16.12,35.35Zm27.42,9.48c1.15-2.53,2.22-4.95,3.35-7.34.35-.75.2-1.06-.55-1.36A33.33,33.33,0,0,1,38.69,32a7.54,7.54,0,0,0-6.93-1.15c-1.77.54-3.57,1-5.37,1.36-2.63.56-5.27,1-7.9,1.57-1.18.24-1.86.93-1.81,1.72a2.29,2.29,0,0,0,2.15,1.84,11.28,11.28,0,0,0,1.64,0c3.35-.34,6.71-.71,10.07-1,.38,0,.78.27,1.17.42-.33.26-.63.71-1,.76-2.26.34-4.53.65-6.8.86a49.67,49.67,0,0,1-5.45.23,3.21,3.21,0,0,1-3.07-2.75,2,2,0,0,0-.78-1.16c-2.18-1.52-4.4-3-6.61-4.46-.66-.44-1.32-.9-2-1.32a2.19,2.19,0,0,0-2.87.3c-.66.81-.52,1.77.4,2.72.25.26.52.51.79.76A73.26,73.26,0,0,0,21.11,43.54a5.88,5.88,0,0,0,4,.45c2.93-.69,5.85-1.41,8.78-2.11a6,6,0,0,1,4.13.39C39.83,43.12,41.61,43.93,43.54,44.83ZM30.82,37.09l0-.3L19,37.93l0,.3Z"/><path class="cls-1" d="M31.55,10a10.38,10.38,0,0,1-.88-.59,1.84,1.84,0,0,1-.7-2,14.28,14.28,0,0,0,.28-2.05c.71.47,1.45.16,2.21-.29A1.09,1.09,0,0,1,33.31,5,2.61,2.61,0,0,1,34,9.43a2.35,2.35,0,0,0-.73.83A6.28,6.28,0,0,0,34.76,10c1.17-.47,2.32-1,3.48-1.55a6.14,6.14,0,0,1,.7-.3c.76-.23,1.51-.2,1.85.63s-.09,1.47-.89,1.83c-1.25.57-2.49,1.19-3.78,1.69-.89.34-1.09.89-1.16,1.81a12.8,12.8,0,0,0,1.38,6.3c.18.42.29.87.48,1.44H28.38a28.7,28.7,0,0,0,1.05-3.53,39.16,39.16,0,0,0,.39-5c0-.27-.46-.7-.8-.83-1.19-.43-2.42-.75-3.63-1.14-.37-.12-.71-.3-1.14-.49.23-.39.54-.68.57-1,.14-1.38.88-1.3,1.89-.93s2.34.75,3.53,1.1a10,10,0,0,0,1.24.19Zm4.83,11.54a14.9,14.9,0,0,1-1.81-7.75A1.68,1.68,0,0,1,35.66,12c1.38-.58,2.75-1.17,4.06-1.86.33-.18.42-.79.62-1.2-.44-.13-.93-.43-1.31-.33a9.43,9.43,0,0,0-2.18,1,9.35,9.35,0,0,1-8.09.5c-1-.37-2.11-.63-3.22-1l-.48,1.66c1.47.46,2.9.87,4.28,1.38a1.39,1.39,0,0,1,.82.93c.12,2.17.33,4.35-.61,6.44a12.9,12.9,0,0,0-.55,2ZM34.49,7.36c0-.91-.86-2.05-1.51-2a3.14,3.14,0,0,0-2.65,2.59,2,2,0,0,0,2,1.66A2.15,2.15,0,0,0,34.49,7.36Z"/><path class="cls-1" d="M29.23,26.34c.09-1.11.19-2,.24-3s.84-.85,1.5-.87c.87,0,.63.54.57,1.05-.1.9-.19,1.8-.24,2.7s-.14,1.56-1.1,1.54S29.2,26.92,29.23,26.34Zm2.21-3.44-.29-.37c-.47.23-1.26.38-1.33.69a14.9,14.9,0,0,0-.33,3.34c0,.32.42.64.64,1,.3-.25.79-.47.85-.76C31.2,25.49,31.3,24.19,31.44,22.9Z"/><path class="cls-1" d="M33.22,22.72c1.74-.56,2.13-.31,2.21,1.39a15.85,15.85,0,0,1,.12,2.27c-.06.49-.35,1.2-.73,1.35-.69.29-1-.35-1.1-1C33.53,25.41,33.38,24.06,33.22,22.72Zm.24.19c.15,1.27.25,2.49.48,3.68.06.35.51.62.79.92.21-.32.58-.64.59-1,0-.86-.12-1.72-.17-2.59C35.07,22.58,35,22.5,33.46,22.91Z"/></svg>