<?xml version="1.0" encoding="utf-8"?>
<!-- Generator: Adobe Illustrator 26.0.1, SVG Export Plug-In . SVG Version: 6.00 Build 0)  -->
<svg version="1.1" id="Layer_1" xmlns="http://www.w3.org/2000/svg" xmlns:xlink="http://www.w3.org/1999/xlink" x="0px" y="0px"
	 viewBox="0 0 50 50" style="enable-background:new 0 0 50 50;" xml:space="preserve">
<style type="text/css">
	.st0{fill:#00B2CE;}
</style>
<g>
	<path class="st0" d="M1.6,27c1.6-0.1,3.2-0.1,4.8-0.2c0.7,0,1.4,0,2.1-0.1c0.9,0,1.2,0.3,1.3,1.2c0,0.7,0,0.8,0.8,0.7
		c1.9-0.1,3.8-0.2,5.7-0.1c2.4,0.1,4.6,0.6,6.7,1.8c1.7,1,3.5,1.4,5.5,1.6c1.5,0.1,3,0.3,4.5,0.3c1.3,0,2.2,0.9,2.2,2.1
		c0,1.3-0.9,2.2-2.2,2.2c-3.3,0.1-6.7,0.2-10,0.3c-0.1,0-0.2,0-0.3,0c-0.5,0.1-0.7,0.2-0.7,0.5c0,0.3,0.3,0.7,0.7,0.8
		c0.1,0,0.1,0,0.2,0c3.4-0.1,6.9-0.2,10.3-0.3c1,0,1.8-0.5,2.5-1.2c0.1-0.1,0.3-0.3,0.5-0.3c3.1-1.2,6.2-2.5,9.3-3.7
		c0.3-0.1,0.7-0.2,1-0.3c1-0.2,1.5,0.1,1.9,1c0,0.2,0,0.4,0,0.5c-0.1,0.6-0.5,1-1,1.3c-2.9,1.6-5.7,3.2-8.6,4.7
		c-2.4,1.3-4.9,2.7-7.3,4c-0.9,0.5-1.9,0.7-2.9,0.8c-0.7,0.1-1.4,0.1-2,0C21.6,44,16.9,42.3,12,41c-0.5-0.1-1-0.3-1.5-0.4
		c-0.3-0.1-0.4-0.1-0.4,0.3c0.1,1-0.6,1.4-1.4,1.4c-0.6,0-1.2,0.1-1.9,0c-0.4,0-0.7-0.2-0.9-0.5c-1.1-1.8-2-3.6-2.8-5.6
		C2.5,34,2,31.8,1.8,29.6c-0.1-0.6-0.1-1.3-0.1-1.9c0-0.1,0-0.3,0-0.4C1.6,27.2,1.6,27.1,1.6,27z"/>
	<path class="st0" d="M28.7,4.4c1.5,0.6,2.6,1.7,3.9,2.7c3.8,2.8,7.5,5.7,11.2,8.6c0.7,0.5,1.3,1,2,1.5c0.9,0.7,1.1,1.6,0.6,2.4
		c-0.5,0.8-1.6,1.2-2.6,0.8c-0.1-0.1-0.3-0.1-0.4-0.2c-0.1,0.2,0,0.3,0,0.5c0,3.4,0,6.7,0,10.1c0,0.5-0.1,0.7-0.6,0.8
		c-0.6,0.2-1.2,0.5-1.8,0.7c-0.2,0-0.2-0.1-0.2-0.3c0-0.4,0-0.8,0-1.1c0-4,0-8.1,0-12.1c0-0.1,0-0.3,0-0.3c0,0.8,0,1.6,0,2.5
		c0,3.7,0,7.3,0,11c0,0.1,0,0.3,0,0.4c-0.1-0.1,0-0.3,0-0.5c0-4.4,0-8.8,0-13.1c0-0.4-0.1-0.6-0.4-0.9C36.5,15,32.7,12.2,29,9.3
		c-0.6-0.4-0.8-0.4-1.3,0c-3.8,2.9-7.7,5.9-11.5,8.8c-0.2,0.2-0.3,0.4-0.3,0.6c0,2.5,0,5.1,0,7.6c0,0.4-0.1,0.5-0.5,0.4
		c-0.6,0-1.2,0-1.8,0c-0.4,0-0.4-0.1-0.4-0.5c0-1.9,0-3.7,0-5.6c0-0.4-0.1-0.4-0.4-0.3C11.6,21,10.1,20.2,10,19
		c-0.1-0.7,0.2-1.2,0.7-1.6c1.3-1,2.5-2,3.8-2.9c0.6-0.4,0.9-0.9,0.8-1.7c0-1.4,0-2.9,0-4.3c0-0.8,0.3-1,1-1c0.9,0,1.9,0,2.8,0
		c0.6,0,0.9,0.3,0.9,0.9c0,0.5,0,0.9,0,1.4c0,0.1-0.1,0.2,0.1,0.3c0.1,0.1,0.2-0.1,0.3-0.1c2-1.5,4-3,6-4.6c0.5-0.4,1-0.6,1.5-0.8
		C28.2,4.4,28.4,4.4,28.7,4.4z"/>
	<path class="st0" d="M27.3,18.7c0,0.3,0,0.7,0,1c0,0.2,0,0.3-0.3,0.3c-0.7,0-1.5,0-2.2,0c-0.2,0-0.3-0.1-0.3-0.3c0-0.6,0-1.1,0-1.7
		c0-0.5,0.3-0.8,0.8-0.8c0.6,0,1.1,0,1.7,0c0.2,0,0.3,0.1,0.3,0.3C27.3,18,27.3,18.4,27.3,18.7z"/>
	<path class="st0" d="M26,21.7c0.4,0,0.7,0,1.1,0c0.2,0,0.3,0,0.3,0.3c0,0.7,0,1.5,0,2.2c0,0.2-0.1,0.3-0.2,0.3c-0.6,0-1.2,0-1.7,0
		c-0.4,0-0.7-0.3-0.7-0.7c0-0.6,0-1.2,0-1.7c0-0.2,0.1-0.2,0.3-0.2C25.3,21.7,25.6,21.7,26,21.7z"/>
	<path class="st0" d="M29.3,18.7c0-0.3,0-0.7,0-1c0-0.2,0.1-0.3,0.3-0.3c0.5,0,1.1,0,1.6,0c0.5,0,0.8,0.3,0.8,0.8c0,0.6,0,1.1,0,1.7
		c0,0.2-0.1,0.3-0.2,0.2c-0.7,0-1.5,0-2.2,0c-0.2,0-0.3-0.1-0.3-0.3C29.3,19.4,29.3,19,29.3,18.7z"/>
	<path class="st0" d="M29.3,23c0-0.4,0-0.7,0-1.1c0-0.2,0.1-0.2,0.2-0.2c0.7,0,1.5,0,2.2,0c0.2,0,0.3,0.1,0.3,0.3c0,0.5,0,1.1,0,1.6
		c0,0.6-0.3,0.8-0.9,0.8c-0.5,0-1,0-1.5,0c-0.3,0-0.4-0.1-0.4-0.4C29.3,23.7,29.3,23.3,29.3,23z"/>
	<path class="st0" d="M40.8,32.4c0-4.4,0-8.7,0-13.1c0-0.3,0-0.6,0.1-1c0,0.1,0,0.3,0,0.4c0,4.4,0,8.8,0,13.2c0,0.2-0.1,0.4,0.1,0.5
		C40.9,32.4,40.9,32.5,40.8,32.4z"/>
</g>
</svg>
