<svg id="Layer_1" data-name="Layer 1" xmlns="http://www.w3.org/2000/svg" viewBox="0 0 50 50"><defs><style>.cls-1{fill:#00b2ce;}</style></defs><path class="cls-1" d="M46.26,35.55c0,2.55,0,5.1,0,7.65a2.17,2.17,0,0,1-1.51,2.25,15.49,15.49,0,0,1-6.56.94,28.84,28.84,0,0,1-5.11-.92A2.25,2.25,0,0,1,31.33,43c0-5,0-10,0-15,0-1.64.29-2.13,1.85-2.62a17.73,17.73,0,0,1,11.29.06c1.68.57,1.94,1.11,1.93,2.9,0,2.41,0,4.81,0,7.22ZM45,27.19c-1.4-2.05-11.21-2.14-12.39,0C34.57,29.23,43.2,29.22,45,27.19Zm0,4.35a20.31,20.31,0,0,1-12.34,0c-.34,1,.05,1.6.93,1.81a27.33,27.33,0,0,0,3.77.75,15.82,15.82,0,0,0,6.69-.76C44.83,33.1,45.47,32.66,45,31.54Zm-.06-2.69a20.75,20.75,0,0,1-12.26,0c-.36.82-.26,1.43.57,1.64a29.9,29.9,0,0,0,4.36.91,15.13,15.13,0,0,0,6.56-.82A1.14,1.14,0,0,0,44.94,28.85Zm0,5.53a19.8,19.8,0,0,1-12.41,0,1.23,1.23,0,0,0,.82,1.8,16.41,16.41,0,0,0,10.85-.06A1.17,1.17,0,0,0,44.94,34.38ZM32.68,42.64c-.39,1.14.21,1.58,1,1.86a17.89,17.89,0,0,0,7.66.53,15.33,15.33,0,0,0,3-.75c.79-.26,1.06-.84.66-1.75A19.19,19.19,0,0,1,32.68,42.64Zm12.1-2.72a20.13,20.13,0,0,1-12.24-.08c-.22,1.19-.16,1.42.86,1.76a16.63,16.63,0,0,0,10.66-.11C44.76,41.26,45.08,40.8,44.78,39.92ZM32.55,37.1a1.14,1.14,0,0,0,.79,1.75,16.69,16.69,0,0,0,10.77-.12c.74-.25.94-.75.67-1.54A20.11,20.11,0,0,1,32.55,37.1Z"/><path class="cls-1" d="M21.63,35.3l-.08-1.15c-.24,0-.43.06-.62.11a4.22,4.22,0,0,1-5.15-1.87,1.22,1.22,0,0,1,.15-1.12c1.39-1.48,3.25-1.58,5.54-.41.64-.77,1.24-1.56,1.9-2.3a4.15,4.15,0,0,1,5.83-.36c.57.49.76,1,.12,1.56s-1,1.15-1.6,1.66c-1.2,1-2,1.12-4.89.63,0,1,0,2,0,3,0,.18.5.41.8.48,1.48.36,3,.61,4.45,1a2,2,0,0,1,1.56,2.29c-.08,1.46-.06,2.94,0,4.4a1.81,1.81,0,0,1-1.23,2,18.75,18.75,0,0,1-4.12,1.05,22.74,22.74,0,0,1-7-.44c-1-.23-2.18.22-3.27.35a18.84,18.84,0,0,1-8.57-.69c-1.53-.52-1.79-.94-1.79-2.52V42.2c0-2.28.26-2.69,2.44-3.32a16.94,16.94,0,0,1,7.15-.52c.78.11,1.44.27,1.74-.84a2.25,2.25,0,0,1,1.39-1.14,36.29,36.29,0,0,1,3.74-.88C20.62,35.41,21.07,35.37,21.63,35.3Zm6.82,3c-1.8-2.12-10.89-2.06-12.39.07C18.16,40.24,26.49,40.19,28.45,38.26ZM4.62,41a6.94,6.94,0,0,0,1,.61,18.22,18.22,0,0,0,8.36.66c.75-.07.76-.58.73-1.13s.16-1.22-.72-1.38a15.82,15.82,0,0,0-8.54.68A4.22,4.22,0,0,0,4.62,41ZM16,42.71c-.47,1,.06,1.49.82,1.74a16.64,16.64,0,0,0,10.84,0c.88-.29,1.07-.87.75-1.75A20.92,20.92,0,0,1,16,42.71Zm0-2.83c-.31,1,.06,1.57.79,1.73a31.75,31.75,0,0,0,4.9.83,12.38,12.38,0,0,0,5.94-.88,1.2,1.2,0,0,0,.68-1.79A19.28,19.28,0,0,1,16,39.88ZM4.9,43c-.27.82.28,1.24,1.11,1.5a21,21,0,0,0,7.77.6A7.28,7.28,0,0,0,15,44.77c-.31-1.5-.31-1.5-1.67-1.28a5.2,5.2,0,0,1-1,.07ZM28.21,29.07c-1.83-1.33-3.8-.71-5,1.56C24.93,31.92,26.7,31.4,28.21,29.07ZM16.9,31.81a2.84,2.84,0,0,0,3.76,1.29c.59-.27.71-.56.22-1.07A2.93,2.93,0,0,0,16.9,31.81Z"/><path class="cls-1" d="M25.72,19.61l-6.56,6.52c-2.15,2.15-4.32,4.28-6.45,6.45-.65.66-1.2.71-1.84,0A21.65,21.65,0,0,0,9,30.74c-.71-.61-.62-1.07,0-1.69,2.84-2.79,5.65-5.62,8.47-8.43q3.59-3.6,7.19-7.19c.86-.86,1.06-.86,2,0s1.74,1.72,2.59,2.59a.68.68,0,0,0,1.15,0q4.54-4.56,9.12-9.11c.49-.48.29-.77-.08-1.21s-1.09-1.24-1-1.66c.27-.87,1.19-.29,1.83-.3,1.65,0,3.29,0,4.93,0,.74,0,1.07.2,1.05,1,0,2,0,4.06,0,6.08a2.9,2.9,0,0,1-.4,1,4.42,4.42,0,0,1-.86-.47c-1.43-1.33-1.41-1.33-2.77,0C38.41,15.19,34.59,19,30.8,22.8c-.72.73-1.25.83-2,0C27.86,21.73,26.8,20.72,25.72,19.61ZM10,30c.16.17.39.42.64.67,1.07,1.05,1.07,1.05,2.1,0L24.56,18.94c.32-.31.67-.59,1.13-1,1.07,1.12,2.08,2.18,3.1,3.23s.93.93,1.88,0Q36.31,15.43,42,9.74c1.4-1.41,1.4-1.41,3-.29,0,0,.06,0,.1,0s.12-.1.12-.15c0-.8.06-1.6.06-2.4,0-1.86,0-1.89-1.86-2-.94-.06-1.89,0-2.95,0,1.17,1.63,1.17,1.63-.13,2.93l-9.5,9.48c-1,.95-1.08,1-2,0s-2-2.08-3.12-3.18Z"/><path class="cls-1" d="M11.68,20.06a8,8,0,0,1-8.1-8.12A8.2,8.2,0,0,1,20,12,8.18,8.18,0,0,1,11.68,20.06Zm7.19-8.17a7.2,7.2,0,0,0-7-7.13,7.15,7.15,0,0,0-7,6.94,7,7,0,1,0,14,.19Z"/><path class="cls-1" d="M11.76,9.65A11.88,11.88,0,0,0,10.2,9a8.7,8.7,0,0,0-1.15-.05,2.66,2.66,0,0,1-.65-.33c.21-.18.41-.5.61-.5,2,0,4.05,0,6.08,0-.06.48-.06.48-2.16,1.06.38,1.11,1.34,1,2.35,1.05-.2.28-.33.62-.45.62-.9,0-1.1.78-1.61,1.23a14.14,14.14,0,0,1-2.53,1.47l3.13,2.87c-1.34.25-2.2.16-2.9-.75-.57-.74-1.32-1.34-1.94-2a1.47,1.47,0,0,1-.31-1c0-.15.53-.29.83-.34,1-.16,2-.14,2.58-1.56H8.47l0-.45c.49,0,1-.08,1.48-.09h1.66Z"/></svg>