<?xml version="1.0" encoding="utf-8"?>
<!-- Generator: Adobe Illustrator 26.0.1, SVG Export Plug-In . SVG Version: 6.00 Build 0)  -->
<svg version="1.1" id="Layer_1" xmlns="http://www.w3.org/2000/svg" xmlns:xlink="http://www.w3.org/1999/xlink" x="0px" y="0px"
	 viewBox="0 0 50 50" style="enable-background:new 0 0 50 50;" xml:space="preserve">
<style type="text/css">
	.st0{fill:#00B2CE;}
	.st1{fill:#313C48;}
	.st2{fill:#FEFEFE;}
	.st3{fill:#F2F5F5;}
	.st4{fill:#F1F5F6;}
	.st5{fill:#F7F8FA;}
</style>
<g>
	<path class="st0" d="M27.8,23.9L27.8,23.9C27.8,24,27.8,24,27.8,23.9C27.8,24,27.8,24,27.8,23.9L27.8,23.9
		C27.7,23.9,27.7,23.9,27.8,23.9L27.8,23.9z"/>
	<path class="st1" d="M37.6,32c-0.3,0.6-1,0.3-1.6,0.3c-7.1,0-14.3,0-21.4,0c-0.7,0-1.5,0.1-0.7-1c1.1-0.7,2.2-1,3.5-0.7
		c1.6,0.4,3.1,0.3,4.5-0.3c1.7-0.7,3.4-0.7,5.1,0c2.3,0.9,4.5,1,6.7,0c1.1-0.5,2.1-0.4,3.1,0.3C37,31.1,37.9,31.4,37.6,32z"/>
	<path class="st0" d="M38,25.7c-0.4,1.2-0.7,2.5-1.4,3.5c-1.3-0.4-2.6,0-3.9,0.4c-1.7,0.6-3.4,0.5-5.1-0.1c-2.1-0.9-4.3-0.9-6.4,0
		c-0.9,0.4-2,0.6-3,0.3c-1.1-0.3-2.2-0.3-3.3-0.2c-1.3-2.1-2.1-4.4-3.1-6.7c-0.3-0.6,0.2-1,0.8-1c2.4,0,4.8,0,7.2,0
		c0.7,0,0.9,0.6,1,1.2c0.3,1.3,1,1.6,2.3,1.6c4.4-0.1,8.8,0,13.2,0c0.4,0,0.8-0.2,1.2,0.1c0.1,0,0.1,0,0.2,0.1
		C38,25.1,38.1,25.5,38,25.7z"/>
	<path class="st0" d="M44,8c-3.7-0.4-7.4-1.2-10.9-2.5c-2.7-1-5.4-1.9-7.9-3.4h-0.5c-0.2,0.3-0.5,0.3-0.7,0.5C18.3,5.3,12.3,7.3,6,8
		c-1.3,0.1-1.7,0.6-1.6,2c0.1,3.1,0.2,6.1,0.3,9.2c0.2,3.9,0.3,7.8,1.5,11.6c2.6,7.8,8.1,12.9,15.5,16.3c2.4,1.1,4.5,1.1,6.9-0.1
		c9-4.3,14.7-10.9,16.2-21c0.8-5.4,0.6-10.9,0.8-16.4C45.6,8.6,45.1,8.1,44,8z M40.5,27.9c-2,7.9-7.2,12.9-14.8,15.5
		c-0.3,0.1-0.6,0.1-1,0c-7.5-2.5-12.9-7.2-15-15.1c-0.9-3.5-0.8-7.1-1.1-10.6c0-1.6,0-3.3,0-4.9c0-0.7,0.1-1.1,0.9-1.2
		c5.1-0.4,9.8-2.2,14.4-4.4c0.9-0.4,1.6-0.4,2.4,0c4.6,2.2,9.3,3.9,14.4,4.4c0.6,0.1,1,0.3,0.9,0.9C41.3,17.7,41.7,22.9,40.5,27.9z"
		/>
	<path class="st0" d="M27.8,23.9L27.8,23.9C27.8,24,27.8,24,27.8,23.9C27.8,24,27.8,24,27.8,23.9L27.8,23.9
		C27.7,23.9,27.7,23.9,27.8,23.9L27.8,23.9z"/>
	<path class="st2" d="M37.6,32c-0.3,0.6-1,0.3-1.6,0.3c-7.1,0-14.3,0-21.4,0c-0.7,0-1.5,0.1-0.7-1c1.1-0.7,2.2-1,3.5-0.7
		c1.6,0.4,3.1,0.3,4.5-0.3c1.7-0.7,3.4-0.7,5.1,0c2.3,0.9,4.5,1,6.7,0c1.1-0.5,2.1-0.4,3.1,0.3C37,31.1,37.9,31.4,37.6,32z"/>
	<path class="st0" d="M38,25.7c-0.4,1.2-0.7,2.5-1.4,3.5c-1.3-0.4-2.6,0-3.9,0.4c-1.7,0.6-3.4,0.5-5.1-0.1c-2.1-0.9-4.3-0.9-6.4,0
		c-0.9,0.4-2,0.6-3,0.3c-1.1-0.3-2.2-0.3-3.3-0.2c-1.3-2.1-2.1-4.4-3.1-6.7c-0.3-0.6,0.2-1,0.8-1c2.4,0,4.8,0,7.2,0
		c0.7,0,0.9,0.6,1,1.2c0.3,1.3,1,1.6,2.3,1.6c4.4-0.1,8.8,0,13.2,0c0.4,0,0.8-0.2,1.2,0.1c0.1,0,0.1,0,0.2,0.1
		C38,25.1,38.1,25.5,38,25.7z"/>
	<path class="st0" d="M37.7,25c-0.1,0-0.2,0-0.3,0c0.1,0,0.1-0.1,0.2-0.1c-0.4-0.3-0.8-0.1-1.2-0.1c-4.4,0-8.8-0.1-13.2,0
		c-1.3,0-2-0.3-2.3-1.6c-0.1-0.5-0.3-1.2-1-1.2c-2.4,0-4.8,0-7.2,0c-0.6,0-1.1,0.4-0.8,1c1,2.2,1.8,4.6,3.1,6.7
		c1.1-0.1,2.2-0.1,3.3,0.2c1,0.3,2.1,0.1,3-0.3c2.1-1,4.2-0.9,6.4,0c1.7,0.7,3.4,0.8,5.1,0.1c1.3-0.5,2.5-0.8,3.9-0.4
		c0.7-1.1,1-2.3,1.4-3.5C38.1,25.5,38,25.1,37.7,25z M22.6,25.1c0,0,0.1-0.1,0.2-0.1h0.7C23.2,25,22.9,25.1,22.6,25.1
		C22.6,25.1,22.6,25.1,22.6,25.1z M24.6,25h2.2c-0.4,0-0.7,0-1.1,0C25.3,25,25,25,24.6,25z M29.1,25c2.1,0,4.3,0,6.5,0
		C33.5,25.1,31.3,25,29.1,25z"/>
	<path class="st0" d="M37.6,32c-0.3,0.6-1,0.3-1.6,0.3c-7.1,0-14.3,0-21.4,0c-0.7,0-1.5,0.1-0.7-1c1.1-0.7,2.2-1,3.5-0.7
		c1.6,0.4,3.1,0.3,4.5-0.3c1.7-0.7,3.4-0.7,5.1,0c2.3,0.9,4.5,1,6.7,0c1.1-0.5,2.1-0.4,3.1,0.3C37,31.1,37.9,31.4,37.6,32z"/>
	<path class="st0" d="M28.1,18.5c0,0.5-0.4,0.5-0.7,0.5c-1.2,0-2.3,0-3.5,0c0-1.2,0-2.4-0.1-3.6c0-0.7,0.3-0.9,0.9-0.9
		c1.1,0,2.1,0,3.2,0C28.4,15.8,28,17.2,28.1,18.5z"/>
	<path class="st0" d="M27.8,24L27.8,24C27.7,23.9,27.7,23.9,27.8,24L27.8,24C27.8,24,27.8,24,27.8,24z"/>
	<polygon class="st0" points="27.8,23.9 27.8,23.9 27.7,23.9 27.7,23.9 	"/>
	<path class="st0" d="M32,19.6c0,1.5,0,2.9,0,4.4c-1.4,0-2.8,0.1-4.3-0.1c0-1.2,0-2.3,0-3.5c0-0.7,0.2-0.9,0.9-0.9
		C29.8,19.6,30.9,19.6,32,19.6z"/>
	<path class="st0" d="M24,19.7c0,1.4,0,2.9,0,4.3c-1.3,0.3-2.3-0.1-2.5-1.6c-0.1-0.4-0.4-0.9-0.8-0.9c-1.1-0.2-1.1-0.9-1-1.8
		C21.2,19.5,22.6,19.5,24,19.7z"/>
	<path class="st0" d="M27.8,23.9L27.8,23.9C27.8,24,27.8,24,27.8,23.9C27.8,24,27.8,24,27.8,23.9L27.8,23.9
		C27.7,23.9,27.7,23.9,27.8,23.9L27.8,23.9z"/>
	<path class="st0" d="M30.9,16.7c0,0.7,0,1.5,0,2.2c-2.3,0.1-2.3,0.1-2.3-2.1c0-0.8,0.1-1.6,0.1-2.3C30.9,14.5,30.9,14.5,30.9,16.7z
		"/>
	<path class="st0" d="M34.9,20.7c-0.1,0.8-0.1,1.7,0,2.5c0,0.7-0.2,0.8-0.8,0.8c-1.5,0-1.5,0-1.5-1.4c0-0.3,0-0.6,0-0.9
		c0-0.3,0-0.7,0-1c-0.1-1,0.3-1.2,1.2-1.2C34.7,19.5,34.9,19.8,34.9,20.7z"/>
	<path class="st0" d="M27.8,23.9L27.8,23.9C27.8,24,27.8,24,27.8,23.9C27.8,24,27.8,24,27.8,23.9C27.7,23.9,27.7,23.9,27.8,23.9
		C27.7,23.9,27.7,23.9,27.8,23.9L27.8,23.9z"/>
	<path class="st0" d="M26.8,24C26.8,24,26.8,24,26.8,24C26,24,25.3,24,24.6,24c0,0-0.1,0.1-0.1,0.1l0-0.1c0,0,0.1,0,0.1,0
		C25.3,23.5,26,23.6,26.8,24C26.8,24,26.8,24,26.8,24L26.8,24z"/>
	<path class="st3" d="M28.7,26c0.6,0.1,1,0.4,1,1c0,0.6-0.4,1-1,1c-0.6,0-1-0.4-1-1C27.7,26.5,28.1,26.1,28.7,26z"/>
	<path class="st4" d="M25.2,27.1c-0.1,0.6-0.5,1-1.1,1c-0.6,0-1-0.4-0.9-1c0-0.6,0.4-1,1-0.9C24.8,26.1,25.1,26.5,25.2,27.1z"/>
	<path class="st5" d="M34.4,26.9c0,0.7-0.3,1.1-0.9,1.1c-0.6,0-1-0.3-1-1c0-0.6,0.3-1,0.9-1C34,26,34.2,26.4,34.4,26.9z"/>
	<path class="st0" d="M26.8,21.6c0,0.8,0,1.6,0,2.4h0c-0.7,0-1.5,0-2.2,0h0c0-1.3,0-2.7,0-4v-0.3C26.8,19.4,26.8,19.4,26.8,21.6z"/>
</g>
</svg>
