<svg id="Layer_1" data-name="Layer 1" xmlns="http://www.w3.org/2000/svg" viewBox="0 0 50 50"><defs><style>.cls-1,.cls-2{fill:#00b2ce;}.cls-2{stroke:#00b2ce;stroke-miterlimit:10;stroke-width:0.75px;}</style></defs><path d="M37.25,20.15c.62.38.64.73.08,1.39.57.61.55,1-.11,1.41.69.38.69.94,0,1.43a.62.62,0,0,1,.54.62c0,.39-.18.62-.62.77a.66.66,0,0,1,.62.7c0,.37-.25.54-.58.72a.63.63,0,0,1,.58.63.71.71,0,0,1-.45.7c-1.84,1-3.66,2.08-5.5,3.1a1.68,1.68,0,0,1-.82.22H12.17a2.92,2.92,0,0,1-.66-.09.6.6,0,0,1,0-1.16,2.48,2.48,0,0,1,.61-.06H16.6v-.09H12.29a3.92,3.92,0,0,1-.76-.08.56.56,0,0,1-.48-.56.55.55,0,0,1,.44-.6,2.65,2.65,0,0,1,.63-.07H16.6V29H12.27a3.92,3.92,0,0,1-.76-.08.59.59,0,0,1,0-1.15,2.91,2.91,0,0,1,.66-.08h4.45v-.08H12.29a4.78,4.78,0,0,1-.76-.08.59.59,0,0,1,0-1.16,4.17,4.17,0,0,1,.7-.08H16.6v-.09h-.32c-1.38,0-2.76,0-4.14,0a2.65,2.65,0,0,1-.63-.08.59.59,0,0,1,0-1.16,7,7,0,0,1,.79-.08H16.6v-.07l-.31,0h-4.2a2.41,2.41,0,0,1-.6-.08.59.59,0,0,1,0-1.14,3,3,0,0,1,.73-.09H16.3a.44.44,0,0,0,.3-.09h-.33c-1.38,0-2.76,0-4.14,0a2.92,2.92,0,0,1-.51,0,.6.6,0,0,1-.22-1.15L13.46,21c1.19-.68,2.38-1.36,3.57-2a1.55,1.55,0,0,1,.69-.19H36.88c.51,0,.72.11.82.44s0,.55-.42.83ZM17.56,30.85c-.06.45,0,.52.39.49.08,0,.14-.09.21-.13A.86.86,0,0,0,18,31a3,3,0,0,0-.41-.17c0-.63,0-1.26,0-1.89,0-1.89,0-3.78,0-5.67a.69.69,0,0,1,.24-.51q2.58-1.51,5.18-3a1,1,0,0,1,.49-.13q2.84,0,5.67,0c.11,0,.22.09.33.13-.07.11-.11.26-.21.32-.29.17-.61.3-.91.47-1.1.61-2.19,1.25-3.29,1.86a.57.57,0,0,0-.34.58c0,2.51,0,5,0,7.54,0,.3-.09.4-.4.4H18.68c-.08,0-.17,0-.22,0s-.21.12-.23.21.06.25.24.23h6.22c.29,0,.38-.08.38-.37,0-1.59,0-3.17,0-4.75a1.47,1.47,0,0,1,.08-.35c.09-.07.19-.19.29-.2s.46.05.7.05h4.93a.87.87,0,0,0,.4-.09l5.65-3.22c.09-.05.14-.2.2-.31-.13,0-.29-.07-.39,0-1.49.82-3,1.64-4.44,2.51a4.27,4.27,0,0,1-2.46.69c-1.63-.06-3.26,0-4.94,0l.06.59a1.53,1.53,0,0,1-.08-.37c0-.66,0-1.32,0-2s.11-.68.68-.67,1.08.06,1.63.06H31a1.27,1.27,0,0,0,.57-.15l3.82-2.17c.11-.06.21-.15.32-.21L37,19.69a2,2,0,0,0,.3-.28c-.13-.07-.26-.19-.38-.19H17.68a.67.67,0,0,0-.34.07q-2.86,1.61-5.71,3.24c-.09.05-.13.2-.19.3.11.05.21.15.31.16.26,0,.51-.06.76-.06,1.45,0,2.89,0,4.33.07A.43.43,0,0,1,17,23s.12.05.12.07a2.17,2.17,0,0,1,0,.72c0,.08-.26.15-.4.15H11.9a.74.74,0,0,0-.26,0c-.08.05-.19.14-.19.21s.11.17.19.21a.65.65,0,0,0,.28,0H16.7a3.88,3.88,0,0,1,.41,0c.16.26-.12.59.23.71-.55.39-1.19.19-1.8.21-1.21,0-2.42,0-3.63,0a.87.87,0,0,0-.28,0c-.08,0-.19.13-.18.18a.33.33,0,0,0,.17.23.84.84,0,0,0,.32,0h5.44c-.29.27-.27.63,0,.75-.57.38-1.22.19-1.84.2-1.2,0-2.4,0-3.59,0a.69.69,0,0,0-.29,0,.34.34,0,0,0-.17.22c0,.05.1.15.18.18a.87.87,0,0,0,.28,0h4.78a3.7,3.7,0,0,1,.48.06v.34c0,.55,0,.55-.55.55H11.9a.65.65,0,0,0-.28,0,.34.34,0,0,0-.17.22c0,.06.1.16.18.19a.87.87,0,0,0,.28,0c1.63,0,3.25,0,4.88,0,.36,0,.39.18.38.46,0,.44,0,.5-.39.5H14.73c-1,0-2,0-3,0-.11,0-.21.15-.31.23a2,2,0,0,0,.31.2c.06,0,.15,0,.22,0h4.78c.12,0,.34,0,.35.08a2.12,2.12,0,0,1,0,.71c0,.07-.23.15-.36.16-1.61,0-3.21,0-4.81,0-.08,0-.17,0-.22,0a1.63,1.63,0,0,0-.29.23,2.78,2.78,0,0,0,.27.21s.08,0,.13,0h5.35l.26,0C17.49,31.18,17.53,31,17.56,30.85Zm.44-.36h.15V23.92h.06v.32c0,2,0,4,0,5.93,0,.33.1.41.42.41,1.77,0,3.53,0,5.29,0h.4v-.43c0-2.4,0-4.79,0-7.19a.85.85,0,0,1,.48-.82c1.17-.65,2.33-1.33,3.49-2-1.57-.06-3.12-.06-4.66-.05a.8.8,0,0,0-.4.11c-1.65.93-3.3,1.88-5,2.81a.44.44,0,0,0-.25.46v7Zm7.13-1.95c.33,0,.65.05,1,.05h5a1.16,1.16,0,0,0,.48-.14L37,25.35a1.1,1.1,0,0,0,.21-.14c0-.06.09-.17.06-.22a.24.24,0,0,0-.21-.1,1.08,1.08,0,0,0-.29.13l-2.48,1.41c-.78.44-1.58.86-2.34,1.34a2.51,2.51,0,0,1-1.44.38c-1,0-2,0-3,0H25.13Zm.67,2.77a.9.9,0,0,0,.29.09c1.64,0,3.27,0,4.91,0a1.38,1.38,0,0,0,.57-.15L37,28.18c.15-.09.45-.15.32-.38s-.35-.05-.52.05l-5,2.81a1.64,1.64,0,0,1-.74.28c-2,0-4,0-6,0,.07.17.1.33.16.34A2.73,2.73,0,0,0,25.8,31.31ZM28.59,30c.83,0,1.66,0,2.5,0a.91.91,0,0,0,.42-.11l5.56-3.16c.11-.07.16-.23.24-.34h-.43c-.05,0-.09.05-.14.08l-5,2.82a1.92,1.92,0,0,1-1,.27c-1.53,0-3.05,0-4.58,0-.17,0-.39-.08-.39.23s.22.21.37.21C27,30,27.77,30,28.59,30Zm-3.48-2.85c.36,0,.67,0,1,0,1.66,0,3.31,0,5,0a1,1,0,0,0,.48-.13L37,23.94a.69.69,0,0,0,.19-.12c.05-.07.11-.2.08-.24a.35.35,0,0,0-.25-.09.67.67,0,0,0-.25.13L34,25.22c-.68.38-1.36.75-2,1.16a2,2,0,0,1-1,.36c-1.95,0-3.91,0-5.89,0V27S25.11,27.11,25.11,27.14ZM25.82,24c-.06.39-.05.41.31.41h4.94a.87.87,0,0,0,.42-.1L37,21.14a.81.81,0,0,0,.18-.12.74.74,0,0,0,.11-.24A.79.79,0,0,0,37,20.7c-.08,0-.15.07-.23.11l-3.23,1.83c-.58.32-1.15.66-1.77,1H32C30,24.17,27.88,23.81,25.82,24Zm-.17-.56v0h5.48v0Zm5.48,4.28v-.05H25.65v.05Zm0-2.82v-.05H25.65v.05Zm0,1.41v0H25.65v0Zm0,2.82v-.05H25.65v.05Zm-.06,1.4v-.05H25.82v.05ZM25.12,30a3.36,3.36,0,0,0,.45,0c.06,0,.16-.11.15-.15a.25.25,0,0,0-.16-.17,2.12,2.12,0,0,0-.44-.05Zm0-5.58a3.83,3.83,0,0,0,.41-.05.65.65,0,0,0,.2-.17c-.07-.06-.13-.14-.21-.16a1.74,1.74,0,0,0-.4,0Z"/><path class="cls-1" d="M25.15,25.94a1.47,1.47,0,0,0-.08.35c0,1.58,0,3.16,0,4.75,0,.29-.09.37-.38.37H18.47c-.18,0-.29,0-.24-.23s.13-.16.23-.21.14,0,.22,0h5.61c.31,0,.4-.1.4-.4,0-2.52,0-5,0-7.54a.57.57,0,0,1,.34-.58c1.1-.61,2.19-1.25,3.29-1.86.3-.17.62-.3.91-.47.1-.06.14-.21.21-.32-.11,0-.22-.13-.33-.13q-2.84,0-5.67,0a1,1,0,0,0-.49.13q-2.6,1.49-5.18,3a.69.69,0,0,0-.24.51c0,1.89,0,3.78,0,5.67,0,.63,0,1.26,0,1.89h0l-.11.53-.26,0H11.84c-.05,0-.1,0-.13,0a2.78,2.78,0,0,1-.27-.21,1.63,1.63,0,0,1,.29-.23s.14,0,.22,0c1.6,0,3.2,0,4.81,0,.13,0,.35-.09.36-.16a2.12,2.12,0,0,0,0-.71s-.23-.08-.35-.08H12c-.07,0-.16,0-.22,0a2,2,0,0,1-.31-.2c.1-.08.2-.23.31-.23,1,0,2,0,3,0h2.05c.35,0,.38-.06.39-.5,0-.28,0-.47-.38-.46-1.63,0-3.25,0-4.88,0a.87.87,0,0,1-.28,0c-.08,0-.19-.13-.18-.19a.34.34,0,0,1,.17-.22.65.65,0,0,1,.28,0h4.72c.54,0,.55,0,.55-.55v-.34a3.7,3.7,0,0,0-.48-.06H11.91a.87.87,0,0,1-.28,0c-.08,0-.19-.13-.18-.18a.34.34,0,0,1,.17-.22.69.69,0,0,1,.29,0c1.19,0,2.39,0,3.59,0,.62,0,1.27.18,1.84-.2-.23-.12-.25-.48,0-.75H11.94a.84.84,0,0,1-.32,0,.33.33,0,0,1-.17-.23c0-.05.1-.15.18-.18a.87.87,0,0,1,.28,0c1.21,0,2.42,0,3.63,0,.61,0,1.25.18,1.8-.21-.35-.12-.07-.45-.23-.71a3.88,3.88,0,0,0-.41,0H11.92a.65.65,0,0,1-.28,0c-.08,0-.19-.14-.19-.21s.11-.16.19-.21a.74.74,0,0,1,.26,0h4.81c.14,0,.39-.07.4-.15a2.17,2.17,0,0,0,0-.72S17,23,17,23a.43.43,0,0,0-.16,0c-1.44,0-2.88-.06-4.33-.07-.25,0-.5.06-.76.06-.1,0-.2-.11-.31-.16.06-.1.1-.25.19-.3q2.85-1.64,5.71-3.24a.67.67,0,0,1,.34-.07H37c.12,0,.25.12.38.19a2,2,0,0,1-.3.28l-1.33.76c-.11.06-.21.15-.32.21l-3.82,2.17A1.27,1.27,0,0,1,31,23H27.38c-.55,0-1.09-.05-1.63-.06s-.68.1-.68.67,0,1.32,0,2a1.53,1.53,0,0,0,.08.37Zm4.3-3.45v.05H31a.66.66,0,0,0,.34-.06c1.42-.78,2.84-1.56,4.25-2.36.1-.05.15-.2.22-.31a1,1,0,0,0-.35-.14c-1.47,0-3,0-4.42,0a1,1,0,0,0-.52.14c-.67.39-1.33.8-2,1.19s-1.34.75-2,1.15c-.08.05-.12.19-.17.29a.82.82,0,0,0,.28.14,6.79,6.79,0,0,0,.9.05C28.13,22.59,28.79,22.54,29.45,22.49Zm-9.77-2.84H17.82a.79.79,0,0,0-.37.07q-2.12,1.18-4.23,2.4c-.09.05-.12.2-.18.3a1.06,1.06,0,0,0,.31.14c.49,0,1,0,1.47,0h2.24a.74.74,0,0,0,.34-.06l4.26-2.36c.09-.06.14-.21.21-.32a.91.91,0,0,0-.33-.13Z"/><path class="cls-1" d="M18,30.49v-7a.44.44,0,0,1,.25-.46c1.66-.93,3.31-1.88,5-2.81a.8.8,0,0,1,.4-.11c1.54,0,3.09,0,4.66.05-1.16.67-2.32,1.35-3.49,2a.85.85,0,0,0-.48.82c0,2.4,0,4.79,0,7.19v.43h-.4c-1.76,0-3.52,0-5.29,0-.32,0-.42-.08-.42-.41,0-2,0-4,0-5.93v-.32h-.06V30.5Zm2.67-6.11-.17,0a1.63,1.63,0,0,0-1.33,1c-.34.93.31,1.49,1.19,1.76a15.18,15.18,0,0,0,1.63.33c.24.05.46.2.44.42s-.23.36-.4.44a1.65,1.65,0,0,1-2.19-.69.61.61,0,0,0-.75-.18c-.29.14-.19.36-.11.57a2.27,2.27,0,0,0,1.44,1.27c.08,0,.2.08.22.15.08.28.28.34.54.35a.94.94,0,0,1,.33.14c.14-.29.25-.64.73-.76a2.3,2.3,0,0,0,1-.6,1.17,1.17,0,0,0-.39-1.79,14,14,0,0,0-1.44-.42,9.25,9.25,0,0,1-1.06-.31.38.38,0,0,1,0-.66,1.6,1.6,0,0,1,2,.4.72.72,0,0,0,.67.39.3.3,0,0,0,.34-.42,1.76,1.76,0,0,0-1-1.21,6,6,0,0,0-.64-.21c0-.31-.11-.49-.45-.47S20.75,24,20.67,24.38Z"/><path class="cls-1" d="M25.15,25.94l-.06-.59c1.68,0,3.31-.05,4.94,0a4.27,4.27,0,0,0,2.46-.69C34,23.8,35.44,23,36.93,22.16c.1-.06.26,0,.39,0-.06.11-.11.26-.2.31L31.47,25.7a.87.87,0,0,1-.4.09H26.14c-.24,0-.47-.06-.7-.05s-.2.13-.29.2Z"/><path class="cls-1" d="M25.13,28.54v-.4h2.41c1,0,2,0,3,0A2.51,2.51,0,0,0,32,27.77c.76-.48,1.56-.9,2.34-1.34L36.81,25a1.08,1.08,0,0,1,.29-.13.24.24,0,0,1,.21.1c0,.05,0,.16-.06.22a1.1,1.1,0,0,1-.21.14l-5.49,3.1a1.16,1.16,0,0,1-.48.14h-5C25.78,28.59,25.46,28.56,25.13,28.54Z"/><path class="cls-1" d="M25.8,31.31a2.73,2.73,0,0,1-.59,0c-.06,0-.09-.17-.16-.34,2.06,0,4,0,6,0a1.64,1.64,0,0,0,.74-.28l5-2.81c.17-.1.39-.29.52-.05s-.17.29-.32.38l-5.41,3.07a1.38,1.38,0,0,1-.57.15c-1.64,0-3.27,0-4.91,0A.9.9,0,0,1,25.8,31.31Z"/><path class="cls-1" d="M28.59,30c-.82,0-1.63,0-2.44,0-.15,0-.36.09-.37-.21s.22-.23.39-.23c1.53,0,3,0,4.58,0a1.92,1.92,0,0,0,1-.27l5-2.82s.09-.08.14-.08h.43c-.08.11-.13.27-.24.34l-5.56,3.16a.91.91,0,0,1-.42.11C30.25,30,29.42,30,28.59,30Z"/><path class="cls-1" d="M25.11,27.14s0-.08,0-.13v-.26c2,0,3.94,0,5.89,0a2,2,0,0,0,1-.36c.67-.41,1.35-.78,2-1.16l2.82-1.6a.67.67,0,0,1,.25-.13.35.35,0,0,1,.25.09s0,.17-.08.24a.69.69,0,0,1-.19.12l-5.49,3.11a1,1,0,0,1-.48.13c-1.66,0-3.31,0-5,0C25.78,27.18,25.47,27.16,25.11,27.14Z"/><path class="cls-1" d="M25.82,24c2.06-.17,4.13.19,6.15-.31h-.16c.62-.36,1.19-.7,1.77-1l3.23-1.83c.08,0,.15-.11.23-.11a.79.79,0,0,1,.29.08.74.74,0,0,1-.11.24.81.81,0,0,1-.18.12l-5.55,3.14a.87.87,0,0,1-.42.1H26.13C25.77,24.39,25.76,24.37,25.82,24Z"/><path class="cls-1" d="M25.65,23.42h5.49v0H25.66Z"/><path class="cls-1" d="M31.13,27.7H25.65v-.05h5.47Z"/><path class="cls-1" d="M31.13,24.88H25.65v-.05h5.48Z"/><path class="cls-1" d="M31.13,26.29H25.65v0h5.48Z"/><path class="cls-1" d="M31.12,29.11H25.65v-.05h5.48Z"/><path class="cls-1" d="M31.06,30.51H25.82v-.05h5.25Z"/><path class="cls-2" d="M36,37.27c-.06-.81-.11-1.62-.16-2.43a.54.54,0,0,1,.26-.6.46.46,0,0,1,.67.39l.15,2.94c0,.34,0,.68.08,1s.16.35.45.22a.39.39,0,0,0,.24-.29,1.17,1.17,0,0,1,.31-.4,19.59,19.59,0,0,0,3.53-4.9,18.35,18.35,0,0,0,.75-14.66A18.31,18.31,0,0,0,28.71,6.85a18.29,18.29,0,0,0-6.43-.19c-.38.06-.59-.06-.63-.35s.16-.51.55-.57A19.11,19.11,0,0,1,40.93,14a18.69,18.69,0,0,1,3.22,8.25A19,19,0,0,1,40,37.18c-.42.53-.89,1-1.34,1.55a.79.79,0,0,0-.14.18c0,.11-.12.26-.08.34a.38.38,0,0,0,.32.12c.81,0,1.62-.12,2.42-.18l.68,0a.46.46,0,0,1,.52.37.49.49,0,0,1-.49.52q-1.23.1-2.46.18c-.91.06-1.81.11-2.72.15-.45,0-.55-.07-.58-.54C36.1,39,36.05,38.12,36,37.27Z"/><path class="cls-2" d="M13.52,15.49l0,.24-.09,0a1.17,1.17,0,0,1-.22-.43c-.07-1.11-.12-2.22-.17-3.33a4.34,4.34,0,0,0-.06-.63c0-.11-.11-.27-.19-.29s-.23.07-.32.15c-.25.26-.5.53-.73.8-.52.61-1,1.24-1.56,1.84-.09.1-.27.13-.42.21.16.15.06.29-.07.48a17.49,17.49,0,0,0-3.09,8.15A18.51,18.51,0,0,0,10,35.89a16.64,16.64,0,0,0,3.88,3.93A18.57,18.57,0,0,0,27,43.35c.27,0,.53-.07.8-.09a.46.46,0,0,1,.52.37.52.52,0,0,1-.46.52,19.93,19.93,0,0,1-4.63.14A19.09,19.09,0,0,1,9.8,37.07a19.41,19.41,0,0,1-4-8.78,19.15,19.15,0,0,1,2-12.43,21.55,21.55,0,0,1,3-4.22c.18-.2.38-.37.55-.58a.42.42,0,0,0,.06-.34c0-.07-.19-.13-.29-.12l-2.5.15-.6,0c-.3,0-.48-.12-.5-.39A.47.47,0,0,1,8,9.89l1.47-.1,3.71-.23c.47,0,.58.12.6.59,0,.78.09,1.55.14,2.33s.11,1.86.16,2.79a.68.68,0,0,1-.11.34.27.27,0,0,1-.25.1C13.61,15.67,13.56,15.55,13.52,15.49Z"/><path d="M29.45,22.49c-.66.05-1.32.1-2,.13a6.79,6.79,0,0,1-.9-.05.82.82,0,0,1-.28-.14c.05-.1.09-.24.17-.29.66-.4,1.34-.76,2-1.15s1.34-.8,2-1.19a1,1,0,0,1,.52-.14c1.47,0,3,0,4.42,0a1,1,0,0,1,.35.14c-.07.11-.12.26-.22.31-1.41.8-2.83,1.58-4.25,2.36a.66.66,0,0,1-.34.06H29.45Zm-2-.43c.48,0,.9.08,1.31.09.69,0,1.39,0,2.08,0a.88.88,0,0,0,.42-.11c.83-.46,1.66-.93,2.48-1.41.28-.16.54-.35.86-.56h-3.5a.54.54,0,0,0-.28.08Z"/><path d="M19.68,19.65h1.86a.91.91,0,0,1,.33.13c-.07.11-.12.26-.21.32L17.4,22.47a.74.74,0,0,1-.34.06H14.82c-.49,0-1,0-1.47,0a1.06,1.06,0,0,1-.31-.14c.06-.1.09-.25.18-.3q2.12-1.21,4.23-2.4a.79.79,0,0,1,.37-.07ZM14.28,22l0,.08,2.8,0a.52.52,0,0,0,.26-.1c.84-.47,1.68-.94,2.51-1.42.28-.16.53-.36.84-.56-.78,0-1.49,0-2.21,0a2.33,2.33,0,0,0-1.45.38c-.37.26-.78.45-1.17.67Z"/><path d="M20.67,24.38c.08-.43.15-.47.56-.48s.46.16.45.47a6,6,0,0,1,.64.21,1.76,1.76,0,0,1,1,1.21.3.3,0,0,1-.34.42.72.72,0,0,1-.67-.39,1.6,1.6,0,0,0-2-.4.38.38,0,0,0,0,.66,9.25,9.25,0,0,0,1.06.31,14,14,0,0,1,1.44.42,1.17,1.17,0,0,1,.39,1.79,2.3,2.3,0,0,1-1,.6c-.48.12-.59.47-.73.76a.94.94,0,0,0-.33-.14c-.26,0-.46-.07-.54-.35,0-.07-.14-.12-.22-.15A2.27,2.27,0,0,1,19,28.05c-.08-.21-.18-.43.11-.57a.61.61,0,0,1,.75.18,1.65,1.65,0,0,0,2.19.69c.17-.08.39-.28.4-.44s-.2-.37-.44-.42a15.18,15.18,0,0,1-1.63-.33c-.88-.27-1.53-.83-1.19-1.76a1.63,1.63,0,0,1,1.33-1ZM22.94,28a.6.6,0,0,0-.34-.92c-.79-.22-1.61-.34-2.42-.5a3,3,0,0,1-.34-.37A.82.82,0,0,1,20.28,25a7.06,7.06,0,0,1,1.09-.23,3.47,3.47,0,0,0-.08-.36.79.79,0,0,0-.12-.15s-.09.1-.09.14c0,.3-.15.33-.37.35a1.43,1.43,0,0,0-1.05.54A.73.73,0,0,0,20,26.5l.24.11c.5.12,1,.25,1.51.36s1.19.31,1.24,1.08c-.05,0-.13,0-.14.06a1.2,1.2,0,0,1-1.08.72c-.44,0-.88,0-1.31,0,.23.16.73,0,.81.58,0-.5.29-.45.55-.49a1.59,1.59,0,0,0,1.08-.54C22.93,28.31,22.91,28.16,22.94,28Zm-.16-2.43a.9.9,0,0,0-.81-.7Zm-3.34,2.18-.15.11.55.64,0,0Z"/><path class="cls-1" d="M27.47,22.06l3.37-1.91a.54.54,0,0,1,.28-.08h3.5c-.32.21-.58.4-.86.56-.82.48-1.65.95-2.48,1.41a.88.88,0,0,1-.42.11c-.69,0-1.39,0-2.08,0C28.37,22.14,28,22.09,27.47,22.06Z"/><path class="cls-1" d="M14.28,22l1.6-.91c.39-.22.8-.41,1.17-.67a2.33,2.33,0,0,1,1.45-.38c.72,0,1.43,0,2.21,0-.31.2-.56.4-.84.56-.83.48-1.67.95-2.51,1.42a.52.52,0,0,1-.26.1l-2.8,0Z"/></svg>