<?xml version="1.0" encoding="utf-8"?>
<!-- Generator: Adobe Illustrator 26.0.1, SVG Export Plug-In . SVG Version: 6.00 Build 0)  -->
<svg version="1.1" id="Layer_1" xmlns="http://www.w3.org/2000/svg" xmlns:xlink="http://www.w3.org/1999/xlink" x="0px" y="0px"
	 viewBox="0 0 50 50" style="enable-background:new 0 0 50 50;" xml:space="preserve">
<style type="text/css">
	.st0{fill:#00B2CE;}
	.st1{fill:#FFFFFF;}
	.st2{fill:#E4FEFE;}
</style>
<g>
	<path class="st0" d="M47.2,22.2c0-0.7-0.2-0.9-0.9-0.9c-1.1,0-2.1,0-3.2,0c-0.6,0-0.8,0.2-0.8,0.8c0,0.4-0.1,0.6-0.5,0.7
		c-0.3,0.1-0.5,0.4-0.6,0.7c-0.1,0.2-0.1,0.5-0.3,0.8c-0.2-0.1-0.2-0.3-0.3-0.5c-0.8-2.1-1.6-4.3-2.5-6.4c-0.5-1.3-1.4-2.1-2.8-2.4
		c-0.4-0.1-1-0.3-1.4,0.2c-0.3,0.4-0.6,0.4-1,0.4c-0.4,0-0.8,0-1.2,0c-0.4,0-0.5-0.1-0.3-0.5c1.1-2.5,1.4-5.2,1.4-7.9
		c0-0.5-0.2-0.8-0.7-0.9c-2.3-0.8-4.6-1.5-6.8-2.5c-0.4-0.2-0.7-0.1-1.1,0c-2.2,0.9-4.4,1.7-6.7,2.4C17.2,6.3,17,6.7,17,7.2
		c0,0.7,0,1.4,0.1,2c0.1,1.7,0.5,3.4,1.1,5c0.2,0.5,0,0.5-0.4,0.5c-0.8,0-1.6,0-2.4,0c-1.6-0.1-3.1,1.2-3.6,2.5
		c-0.7,2-1.5,4-2.3,5.9c-0.1,0.3-0.2,0.7-0.5,1c-0.2-0.3-0.2-0.5-0.3-0.8c-0.1-0.3-0.2-0.6-0.5-0.6c-0.4-0.1-0.5-0.4-0.5-0.8
		c0-0.5-0.3-0.7-0.8-0.7c-1.1,0-2.3,0-3.4,0c-0.6,0-0.8,0.3-0.8,0.8c0,0.8,0,1.7,0,2.5c0,0.6,0.3,0.9,0.9,0.9c1,0,1.9,0,2.9,0
		c0.4,0,0.8,0,1.1-0.3c0.1,0.3,0.1,0.5,0.2,0.8c0.2,0.5,0.2,1-0.1,1.5c-0.7,1.2-1.4,2.5-2.1,3.8c-0.2,0.3-0.4,0.6-0.4,1.1
		c0,2.3,0,4.5,0,6.8c0,1,0.6,1.8,1.6,2.1c0.4,0.1,0.5,0.3,0.5,0.6c0,0.6,0,1.3,0,1.9c0,1.4,0.9,2.4,2.2,2.7c1.1,0.2,2.2,0.1,3.3,0.1
		c1.5,0,2.6-1,2.8-2.4c0.1-0.3,0-0.6-0.3-0.8C14.9,42.9,15,42.4,15,42c0-0.8,0-0.8,0.8-0.8c3.9,0,7.8,0,11.7,0
		c0.7,0,0.9-0.1,1.1-0.8c0.1-0.5-0.1-0.8-0.6-0.9c-0.3-0.1-0.6-0.1-0.9-0.1c-6.2,0-12.4,0-18.6,0c-0.2,0-0.5,0-0.7,0
		c-0.6,0-0.8-0.2-0.8-0.8c0-1.7,0-3.4,0-5.1c0-0.2,0-0.5,0.3-0.5c0.3-0.1,0.7-0.1,1,0c0.2,0.1,0,0.4,0,0.6c-0.3,1.3,0,2.5,1,3.4
		c1,0.9,2.2,1.1,3.5,0.7c1.7-0.6,2.6-2.4,2.1-4.2C14.9,33,14.9,33,15.5,33c0.5,0,0.9,0,1.4,0c0.3,0,0.5,0.1,0.6,0.5
		c0.1,0.4,0.3,0.8,0.4,1.2c0.3,0.9,0.6,1.2,1.6,1.2c3.6,0,7.3,0,10.9,0c0.2,0,0.4,0,0.6-0.1c0.4-0.1,0.7-0.4,0.8-0.8
		c0.1-0.4-0.1-0.8-0.5-0.9c0,0,0,0,0,0c0,0-0.1,0-0.1,0c-0.3-0.1-0.6-0.1-0.9-0.1c-3.2,0-6.5,0-9.7,0c-0.2,0-0.5,0-0.7-0.1
		c-0.3-0.1-0.4-0.3-0.3-0.5c0-0.2,0.2-0.2,0.4-0.2c0.2,0,0.4,0,0.5,0c3.4,0,6.8,0,10.2,0c0.3,0,0.5,0,0.8,0c0,0,0.1,0,0.1,0
		c0,0,0,0,0.1,0c1,0.1,2,0,3,0c0.6,0,0.6,0,0.4,0.5c0,0.1,0,0.1,0,0.2c-0.3,1.4,0.1,2.6,1.2,3.6c1.1,0.9,2.3,1,3.6,0.4
		c1.3-0.6,2-1.7,2-3.1c0-0.4,0-0.8-0.1-1.1c0-0.1-0.1-0.3,0.1-0.4c0.3-0.1,0.7-0.1,1.1,0c0.3,0.1,0.2,0.4,0.2,0.6c0,1.5,0,3.1,0,4.6
		c0,1-0.1,1.1-1.1,1.1c-2.1,0-4.2,0-6.3,0c-0.2,0-0.5,0-0.7,0.1c-0.4,0.2-0.6,0.4-0.5,0.9c0,1,0,2.1,0,3.1c0,1.4,0.9,2.5,2.2,2.7
		c1.3,0.2,2.6,0.2,3.9,0c1.4-0.2,2.2-1.3,2.2-2.7c0-0.6,0-1.2,0-1.8c0-0.3,0.1-0.5,0.4-0.6c1-0.3,1.6-1.1,1.6-2.2c0-2.2,0-4.4,0-6.7
		c0-0.3-0.1-0.6-0.2-0.8c-0.7-1.3-1.4-2.6-2.2-4c-0.3-0.5-0.4-1-0.2-1.6c0.2-0.3,0.1-0.9,0.8-0.5c0.1,0.1,0.2,0,0.4,0c1,0,2,0,3,0
		c0.7,0,1-0.3,1-1C47.2,23.7,47.2,23,47.2,22.2z M15.4,19.3c0.1-0.3,0.3-0.4,0.6-0.4c0.6,0,1.3,0,1.9,0c0.5,0,0.9-0.2,1-0.7h1.5
		c1.2,1.3,2.5,2.3,4.1,3c0.4,0.2,0.8,0.2,1.2,0c1.1-0.5,2.2-1.1,3.1-2c0.2-0.2,0.4-0.3,0.7-0.3c1.5,0,3.1,0,4.6,0
		c0.2,0,0.4,0,0.5,0.2c0.5,1.4,1.1,2.9,1.6,4.3H13.9c-0.1-0.1,0-0.2,0-0.3C14.4,21.8,14.9,20.5,15.4,19.3z"/>
	<path class="st1" d="M31.7,32.8c1.3,0,2.5,0,3.9,0c-0.8,1.8-0.6,3.4,1.1,4.5c1.1,0.8,2.7,0.6,3.8-0.3c1.2-1,1.4-2.4,0.7-4.2
		c0.6,0,1.2,0,1.8,0c0.2,0,0.3,0.1,0.3,0.3c0,2,0,3.9,0,5.9c0,0.5-0.3,0.7-0.9,0.7c-2.3,0-4.6,0-6.9,0c-0.6,0-0.9,0.2-1.1,0.8
		c-0.8,0-1.6,0-2.4,0c-0.1,0-0.2-0.1-0.3-0.2c-0.5-0.5-0.8-0.5-1.3,0c-0.1,0.1-0.1,0.1-0.2,0.2c-0.5,0-1,0-1.5,0
		c-0.1-0.6-0.5-0.8-1-0.8c-6.5,0-13,0-19.5,0c-1,0-1.2-0.2-1.2-1.2c0-1.7,0-3.5,0-5.2c0-0.4,0.1-0.5,0.5-0.5c0.5,0,1,0,1.6,0
		c-0.7,2-0.4,3.4,0.9,4.4c1.1,0.8,2.6,0.9,3.8,0.1c1.4-0.9,1.7-2.2,1-4.4c0.9,0,1.8,0,2.7,0c0.3,0,0.3,0.1,0.4,0.3
		c0.2,0.6,0.4,1.2,0.6,1.8c0.1,0.4,0.4,0.6,0.9,0.6c3.9,0,7.8,0,11.7,0c0.4,0,0.7-0.1,0.9-0.5c0.1-0.4,0-0.7-0.4-0.9
		C31.1,33.7,31.2,33.3,31.7,32.8z"/>
	<path class="st0" d="M30.1,40.4c0-0.5,0.3-0.7,0.8-0.7c0.5,0,0.9,0.2,0.9,0.7c-0.1,0.5-0.4,0.8-0.9,0.8
		C30.5,41.2,30.1,40.9,30.1,40.4z"/>
	<path class="st1" d="M19.1,26.8c0.2,0.6,0.3,0.8,1.1,0.8c6.6,0,13.2,0,19.8,0c0.5,0,0.7,0.1,0.9,0.6c0.5,1.1,1.1,2.1,1.7,3.2
		c-11.8,0-23.5,0-35.2,0c-0.1-0.2,0.1-0.3,0.2-0.5c0.5-0.9,1-1.9,1.5-2.8c0.2-0.3,0.3-0.4,0.7-0.4c1,0,1.9,0,2.9,0
		c0.6,0,0.9-0.2,1-0.8c0.2-0.2,0.4-0.2,0.6-0.2c0.4,0,0.7,0,1.1-0.1c0.2,0,0.2,0.2,0.3,0.4c0.1,0.3,0.3,0.4,0.6,0.4
		c0.3,0,0.6-0.1,0.7-0.4c0-0.2,0.1-0.3,0.3-0.4c0.4,0,0.8,0.1,1.2,0.1C18.8,26.5,19,26.6,19.1,26.8z"/>
	<path class="st1" d="M18.5,8c-0.1-0.4,0.1-0.6,0.6-0.8c1.9-0.6,3.7-1.3,5.5-2c0.2-0.1,0.4-0.1,0.7,0c1.9,0.8,3.9,1.5,5.8,2.2
		c0.2,0.1,0.4,0.1,0.4,0.4c-0.1,3.2-0.7,6.3-2.6,8.9c-0.9,1.2-2.1,2.1-3.4,2.8c-0.3,0.2-0.6,0.2-1,0c-2.6-1.3-4.1-3.4-5.1-6
		C18.9,11.8,18.6,10,18.5,8z"/>
	<path class="st2" d="M20.3,18.1h-1.5C19.3,17.8,19.8,17.9,20.3,18.1z"/>
	<path class="st1" d="M39.9,26h-0.7c-6.4,0-12.7,0-19.1,0c-0.6,0-1,0.2-1.1,0.7c-0.4,0-0.9,0-1.3,0c-0.2,0-0.4,0-0.5-0.2
		c0,0,0,0-0.1,0c-0.1,0-0.2-0.1-0.2-0.1c-0.4-0.3-0.8-0.3-1.2,0c-0.1,0.1-0.1,0.1-0.2,0.1c0,0,0,0-0.1,0c-0.2,0.3-0.5,0.2-0.8,0.2
		c-0.3,0-0.7,0-1,0c-0.1-0.6-0.5-0.8-1-0.7c-0.9,0-1.8,0-2.7,0c0.4-1,0.7-1.9,1.1-2.8c0.7-1.7,1.3-3.4,2-5.2
		c0.5-1.3,1.2-1.7,2.5-1.8c1,0,2,0,3,0c0.3,0,0.5,0.1,0.6,0.3c0.3,0.5,0.7,1,1,1.5h-1.5c-0.1-0.5-0.4-0.8-0.9-0.8
		c-0.8,0-1.6,0-2.4,0c-0.7,0-1.1,0.3-1.3,0.9c-0.7,1.8-1.4,3.6-2.1,5.5c-0.3,0.8,0,1.2,0.8,1.2c8.1,0,16.1,0,24.2,0
		c0.8,0,1.1-0.4,0.8-1.2c-0.7-1.8-1.4-3.6-2.1-5.5c-0.2-0.6-0.7-0.9-1.4-0.9c-1.3,0-2.7,0-4.1,0c0.3-0.6,0.6-1.2,1-1.7
		c0.1-0.2,0.3-0.1,0.4-0.1c0.5,0,1,0,1.5,0c0.4,0,0.7,0,0.9,0.4c0.1,0.3,0.5,0.3,0.8,0.3c1,0.1,1.6,0.6,2,1.4c1,2.7,2.1,5.3,3.1,8
		C39.9,25.8,39.9,25.9,39.9,26z"/>
	<path class="st0" d="M31.7,32.8c-0.1,0.5-0.4,0.9-0.3,1.4c-0.3-0.1-0.5-0.1-0.8-0.1c-3.4,0-6.9,0-10.3,0c-0.6,0-1.1-0.5-1.1-1.1
		c0-0.1,0-0.2,0.1-0.2c0.1,0,0.2,0,0.3,0c3.9,0,7.9,0,11.8,0C31.5,32.8,31.6,32.8,31.7,32.8z"/>
	<path class="st1" d="M11.7,36.3c-1,0-1.7-0.7-1.7-1.7c0-1,0.8-1.7,1.7-1.8c0.9,0,1.8,0.8,1.8,1.7C13.4,35.5,12.7,36.3,11.7,36.3z"
		/>
	<path class="st1" d="M40.1,34.5c0,1-0.8,1.7-1.7,1.7c-1,0-1.7-0.8-1.8-1.7c0-1,0.8-1.7,1.7-1.8C39.3,32.8,40.1,33.6,40.1,34.5z"/>
	<path class="st0" d="M15.6,26.6c0.1-0.4,0.5-0.6,0.9-0.6c0.4,0,0.7,0.1,0.9,0.6c0,0.7-0.2,1-0.9,1C15.8,27.5,15.6,27.3,15.6,26.6z"
		/>
	<path class="st0" d="M28.4,10c0,0.2-0.1,0.4-0.3,0.6c-1.2,1.2-2.3,2.4-3.5,3.5c-0.4,0.4-0.8,0.4-1.2,0c-0.6-0.6-1.1-1.1-1.7-1.7
		c-0.4-0.4-0.4-0.8-0.1-1.1c0.3-0.3,0.8-0.3,1.1,0.1c0.3,0.3,0.6,0.6,0.9,0.9c0.2,0.3,0.4,0.3,0.7,0c0.9-0.9,1.8-1.8,2.7-2.7
		c0.3-0.3,0.6-0.4,0.9-0.2C28.3,9.5,28.4,9.7,28.4,10z"/>
</g>
</svg>
