<svg id="Layer_1" data-name="Layer 1" xmlns="http://www.w3.org/2000/svg" viewBox="0 0 50 50"><defs><style>.cls-1{fill:#00b2ce;}</style></defs><path class="cls-1" d="M25,8.78v1.58h5.3a1.54,1.54,0,1,1,0,3.07c-1.91,0-3.81,0-5.72,0a8.56,8.56,0,0,1-4.4-1.28,1.9,1.9,0,0,0-.9-.25c-.92,0-1.84,0-2.8,0,0-.16,0-.29,0-.43,0-2.15,0-4.3,0-6.45a.71.71,0,0,1,.37-.64,9.83,9.83,0,0,1,6.32-1.8c5.12.12,10.24,0,15.36,0A7.26,7.26,0,0,1,44,4.85c1,1,2,2,2.94,3a1.42,1.42,0,1,1-2,2c-1-.95-1.9-1.89-2.84-2.85A4.13,4.13,0,0,0,39,5.67q-4,0-8,0a4,4,0,0,0-3,1.23c-.47.47-1,.92-1.4,1.41a1.2,1.2,0,0,1-1.13.47A3.3,3.3,0,0,0,25,8.78Z"/><path class="cls-1" d="M2.53,24.39c1.14-.17,2.25-.29,3.33-.52a18.9,18.9,0,0,0,7.79-3.63.66.66,0,0,1,1,0,19.46,19.46,0,0,0,9.64,4c.47.06,1,.09,1.46.14,0,.1,0,.18,0,.25,0,2.75,0,5.5,0,8.24A15.52,15.52,0,0,1,14.59,47.38a1.6,1.6,0,0,1-.84,0c-6.22-2-9.92-6.27-11-12.72a19.31,19.31,0,0,1-.18-3c0-2.25,0-4.49,0-6.74ZM4,33.6A10.1,10.1,0,1,0,14.15,23.51,10.1,10.1,0,0,0,4,33.6Z"/><path class="cls-1" d="M14.86,13.4H2.55V2.63H14.86Z"/><path class="cls-1" d="M28.59,8.76a3.34,3.34,0,0,1,3-1.51c2.47.07,4.94,0,7.41,0a1.82,1.82,0,0,1,1.38.54,7.57,7.57,0,0,1,2.44,5.61q0,14.53,0,29.07c0,.11,0,.22,0,.36h-3V13.55a4.64,4.64,0,0,0-3.85-4.71,4.31,4.31,0,0,0-3.08.5.5.5,0,0,1-.64,0,2.84,2.84,0,0,0-1.81-.56Z"/><path class="cls-1" d="M30.39,15.06c0,1.06,0,2.07,0,3.09a1.54,1.54,0,0,1-1.46,1.47,1.52,1.52,0,0,1-1.54-1.39c-.06-1,0-2.09,0-3.17Z"/><path class="cls-1" d="M5.63,33.58a8.52,8.52,0,1,1,8.48,8.55A8.53,8.53,0,0,1,5.63,33.58Zm9.28-5.36V26.65H13.35c0,.41,0,.8,0,1.18a.51.51,0,0,1-.4.59,3.09,3.09,0,0,0,0,5.74,5.38,5.38,0,0,0,1.27.24,1.6,1.6,0,0,1,1.44,1.41,1.54,1.54,0,0,1-1,1.57,1.51,1.51,0,0,1-1.8-.67,4.93,4.93,0,0,1-.28-.76H11.06c-.1,1.25.56,2.13,2.31,3.07v1.56h1.56c0-.37,0-.71,0-1a.64.64,0,0,1,.48-.78A3.1,3.1,0,0,0,16,33.43a3.29,3.29,0,0,0-1.9-.62,1.52,1.52,0,0,1-.44-3,1.5,1.5,0,0,1,1.79.67,7,7,0,0,1,.29.76h1.48C17.32,30,16.55,29,14.91,28.22Zm-6.2,4.64H7.18v1.51H8.71Zm12.41,0H19.59v1.52h1.53Z"/></svg>