<?xml version="1.0" encoding="utf-8"?>
<!-- Generator: Adobe Illustrator 26.0.1, SVG Export Plug-In . SVG Version: 6.00 Build 0)  -->
<svg version="1.1" id="Layer_1" xmlns="http://www.w3.org/2000/svg" xmlns:xlink="http://www.w3.org/1999/xlink" x="0px" y="0px"
	 viewBox="0 0 50 50" style="enable-background:new 0 0 50 50;" xml:space="preserve">
<style type="text/css">
	.st0{fill:#00B2CE;}
	.st1{fill:#FDFDFD;}
</style>
<g>
	<path class="st0" d="M44.5,25.1c0,3.3,0,6.6,0,9.9c0,0.4-0.1,0.5-0.4,0.7c-6,3.4-11.9,6.9-17.9,10.3c-0.3,0.2-0.5,0.2-0.9,0
		c-6-3.5-12-6.9-18-10.4C7.1,35.6,7,35.4,7,35.1C7,28.4,7,21.7,7,15c0-0.3,0.1-0.5,0.4-0.7c6-3.5,12-6.9,18-10.4
		c0.2-0.1,0.4-0.1,0.6,0c6,3.5,12,7,18,10.6c0.3,0.2,0.4,0.4,0.4,0.8C44.5,18.5,44.5,21.8,44.5,25.1z"/>
	<path class="st1" d="M31.5,38.7c0,0.4,0,0.7,0,1c0,0.3-0.1,0.4-0.4,0.4c-3.7,0-7.3,0-11,0c-0.3,0-0.4-0.1-0.4-0.4
		c0-1.7,0-3.5,0-5.2c0-0.4-0.1-0.5-0.5-0.6c-2.1-0.6-3.5-2.4-3.5-4.6c0-2,0-4.1,0-6.1c0-1,0.3-1.9,0.8-2.7c1-1.3,2.2-2.3,3.8-2.6
		c0.2,0,0.4,0,0.7,0c3,0,6,0,9.1,0c0.8,0,1.5,0.2,2.2,0.6c1.9,1.2,3,2.8,3,5.1c-0.1,4.7,0,9.4,0,14c0,1.2-0.4,1.7-1.3,2.1
		C33.2,39.8,32.2,39.6,31.5,38.7z"/>
	<path class="st1" d="M25.6,16.2c-2.4,0-4.4-2-4.4-4.4c0-2.4,2-4.4,4.4-4.4c2.4,0,4.4,2,4.4,4.3C30,14.2,28,16.1,25.6,16.2z"/>
	<path class="st0" d="M22.1,31.1c0,0.5,0,1,0,1.5c0,0.3,0,0.4-0.3,0.4c-0.6,0-1.3,0-1.9,0c-1.5-0.1-3.1-1.8-3.2-3.3
		c0-0.7,0-1.5,0-2.2c0-0.3,0.1-0.3,0.3-0.3c1.1,0,2.2,0,3.2,0c0.3,0,0.4,0.1,0.4,0.4c0,0.3,0,0.6,0,0.9c0.1,0.5,0.5,0.8,1.1,0.8
		c0.4,0,0.5,0.1,0.4,0.5C22.1,30.1,22.1,30.6,22.1,31.1z"/>
	<path class="st0" d="M25.5,32.9c-0.5,0-1.1,0-1.6,0c-0.3,0-0.4,0-0.4-0.4c0-1,0-2.1,0-3.1c0-0.3,0.1-0.4,0.4-0.4c1.1,0,2.2,0,3.3,0
		c0.3,0,0.3,0.1,0.3,0.4c0,1,0,2.1,0,3.1c0,0.3-0.1,0.4-0.4,0.4C26.6,32.9,26.1,32.9,25.5,32.9z"/>
	<path class="st0" d="M23.1,25.5c0,2.3,0,4.6,0,6.9c0,0.1,0,0.3,0,0.4c0,0.2-0.1,0.2-0.2,0.2c-0.1,0-0.2,0-0.2-0.2
		c0-0.1,0-0.2,0-0.3c0-4.6,0-9.3,0-13.9c0-0.1,0-0.1,0-0.2c0-0.2,0-0.3,0.2-0.3c0.2,0,0.2,0.1,0.2,0.3c0,1.6,0,3.2,0,4.8
		C23.1,23.9,23.1,24.7,23.1,25.5z"/>
	<path class="st0" d="M25.4,28.6c-0.4,0-0.3-0.2-0.2-0.4c0.9-2.6,1.8-5.3,2.7-7.9c0.2-0.6,0.4-1.2,0.6-1.8c0.1-0.3,0.3-0.4,0.5-0.3
		c0.3,0.1,0.1,0.3,0,0.4c-1.1,3.2-2.1,6.4-3.2,9.6C25.7,28.4,25.7,28.6,25.4,28.6z"/>
</g>
</svg>
