<svg id="Layer_1" data-name="Layer 1" xmlns="http://www.w3.org/2000/svg" viewBox="0 0 50 50"><defs><style>.cls-1{fill:#00b2ce;}</style></defs><path class="cls-1" d="M10.18,25.2,9.56,25a2.44,2.44,0,0,1-1.48-2.47A2.24,2.24,0,0,1,10,20.33c.88-.08,1.76-.08,2.63-.09,2.22,0,4.44,0,6.66,0a1.61,1.61,0,0,1,1,.43,6.45,6.45,0,0,0,9.45-.14,1,1,0,0,1,.62-.3q4.55,0,9.09,0a2.19,2.19,0,0,1,2.2,1.4A2.5,2.5,0,0,1,40.48,25c-.2.09-.41.15-.64.24V36.86l.67.25a2.51,2.51,0,0,1,1.35,2.81,2.22,2.22,0,0,1-2.18,1.89l-27.79,0c-.57,0-1.15,0-1.72-.06A2.22,2.22,0,0,1,8.1,39.66a2.32,2.32,0,0,1,1.43-2.54c.58-.18.66-.49.66-1C10.17,32.47,10.18,28.86,10.18,25.2Zm4.61,0c0,.06-.07.08-.07.1q0,5.63,0,11.23c0,.13.18.37.28.38,1.19,0,2.39,0,3.6,0V25.2ZM26.91,36.88V25.21H23.08V36.88Zm4.64-11.7a1.8,1.8,0,0,0-.07.27q0,5.51,0,11c0,.4.17.48.49.47.87,0,1.75,0,2.63,0,.6,0,.73-.2.73-.82,0-3.43,0-6.86,0-10.29,0-.21,0-.42,0-.65Z"/><path class="cls-1" d="M19.21,19.22a4.51,4.51,0,0,1-.64.05c-3.62,0-7.24,0-10.86-.05a5.76,5.76,0,0,1-1.38-.11c-.32-.08-.82-.3-.86-.54a3.19,3.19,0,0,1,.21-1.41c.06-.19.32-.31.5-.46Q14.4,10,22.63,3.36c1.46-1.18,2.75-1.43,4.43,0,5.39,4.43,10.82,8.81,16.22,13.21a9.74,9.74,0,0,1,1,1c.53.59.47,1.1-.22,1.49a1.9,1.9,0,0,1-.88.21q-6,0-12,.05a2.46,2.46,0,0,1-.34-.06,8.29,8.29,0,0,0,.66-6.53A7.3,7.3,0,0,0,29,9a6.34,6.34,0,0,0-7.9,0,7.34,7.34,0,0,0-2.79,4.71A8.2,8.2,0,0,0,19.21,19.22Z"/><path class="cls-1" d="M25,42.88c6,0,11.94,0,17.91,0a2,2,0,0,1,2,1.45,2.3,2.3,0,0,1-.43,2.52,2.1,2.1,0,0,1-1.24.67c-1.69.1-3.38.12-5.07.12l-29.5,0a17.72,17.72,0,0,0-1.78,0c-1,.1-2-1.34-2-2.38a2.26,2.26,0,0,1,2-2.29c6,0,12,0,18,0Z"/><path class="cls-1" d="M22.33,17.88c.83.05,1.59.13,2.34.13a.94.94,0,0,0,1-.86A1.06,1.06,0,0,0,25,16c-.39-.21-.8-.39-1.19-.6A2.5,2.5,0,0,1,22.2,13,2.38,2.38,0,0,1,24,10.53c.36-.13.45-.34.48-.72S24.36,9,24.93,9s.52.42.5.8.12.63.51.67a3.77,3.77,0,0,1,.58.14c.75.19.8.3.55,1.12-.12.36-.25.49-.63.39a6.77,6.77,0,0,0-1.49-.2.79.79,0,0,0-.91.64.93.93,0,0,0,.51,1.11c.57.31,1.14.63,1.72.9a2.22,2.22,0,0,1,1.26,2.16,2.36,2.36,0,0,1-1.09,2.36c-.65.35-1.18.68-1,1.62,0,.11-.31.39-.47.39s-.45-.3-.43-.43c.11-.91-.36-1.05-1-1a2,2,0,0,1-.32-.06C21.84,19.32,21.78,19.2,22.33,17.88Z"/></svg>