<svg id="Layer_1" data-name="Layer 1" xmlns="http://www.w3.org/2000/svg" viewBox="0 0 50 50"><defs><style>.cls-1{fill:#00b2ce;}</style></defs><path class="cls-1" d="M16.1,21.21a11.07,11.07,0,0,0-1.36-8,15.54,15.54,0,0,0-4.71-5C8.76,7.36,7.41,6.6,6.09,5.79a.55.55,0,0,1,.14-.09A39,39,0,0,1,24.3,4a20.37,20.37,0,0,1,12,6.11s.11.08.2.16l.37-.35,3.82-3.78A.9.9,0,0,1,41.92,6a.89.89,0,0,1-.08,1.3L38,11.2l-.35.37c6.89,8.56,8,17.83,3.59,27.91V37.19A16.24,16.24,0,0,0,40,30.41a8,8,0,0,0-6-4.83.58.58,0,0,1-.55-.5C32,19.14,28.33,15.42,22.37,14c-.29-.06-.48-.14-.55-.49A8,8,0,0,0,16.6,7.26a15.38,15.38,0,0,0-6.72-.92s-.05,0-.12.08l.43.28a15.72,15.72,0,0,1,6.49,7.39,12.27,12.27,0,0,1,.91,5.46c0,.41.11.52.5.59,1,.21,2.05.46,3.06.73a5.7,5.7,0,0,1,.94.49l-.85,1.07A14.19,14.19,0,0,0,16.1,21.21Z"/><path class="cls-1" d="M24.89,46.38,24.66,39H23.9l-.18-2.5c-.08-1.21-.16-2.42-.23-3.63A2.47,2.47,0,0,1,26,30.23h2.79a2.52,2.52,0,0,1,2.39,2.45c-.12,2-.3,4-.43,6,0,.56-.51.2-.84.39v7.33Z"/><path class="cls-1" d="M32.25,46.35l1-6.18L32.22,40c0-1.79,0-3.54,0-5.29a2.15,2.15,0,0,1,2.19-2H36.9a2.28,2.28,0,0,1,2.22,2c.05,1.68,0,3.36,0,5.05a.68.68,0,0,1-.07.2H38l.86,6.3Z"/><path class="cls-1" d="M11.82,46C9.47,46,8,45.4,7.23,43.63a4.33,4.33,0,0,1,.92-5q9.67-9.69,19.36-19.36A1,1,0,0,1,28.7,19a1,1,0,0,1,.46.73,1.08,1.08,0,0,1-.37.68l-14.91,15-4.5,4.51a2.66,2.66,0,0,0-.19,3.66,2.87,2.87,0,0,0,3.91.17c.47-.43.87-.48,1.22-.14a1,1,0,0,1-.12,1.36A3.93,3.93,0,0,1,11.82,46Z"/><path class="cls-1" d="M21.63,46.41H18.07V42.73l-.6-.12c-.14-1.42-.32-2.83-.42-4.24a1.88,1.88,0,0,1,1.82-1.89c.7,0,1.4,0,2.1,0a1.93,1.93,0,0,1,1.91,2.19c-.17,1.2-.32,2.4-.48,3.6,0,.25,0,.56-.39.56-.05,0-.15.24-.16.37-.07.88-.12,1.76-.17,2.63C21.67,46,21.65,46.2,21.63,46.41Z"/><path class="cls-1" d="M27.32,29.18a2,2,0,1,1,2.05-2A2,2,0,0,1,27.32,29.18Z"/><path class="cls-1" d="M37.5,30a1.84,1.84,0,1,1-1.85-1.82A1.82,1.82,0,0,1,37.5,30Z"/><path class="cls-1" d="M20,32.56a1.57,1.57,0,1,1-1.58,1.56A1.56,1.56,0,0,1,20,32.56Z"/></svg>