<?xml version="1.0" encoding="utf-8"?>
<!-- Generator: Adobe Illustrator 26.0.1, SVG Export Plug-In . SVG Version: 6.00 Build 0)  -->
<svg version="1.1" id="Layer_1" xmlns="http://www.w3.org/2000/svg" xmlns:xlink="http://www.w3.org/1999/xlink" x="0px" y="0px"
	 viewBox="0 0 50 50" style="enable-background:new 0 0 50 50;" xml:space="preserve">
<style type="text/css">
	.st0{fill:#00B2CE;}
</style>
<g>
	<path class="st0" d="M47.3,35.2c-0.1-0.6-0.3-0.9-0.9-1.1c-0.7,0.1-0.9,0.6-0.9,1.2c0,1.1,0.1,2.3-0.2,3.4c-0.7,3-2.4,5.2-5,6.7
		c-1.1,0.6-2.1,0.7-3.1,0c-0.5-0.3-1.1-0.5-1.5-1c-2.4-1.7-3.5-4.2-3.7-7c-0.1-2.1,0-4.3,0-6.5c0-0.6,0.2-0.8,0.7-0.9
		c1.6-0.4,3.1-0.8,4.7-1.4c1-0.3,1.9-0.3,2.9,0.1c1.2,0.4,2.4,0.7,3.6,1.1c0.3,0.1,0.6,0.2,0.9,0.2c0.6,0.1,0.9,0.4,0.8,1.1
		c-0.1,0.7,0,1.3,0.8,1.4c0.7-0.2,0.9-0.6,0.9-1.3c0-5.2,0-10.4,0-15.6c0-1.3-0.6-2.5-1.6-3.3c-0.6-0.5-1.2-0.6-1.8,0
		c0,0.3,0,0.5,0,0.8c1.3,0.8,1.7,2,1.7,3.5c-0.1,3.6,0,7.1,0,10.7c0,0.9-0.2,1-1,0.8c-0.8-0.3-1.6-0.5-2.4-0.7
		c-0.7-0.1-0.9-0.5-0.8-1.1c0-4.2,0-8.5-0.1-12.7c0-0.8,0.9-0.8,0.9-1.5c-0.7-1.4-4-2.5-5.7-1.5c-1.2,0.7-2.4,0.6-3.6,0.6
		c-0.5-0.6-1.1-0.4-1.7-0.5c0,0,0,0,0,0c-3.4-0.1-6.7-0.1-10.1,0h0c-0.6,0-1.2-0.1-1.7,0.5c-1-0.1-2.1,0.3-3.1-0.3
		c-1.4-0.9-3-0.7-4.5-0.2c-0.8,0.3-1.5,0.5-2.4,0.6c-2.4,0.1-4.3,1.9-4.5,4.3c-0.1,1,0,2,0,3.1c0,0.6,0.2,1,0.9,1.2
		c0.6-0.1,0.8-0.5,0.8-1.1c0-0.9,0-1.8,0-2.6c0-1.4,0.6-2.4,1.9-2.8c0.6-0.4,1.2-0.2,1.9-0.2c0.5,0,0.4,0.4,0.4,0.7
		c0,0.6,0,1.2,0,1.8c0,8.1,0,16.1,0,24.2c0,1.4,0,1.4-1.3,1.3c-1.7-0.1-2.8-1.2-2.9-3c0-5,0-10.1,0-15.1c0-0.7,0-1.3-0.8-1.5
		C5,21.5,4.9,22,4.9,22.6c0,5.2,0,10.4,0,15.6c0,2.2,1.6,3.9,3.7,4.3c1,0.2,2.1-0.2,2.8,0.8c0.1,0.1,0.3,0.1,0.5,0.1
		c1.2,0,2.5,0,3.7,0c0.3,0,0.7-0.1,0.9-0.3c0.3-0.5,0.8-0.5,1.3-0.5c4.4,0,8.8,0,13.2,0c0.7,0,1.1,0.2,1.5,0.8
		c1.3,1.9,3.1,3.2,5.2,4c0.8,0.3,1.6,0.3,2.4,0C45,45.4,47.9,40.5,47.3,35.2z M38.1,12c0.2,0,0.5,0,0.7,0c0.7-0.1,0.8,0.2,0.8,0.8
		c0,4.3,0,8.6,0,12.9c0,0.6-0.1,0.8-0.7,0.7c-0.6-0.1-1.1,0.2-1.8,0.3V18c0-1.7,0-3.3,0-5C37.1,12.2,37.4,11.9,38.1,12z M30.3,36.8
		c0,1.1,0.1,2.1,0.4,3.1c0.4,0.9,0,1-0.8,1c-3.9,0-7.7,0-11.6,0c-1.7,0-1.7,0-1.6-1.7c-0.1-0.5-0.4-0.8-0.9-0.9
		c-0.6,0.1-0.9,0.5-0.9,1.1c0,0.2,0,0.4,0,0.6c0,1.7-0.4,2-2.1,1.7c-0.3-0.1-0.4-0.2-0.4-0.5c0-0.2,0-0.4,0-0.6c0-9.2,0-18.4,0-27.6
		c0-1.2,0.6-1.1,1.3-1.1c0.8,0,1.3-0.1,1.3,1.1c-0.1,7.4,0,14.8,0,22.2c0,0.7,0,1.3,0.9,1.5c0.8-0.2,0.9-0.8,0.9-1.5
		c0-7,0-14.1,0-21.1c0-1.1,0.3-1.3,1.3-1.3c5.2,0.1,10.5,0,15.7,0.1c0.1,0,0.3,0,0.4,0c1-0.2,1.3,0.2,1.3,1.2
		c-0.1,4.1-0.1,8.1,0,12.2c0,0.8-0.2,1.2-1,1.4c-0.7,0.1-1.3,0.3-1.9,0.5c-2.1,0.8-2.1,0.8-2.1,3.1c0,0.2,0,0.5,0,0.7
		C30.3,33.6,30.4,35.2,30.3,36.8z"/>
	<path class="st0" d="M32.9,11.2h-1.7c0-0.9,0-1.8,0-2.6c0-1-0.5-1.6-1.6-1.6c-2.4,0-4.7,0-7.1,0c-1,0-1.5,0.5-1.6,1.6
		c0,0.9,0,1.8,0,2.6h-1.7c0-0.9,0-1.8,0-2.8c0-1.9,1.3-3.1,3.1-3.2c2.4,0,4.9,0,7.3,0c1.8,0,3.1,1.3,3.1,3.2
		C32.9,9.3,32.9,10.3,32.9,11.2z"/>
	<path class="st0" d="M43.1,34.8c0,0.6-0.3,0.8-0.5,1c-1.2,1.3-2.5,2.5-3.7,3.8c-0.6,0.6-1.1,0.6-1.7,0c-0.6-0.6-1.2-1.2-1.8-1.8
		c-0.4-0.4-0.5-0.9,0-1.3c0.4-0.4,0.8-0.3,1.2,0.1c0,0,0,0.1,0.1,0.1c0.5,0.4,0.8,1.3,1.5,1.2c0.5-0.1,0.9-0.8,1.4-1.3
		c0.7-0.7,1.4-1.4,2.1-2.1c0.3-0.3,0.7-0.4,1.1-0.2C43,34.4,43.1,34.7,43.1,34.8z"/>
	<path class="st0" d="M43.1,34.8c0,0.6-0.3,0.8-0.5,1c-1.2,1.3-2.5,2.5-3.7,3.8c-0.6,0.6-1.1,0.6-1.7,0c-0.6-0.6-1.2-1.2-1.8-1.8
		c-0.4-0.4-0.5-0.9,0-1.3c0.4-0.4,0.8-0.3,1.2,0.1c0,0,0,0.1,0.1,0.1c0.5,0.4,0.8,1.3,1.5,1.2c0.5-0.1,0.9-0.8,1.4-1.3
		c0.7-0.7,1.4-1.4,2.1-2.1c0.3-0.3,0.7-0.4,1.1-0.2C43,34.4,43.1,34.7,43.1,34.8z"/>
</g>
</svg>
