<svg id="Layer_1" data-name="Layer 1" xmlns="http://www.w3.org/2000/svg" viewBox="0 0 50 50"><defs><style>.cls-1{fill:#00b2ce;}</style></defs><path class="cls-1" d="M45.72,29.06V39.37a3.57,3.57,0,0,1-3.86,3.88H23.07a3.52,3.52,0,0,1-3.69-2.6,3.66,3.66,0,0,1-.1-1c0-3.08,0-6.16,0-9.24,0-.56-.16-.7-.71-.7q-6.66,0-13.32,0a1.16,1.16,0,0,1-.87-.4c-.3-.48.09-.94.74-.94H12.6c2,0,4,0,6,0,.42,0,.72-.05.64-.57s.27-1.06-.61-1c-.49.05-.65-.22-.65-.68q0-4.1,0-8.17c0-.53.22-.74.72-.68s.64-.11.85-.52a3.42,3.42,0,0,1,3.27-2.12L42,14.72a3.52,3.52,0,0,1,3.7,3.72C45.73,22,45.72,25.52,45.72,29.06Zm-25.34-.14v10.3a2.63,2.63,0,0,0,3,3q9.15,0,18.28,0c2,0,3-1,3-3V18.78c0-2-1-3-3-3H23.43c-2.07,0-3.05,1-3.05,3Z"/><path class="cls-1" d="M12.11,20.4c0-1.87,0-3.73,0-5.6,0-.56.18-.8.76-.77s1.43,0,2.14,0c.42,0,.61.18.61.6,0,3.88,0,7.75,0,11.63,0,.44-.22.58-.63.57-.71,0-1.43,0-2.14,0-.54,0-.75-.19-.74-.74C12.12,24.21,12.11,22.3,12.11,20.4Z"/><path class="cls-1" d="M25.25,8.11H23.48a.61.61,0,0,1-.68-.7.59.59,0,0,1,.66-.66c1.22,0,2.43,0,3.64,0A.81.81,0,0,1,27.9,8c-.42,1.14-.86,2.27-1.28,3.4-.15.43-.42.64-.85.49s-.45-.52-.32-.89.37-1,.6-1.62l-.53.29c-1.69,1.07-3.4,2.13-5.08,3.23a1,1,0,0,1-1.35-.06c-1.7-1.33-3.43-2.61-5.11-4a.85.85,0,0,0-1.2,0c-1.37.93-2.77,1.8-4.17,2.7-.19.12-.4.33-.59.32a1.22,1.22,0,0,1-.84-.29.61.61,0,0,1,.2-.92L12.92,7a1,1,0,0,1,1.21.16c1.73,1.35,3.48,2.68,5.21,4a.71.71,0,0,0,1,.07C21.91,10.25,23.51,9.23,25.25,8.11Z"/><path class="cls-1" d="M9.57,21.51v4.65c0,.76,0,.8-.83.8s-1.34,0-2,0c-.44,0-.66-.15-.66-.62,0-3.23,0-6.45,0-9.68,0-.46.2-.63.65-.62.73,0,1.47,0,2.2,0,.5,0,.66.21.66.68C9.56,18.32,9.57,19.92,9.57,21.51Z"/><path class="cls-1" d="M8.45,33.63c-.94,0-1.88,0-2.82,0-.5,0-.82-.16-.81-.71s.34-.66.8-.66c1.89,0,3.77,0,5.65,0,.51,0,.82.17.81.72s-.34.65-.8.65C10.34,33.62,9.39,33.63,8.45,33.63Z"/><path class="cls-1" d="M8.51,35.66c.92,0,1.84,0,2.77,0,.5,0,.81.17.8.71s-.34.66-.8.65c-1.89,0-3.77,0-5.66,0-.5,0-.81-.16-.8-.71s.34-.66.8-.65C6.59,35.67,7.55,35.66,8.51,35.66Z"/><path class="cls-1" d="M8.43,40.41H5.6c-.46,0-.77-.16-.78-.67s.28-.7.76-.7c1.91,0,3.81,0,5.72,0,.47,0,.77.16.78.67s-.28.7-.76.7Z"/><path class="cls-1" d="M15.21,32.27H17c.46,0,.72.21.72.68s-.26.67-.72.68H13.33c-.46,0-.71-.22-.71-.68s.26-.68.71-.68Z"/><path class="cls-1" d="M15.17,37H13.35c-.45,0-.72-.18-.73-.66s.27-.7.75-.7H17c.45,0,.73.19.74.66s-.28.7-.76.7Z"/><path class="cls-1" d="M15.19,40.41c-.63,0-1.25,0-1.88,0a.61.61,0,0,1-.69-.69.59.59,0,0,1,.66-.66c1.26,0,2.51,0,3.76,0a.61.61,0,0,1,.7.69c0,.47-.29.66-.73.66Z"/><path class="cls-1" d="M32.52,22.82h-9.3c-.84,0-.93-.1-.93-.95,0-1.13,0-2.26,0-3.39,0-.55.22-.8.79-.8q9.45,0,18.9,0c.57,0,.8.24.79.8,0,1.15,0,2.3,0,3.45,0,.79-.11.89-.93.89Z"/><path class="cls-1" d="M38.34,31.74c-1.2,0-2.39,0-3.58,0-.57,0-.79-.25-.79-.8,0-1.61,0-3.22,0-4.83,0-.52.21-.77.74-.77H42c.53,0,.75.24.75.76,0,1.61,0,3.23,0,4.84,0,.6-.27.81-.85.8C40.72,31.73,39.53,31.74,38.34,31.74ZM38.4,28A7,7,0,0,0,37,28c-.25.05-.45.34-.67.52.21.2.4.56.62.57a18,18,0,0,0,2.75,0c.23,0,.43-.36.64-.55-.22-.19-.41-.49-.66-.54A6.35,6.35,0,0,0,38.4,28Z"/><path class="cls-1" d="M26.77,31.74c-1.17,0-2.34,0-3.52,0-.57,0-.85-.2-.84-.8,0-1.61,0-3.22,0-4.84,0-.52.22-.76.75-.76h7.28c.54,0,.76.25.75.77q0,2.41,0,4.83c0,.55-.21.8-.78.8C29.2,31.73,28,31.74,26.77,31.74Zm-.52-3.82c-.51.12-1.28-.12-1.29.61s.79.52,1.29.64c.09.5-.12,1.26.58,1.28s.49-.84.69-1.3c.5-.07,1.22.12,1.25-.55,0-.84-.83-.52-1.29-.7-.1-.5.12-1.26-.61-1.26S26.35,27.4,26.25,27.92Z"/><path class="cls-1" d="M38.39,33.9H42c.56,0,.8.22.8.78,0,1.61,0,3.22,0,4.84,0,.56-.25.78-.8.77H34.8c-.59,0-.83-.22-.83-.81,0-1.59,0-3.18,0-4.78,0-.59.25-.82.84-.81C36,33.91,37.19,33.9,38.39,33.9Zm-.06,3.77a6.94,6.94,0,0,0,1.37,0c.25,0,.45-.34.67-.52-.21-.2-.4-.56-.62-.57a18,18,0,0,0-2.75,0c-.23,0-.43.36-.64.55.22.19.41.49.66.54A6.35,6.35,0,0,0,38.33,37.67Zm.88-2.12c-.42-.28-.7-.61-1-.59s-.43.41-.64.65c.25.21.47.57.74.61S38.83,35.86,39.21,35.55Zm-.89,2.28c-.31.38-.68.65-.65.86a1,1,0,0,0,.64.67c.17,0,.62-.38.63-.6S38.61,38.23,38.32,37.83Z"/><path class="cls-1" d="M26.82,33.9H30.4c.56,0,.8.22.79.78,0,1.61,0,3.22,0,4.84,0,.56-.24.78-.8.77H23.24c-.59,0-.84-.22-.83-.81,0-1.59,0-3.18,0-4.78,0-.59.25-.82.83-.81C24.44,33.91,25.63,33.9,26.82,33.9Zm-.05,2.25c-.23-.19-.4-.43-.62-.49a1,1,0,0,0-.82.05.74.74,0,0,0,0,.75c.49.46.48.8,0,1.27-.13.13,0,.61.12.86,0,.1.51,0,.74-.06a2.53,2.53,0,0,0,.61-.49c.19.17.34.29.47.43s.53.43.86.12a.6.6,0,0,0,0-.94c-.43-.41-.41-.69,0-1.12.15-.17,0-.59,0-.89a5.39,5.39,0,0,0-.9.1C27.08,35.78,27,36,26.77,36.15Z"/></svg>