<?xml version="1.0" encoding="utf-8"?>
<!-- Generator: Adobe Illustrator 26.0.1, SVG Export Plug-In . SVG Version: 6.00 Build 0)  -->
<svg version="1.1" id="Layer_1" xmlns="http://www.w3.org/2000/svg" xmlns:xlink="http://www.w3.org/1999/xlink" x="0px" y="0px"
	 viewBox="0 0 50 50" style="enable-background:new 0 0 50 50;" xml:space="preserve">
<style type="text/css">
	.st0{fill:#00B2CE;}
</style>
<g>
	<path class="st0" d="M10,40.4c-0.2-1.2,0.3-2.5,0.9-3.9c1.9-4,3.7-8,5.5-12.1c0.2-0.5,0.4-1,1.1-0.9c0.7,0.2,1.6-0.1,1.9,1.1
		c1.7,6.8,3.6,13.6,5.4,20.3c0.3,1.3,0.2,1.4-1,1.5c-3.3,0.1-6.7,0.2-10,0.2c-1.9,0-3.6-2-3.7-4.2C9.9,42,10,41.3,10,40.4z"/>
	<path class="st0" d="M37.2,28.4c0-2.7-2-5-5.2-4.9c-3.7,0.1-7.4,0-11.2,0h-1.1c-0.1,0.9,0.3,1.1,1,1.1c2.5,0,5,0,7.4,0
		c0.5,0,0.9,0,0.9,0.7c0.3,4.9-0.7,9.4-3.7,13.4c-0.3,0.5-0.9,0.8-1.4,1.2c0.2,0.7,0.2,0.7,1,0.7c1.2,0,2.4-0.1,3.6,0
		c1.7,0.2,2.6,0.9,2.7,1.8c0.1,1.1-0.8,2.1-2.5,2.5c-1.1,0.3-2.2,0.3-3.4,0.5c0.2,0.3,0.5,0.8,0.7,0.8c2,0.1,4-0.2,5.5-1.7
		c1.4-1.5,1.1-3.5-0.8-4.4c-0.3-0.2-0.6-0.3-1-0.5c3.2-4.6,3.8-9.7,3.3-15.1c1.4,0.4,2.2,1.3,2.6,2.5c0.2,0.8,0.3,1.6,0.3,2.4
		c0,4.8,0,9.7,0,14.5c0,0.3,0.3,0.7,0.5,1c0.2-0.3,0.5-0.5,0.5-0.8C37.2,38.9,37.3,33.7,37.2,28.4z M30,37.5
		c-0.1,0.2-0.3,0.5-0.4,0.7c-0.9,1.4-1.1,1.5-3,1.1c3-4.4,4.1-9.2,3.7-14.4c1.8-0.1,1.8-0.1,1.9,1.5C32.4,30.3,31.9,34,30,37.5z"/>
	<path class="st0" d="M31.3,11c-0.3-3.1-1.6-5.2-4.6-6c-0.1,0-0.2-0.1-0.3-0.1c-0.8-1.7-2.3-1.2-3.6-1.2c-0.5,0-1.2,0.1-1.4,0.4
		c-0.6,0.9-1.5,1-2.3,1.4c-0.6,0.4-1.3,0.9-1.8,1.4c-1,1.1-1.4,2.5-1.5,4.1c-1.3,0.1-1.4,1-1.4,2c0,1,0.5,1.4,1.4,1.5
		c0.4,4.7,3.2,7.6,7.3,7.8c4.4,0.2,7.2-2.5,8.1-7.8c0.8-0.1,1.3-0.5,1.3-1.5C32.7,12,32.6,11.1,31.3,11z M20.7,6.3
		c0,0.9,0,1.9,0,2.8c0,0.3,0.3,0.6,0.4,0.9c0.2-0.3,0.5-0.6,0.5-0.9c0.1-1.2,0-2.4,0-3.5c0-0.7,0.3-1.1,1-1.1c3.1,0,3-0.3,2.9,2.7
		c0,0.6,0,1.2,0,1.8c0,0.3,0.3,0.7,0.4,1c0.2-0.4,0.4-0.7,0.4-1c0.1-0.9,0-1.8,0-2.7c2.2,0.3,3.8,2.6,3.4,4.7H17.2
		C16.8,8.9,18.6,6.5,20.7,6.3z M30,15.7c-0.4,3.3-3.5,5.8-7,5.6c-3.2-0.2-6-3-6.1-6.2c0-0.2,0-0.3,0.1-0.6h12
		C30.2,14.5,30.2,14.5,30,15.7z M30.8,13.7c-2.4,0-4.8,0-7.2,0c-2.4,0-4.8,0-7.2,0c-0.7,0-1.1-0.1-1-0.9c0-0.8,0.4-0.8,1-0.8
		c4.8,0,9.6,0,14.5,0c0.6,0,1,0.1,1,0.9C31.8,13.5,31.5,13.7,30.8,13.7z"/>
	<path class="st0" d="M9.9,36.5c0-2.8-0.2-5.7,0-8.5c0.2-3.1,2.6-4.8,5.9-4.2c-0.4,0.3-0.7,0.7-1.1,0.8c-2.4,0.3-3.8,1.7-3.8,4.3
		c0,1.6,0.1,3.2,0,4.7c-0.1,1-0.4,2-0.6,3C10.1,36.6,10,36.5,9.9,36.5z"/>
	<path class="st0" d="M27.3,18.3c0,0.1,0,0.2,0,0.3c-0.3,0.1-0.7,0.3-0.9,0.1c-1.7-1.1-3.4-0.8-5.1,0c-0.2,0.1-0.5-0.1-0.8-0.1
		c0.1-0.3,0.1-0.7,0.3-0.8c1.5-1.1,4.3-1.1,5.8-0.2C26.8,17.9,27,18.1,27.3,18.3z"/>
</g>
</svg>
